<mxfile host="app.diagrams.net" modified="2024-04-04T03:32:50.210Z" agent="Mozilla/5.0 (Windows NT 10.0; Win64; x64) AppleWebKit/537.36 (KHTML, like Gecko) Chrome/123.0.0.0 Safari/537.36" etag="sXS_rweawYabeZA_DWjE" version="24.2.2" type="device" pages="4">
  <diagram id="C5RBs43oDa-KdzZeNtuy" name="Driagrama de flujo">
    <mxGraphModel dx="1802" dy="2019" grid="1" gridSize="10" guides="1" tooltips="1" connect="1" arrows="1" fold="1" page="1" pageScale="1" pageWidth="827" pageHeight="1169" math="0" shadow="0">
      <root>
        <mxCell id="WIyWlLk6GJQsqaUBKTNV-0" />
        <mxCell id="WIyWlLk6GJQsqaUBKTNV-1" parent="WIyWlLk6GJQsqaUBKTNV-0" />
        <mxCell id="uTwauLM9oYa2neqI3rRs-13" style="edgeStyle=orthogonalEdgeStyle;rounded=0;orthogonalLoop=1;jettySize=auto;html=1;entryX=0;entryY=0.5;entryDx=0;entryDy=0;" parent="WIyWlLk6GJQsqaUBKTNV-1" source="uTwauLM9oYa2neqI3rRs-0" target="uTwauLM9oYa2neqI3rRs-12" edge="1">
          <mxGeometry relative="1" as="geometry" />
        </mxCell>
        <mxCell id="uTwauLM9oYa2neqI3rRs-0" value="Actor" style="shape=umlActor;verticalLabelPosition=bottom;verticalAlign=top;html=1;outlineConnect=0;" parent="WIyWlLk6GJQsqaUBKTNV-1" vertex="1">
          <mxGeometry x="10" y="-30" width="30" height="60" as="geometry" />
        </mxCell>
        <mxCell id="uTwauLM9oYa2neqI3rRs-25" style="edgeStyle=orthogonalEdgeStyle;rounded=0;orthogonalLoop=1;jettySize=auto;html=1;" parent="WIyWlLk6GJQsqaUBKTNV-1" source="uTwauLM9oYa2neqI3rRs-7" edge="1">
          <mxGeometry relative="1" as="geometry">
            <mxPoint x="610" y="170" as="targetPoint" />
            <Array as="points">
              <mxPoint x="706" y="205" />
              <mxPoint x="706" y="171" />
              <mxPoint x="610" y="171" />
            </Array>
          </mxGeometry>
        </mxCell>
        <mxCell id="uTwauLM9oYa2neqI3rRs-49" style="edgeStyle=orthogonalEdgeStyle;rounded=0;orthogonalLoop=1;jettySize=auto;html=1;" parent="WIyWlLk6GJQsqaUBKTNV-1" source="uTwauLM9oYa2neqI3rRs-7" target="uTwauLM9oYa2neqI3rRs-48" edge="1">
          <mxGeometry relative="1" as="geometry" />
        </mxCell>
        <mxCell id="uTwauLM9oYa2neqI3rRs-7" value="&lt;br&gt;Generar Preguntas de &lt;br&gt;Entrevista" style="ellipse;whiteSpace=wrap;html=1;verticalAlign=top;" parent="WIyWlLk6GJQsqaUBKTNV-1" vertex="1">
          <mxGeometry x="930" y="230" width="310" height="70" as="geometry" />
        </mxCell>
        <mxCell id="uTwauLM9oYa2neqI3rRs-17" style="edgeStyle=orthogonalEdgeStyle;rounded=0;orthogonalLoop=1;jettySize=auto;html=1;" parent="WIyWlLk6GJQsqaUBKTNV-1" source="uTwauLM9oYa2neqI3rRs-22" target="uTwauLM9oYa2neqI3rRs-15" edge="1">
          <mxGeometry relative="1" as="geometry">
            <Array as="points">
              <mxPoint x="685" y="-80" />
              <mxPoint x="1002" y="-80" />
            </Array>
          </mxGeometry>
        </mxCell>
        <mxCell id="uTwauLM9oYa2neqI3rRs-12" value="Front" style="swimlane;whiteSpace=wrap;html=1;" parent="WIyWlLk6GJQsqaUBKTNV-1" vertex="1">
          <mxGeometry x="414" y="-10" width="200" height="250" as="geometry" />
        </mxCell>
        <mxCell id="uTwauLM9oYa2neqI3rRs-24" value="Generando &lt;br&gt;entrevista" style="ellipse;whiteSpace=wrap;html=1;verticalAlign=top;" parent="uTwauLM9oYa2neqI3rRs-12" vertex="1">
          <mxGeometry x="33" y="60" width="134" height="50" as="geometry" />
        </mxCell>
        <mxCell id="uTwauLM9oYa2neqI3rRs-26" value="Tu entrevista fue generada Estas listo?" style="ellipse;whiteSpace=wrap;html=1;verticalAlign=top;" parent="uTwauLM9oYa2neqI3rRs-12" vertex="1">
          <mxGeometry x="33" y="170" width="134" height="50" as="geometry" />
        </mxCell>
        <mxCell id="uTwauLM9oYa2neqI3rRs-51" value="" style="edgeStyle=orthogonalEdgeStyle;rounded=0;orthogonalLoop=1;jettySize=auto;html=1;" parent="WIyWlLk6GJQsqaUBKTNV-1" source="uTwauLM9oYa2neqI3rRs-15" target="uTwauLM9oYa2neqI3rRs-50" edge="1">
          <mxGeometry relative="1" as="geometry" />
        </mxCell>
        <mxCell id="uTwauLM9oYa2neqI3rRs-15" value="&lt;br&gt;Analizar Hoja de Vida y Puesto" style="ellipse;whiteSpace=wrap;html=1;verticalAlign=top;" parent="WIyWlLk6GJQsqaUBKTNV-1" vertex="1">
          <mxGeometry x="860" y="-60" width="350" height="70" as="geometry" />
        </mxCell>
        <mxCell id="uTwauLM9oYa2neqI3rRs-16" value="&lt;br&gt;Ingresar Hoja de Vida y Puesto Al cual esta aplicando" style="ellipse;whiteSpace=wrap;html=1;verticalAlign=top;" parent="WIyWlLk6GJQsqaUBKTNV-1" vertex="1">
          <mxGeometry x="90" y="10" width="310" height="70" as="geometry" />
        </mxCell>
        <mxCell id="uTwauLM9oYa2neqI3rRs-23" value="" style="edgeStyle=orthogonalEdgeStyle;rounded=0;orthogonalLoop=1;jettySize=auto;html=1;" parent="WIyWlLk6GJQsqaUBKTNV-1" source="uTwauLM9oYa2neqI3rRs-12" target="uTwauLM9oYa2neqI3rRs-22" edge="1">
          <mxGeometry relative="1" as="geometry">
            <mxPoint x="614" y="90" as="sourcePoint" />
            <mxPoint x="780" y="90" as="targetPoint" />
          </mxGeometry>
        </mxCell>
        <mxCell id="uTwauLM9oYa2neqI3rRs-22" value="Asincrono" style="ellipse;whiteSpace=wrap;html=1;verticalAlign=top;" parent="WIyWlLk6GJQsqaUBKTNV-1" vertex="1">
          <mxGeometry x="630" y="75" width="110" height="30" as="geometry" />
        </mxCell>
        <mxCell id="uTwauLM9oYa2neqI3rRs-27" value="Preguntas" style="swimlane;fontStyle=0;childLayout=stackLayout;horizontal=1;startSize=30;horizontalStack=0;resizeParent=1;resizeParentMax=0;resizeLast=0;collapsible=1;marginBottom=0;whiteSpace=wrap;html=1;" parent="WIyWlLk6GJQsqaUBKTNV-1" vertex="1">
          <mxGeometry x="340" y="300" width="360" height="120" as="geometry" />
        </mxCell>
        <mxCell id="uTwauLM9oYa2neqI3rRs-28" value="Pregunta 1 (texto y ejecutable)" style="text;strokeColor=none;fillColor=none;align=left;verticalAlign=middle;spacingLeft=4;spacingRight=4;overflow=hidden;points=[[0,0.5],[1,0.5]];portConstraint=eastwest;rotatable=0;whiteSpace=wrap;html=1;" parent="uTwauLM9oYa2neqI3rRs-27" vertex="1">
          <mxGeometry y="30" width="360" height="30" as="geometry" />
        </mxCell>
        <mxCell id="uTwauLM9oYa2neqI3rRs-29" value="Pregunta 2 (texto y ejecutable)" style="text;strokeColor=none;fillColor=none;align=left;verticalAlign=middle;spacingLeft=4;spacingRight=4;overflow=hidden;points=[[0,0.5],[1,0.5]];portConstraint=eastwest;rotatable=0;whiteSpace=wrap;html=1;" parent="uTwauLM9oYa2neqI3rRs-27" vertex="1">
          <mxGeometry y="60" width="360" height="30" as="geometry" />
        </mxCell>
        <mxCell id="uTwauLM9oYa2neqI3rRs-30" value="Pregunta 3 (texto y ejecutable)" style="text;strokeColor=none;fillColor=none;align=left;verticalAlign=middle;spacingLeft=4;spacingRight=4;overflow=hidden;points=[[0,0.5],[1,0.5]];portConstraint=eastwest;rotatable=0;whiteSpace=wrap;html=1;" parent="uTwauLM9oYa2neqI3rRs-27" vertex="1">
          <mxGeometry y="90" width="360" height="30" as="geometry" />
        </mxCell>
        <mxCell id="uTwauLM9oYa2neqI3rRs-41" style="edgeStyle=orthogonalEdgeStyle;rounded=0;orthogonalLoop=1;jettySize=auto;html=1;entryX=0;entryY=0.5;entryDx=0;entryDy=0;" parent="WIyWlLk6GJQsqaUBKTNV-1" source="uTwauLM9oYa2neqI3rRs-34" edge="1">
          <mxGeometry relative="1" as="geometry">
            <mxPoint x="770.0000000000086" y="300" as="targetPoint" />
          </mxGeometry>
        </mxCell>
        <mxCell id="uTwauLM9oYa2neqI3rRs-34" value="" style="ellipse;html=1;shape=endState;fillColor=#000000;strokeColor=#ff0000;" parent="WIyWlLk6GJQsqaUBKTNV-1" vertex="1">
          <mxGeometry x="700" y="335" width="30" height="30" as="geometry" />
        </mxCell>
        <mxCell id="uTwauLM9oYa2neqI3rRs-38" value="" style="edgeStyle=orthogonalEdgeStyle;rounded=0;orthogonalLoop=1;jettySize=auto;html=1;" parent="WIyWlLk6GJQsqaUBKTNV-1" source="uTwauLM9oYa2neqI3rRs-35" target="uTwauLM9oYa2neqI3rRs-37" edge="1">
          <mxGeometry relative="1" as="geometry">
            <Array as="points">
              <mxPoint x="945" y="290" />
            </Array>
          </mxGeometry>
        </mxCell>
        <mxCell id="uTwauLM9oYa2neqI3rRs-35" value="Capturar la la respuesta del usuario por voz" style="ellipse;whiteSpace=wrap;html=1;" parent="WIyWlLk6GJQsqaUBKTNV-1" vertex="1">
          <mxGeometry x="740" y="250" width="120" height="80" as="geometry" />
        </mxCell>
        <mxCell id="uTwauLM9oYa2neqI3rRs-43" style="edgeStyle=orthogonalEdgeStyle;rounded=0;orthogonalLoop=1;jettySize=auto;html=1;" parent="WIyWlLk6GJQsqaUBKTNV-1" source="uTwauLM9oYa2neqI3rRs-37" target="uTwauLM9oYa2neqI3rRs-42" edge="1">
          <mxGeometry relative="1" as="geometry" />
        </mxCell>
        <mxCell id="uTwauLM9oYa2neqI3rRs-44" style="edgeStyle=orthogonalEdgeStyle;rounded=0;orthogonalLoop=1;jettySize=auto;html=1;" parent="WIyWlLk6GJQsqaUBKTNV-1" source="uTwauLM9oYa2neqI3rRs-37" target="uTwauLM9oYa2neqI3rRs-39" edge="1">
          <mxGeometry relative="1" as="geometry" />
        </mxCell>
        <mxCell id="uTwauLM9oYa2neqI3rRs-37" value="Analiza la respuesta y genera el feedback" style="ellipse;whiteSpace=wrap;html=1;" parent="WIyWlLk6GJQsqaUBKTNV-1" vertex="1">
          <mxGeometry x="905" y="340" width="80" height="80" as="geometry" />
        </mxCell>
        <mxCell id="uTwauLM9oYa2neqI3rRs-46" value="" style="edgeStyle=orthogonalEdgeStyle;rounded=0;orthogonalLoop=1;jettySize=auto;html=1;" parent="WIyWlLk6GJQsqaUBKTNV-1" source="uTwauLM9oYa2neqI3rRs-39" target="uTwauLM9oYa2neqI3rRs-45" edge="1">
          <mxGeometry relative="1" as="geometry" />
        </mxCell>
        <mxCell id="uTwauLM9oYa2neqI3rRs-39" value="Guardando la respuesta con el feedback" style="ellipse;whiteSpace=wrap;html=1;" parent="WIyWlLk6GJQsqaUBKTNV-1" vertex="1">
          <mxGeometry x="950" y="470" width="100" height="80" as="geometry" />
        </mxCell>
        <mxCell id="uTwauLM9oYa2neqI3rRs-55" style="edgeStyle=orthogonalEdgeStyle;rounded=0;orthogonalLoop=1;jettySize=auto;html=1;entryX=0.5;entryY=0;entryDx=0;entryDy=0;" parent="WIyWlLk6GJQsqaUBKTNV-1" source="uTwauLM9oYa2neqI3rRs-42" target="uTwauLM9oYa2neqI3rRs-54" edge="1">
          <mxGeometry relative="1" as="geometry" />
        </mxCell>
        <mxCell id="uTwauLM9oYa2neqI3rRs-42" value="Mostramos el feedback/ calificamos la respuesta del 1/10" style="rounded=1;whiteSpace=wrap;html=1;" parent="WIyWlLk6GJQsqaUBKTNV-1" vertex="1">
          <mxGeometry x="670" y="585" width="120" height="60" as="geometry" />
        </mxCell>
        <mxCell id="uTwauLM9oYa2neqI3rRs-45" value="Ir armando la CV Mejorada" style="ellipse;whiteSpace=wrap;html=1;" parent="WIyWlLk6GJQsqaUBKTNV-1" vertex="1">
          <mxGeometry x="950" y="620" width="120" height="120" as="geometry" />
        </mxCell>
        <mxCell id="uTwauLM9oYa2neqI3rRs-47" style="edgeStyle=orthogonalEdgeStyle;rounded=0;orthogonalLoop=1;jettySize=auto;html=1;entryX=0.474;entryY=0.004;entryDx=0;entryDy=0;entryPerimeter=0;" parent="WIyWlLk6GJQsqaUBKTNV-1" source="uTwauLM9oYa2neqI3rRs-26" target="uTwauLM9oYa2neqI3rRs-27" edge="1">
          <mxGeometry relative="1" as="geometry" />
        </mxCell>
        <mxCell id="uTwauLM9oYa2neqI3rRs-48" value="Genera un tiempo por cada una de las preguntas" style="ellipse;whiteSpace=wrap;html=1;" parent="WIyWlLk6GJQsqaUBKTNV-1" vertex="1">
          <mxGeometry x="1310" y="360" width="150" height="90" as="geometry" />
        </mxCell>
        <mxCell id="uTwauLM9oYa2neqI3rRs-50" value="&lt;br&gt;&lt;br&gt;&amp;nbsp;Obtener informacion de la empresa (los trabajadores en LinkedIn que trabajan en esa empresa y que tienen tecnología de la&lt;br&gt;)" style="ellipse;whiteSpace=wrap;html=1;verticalAlign=top;" parent="WIyWlLk6GJQsqaUBKTNV-1" vertex="1">
          <mxGeometry x="1280" y="-40" width="260" height="150" as="geometry" />
        </mxCell>
        <mxCell id="uTwauLM9oYa2neqI3rRs-52" style="edgeStyle=orthogonalEdgeStyle;rounded=0;orthogonalLoop=1;jettySize=auto;html=1;entryX=0.533;entryY=0.018;entryDx=0;entryDy=0;entryPerimeter=0;" parent="WIyWlLk6GJQsqaUBKTNV-1" source="uTwauLM9oYa2neqI3rRs-50" target="uTwauLM9oYa2neqI3rRs-7" edge="1">
          <mxGeometry relative="1" as="geometry">
            <Array as="points">
              <mxPoint x="1095" y="120" />
            </Array>
          </mxGeometry>
        </mxCell>
        <mxCell id="uTwauLM9oYa2neqI3rRs-53" value="Difucultad def la entrevista" style="ellipse;whiteSpace=wrap;html=1;verticalAlign=top;" parent="WIyWlLk6GJQsqaUBKTNV-1" vertex="1">
          <mxGeometry x="206" y="-60" width="134" height="50" as="geometry" />
        </mxCell>
        <mxCell id="uTwauLM9oYa2neqI3rRs-54" value="Mensaje motivacional cuando haga el feedback" style="ellipse;whiteSpace=wrap;html=1;" parent="WIyWlLk6GJQsqaUBKTNV-1" vertex="1">
          <mxGeometry x="670" y="680" width="120" height="120" as="geometry" />
        </mxCell>
        <mxCell id="DYLZ6HHE-ajAR2rxuoz9-2" style="edgeStyle=orthogonalEdgeStyle;rounded=0;orthogonalLoop=1;jettySize=auto;html=1;entryX=0.5;entryY=0;entryDx=0;entryDy=0;" parent="WIyWlLk6GJQsqaUBKTNV-1" source="DYLZ6HHE-ajAR2rxuoz9-0" target="uTwauLM9oYa2neqI3rRs-12" edge="1">
          <mxGeometry relative="1" as="geometry" />
        </mxCell>
        <mxCell id="DYLZ6HHE-ajAR2rxuoz9-0" value="REQUERIMIENTOS FUNCIONALES" style="ellipse;whiteSpace=wrap;html=1;verticalAlign=top;" parent="WIyWlLk6GJQsqaUBKTNV-1" vertex="1">
          <mxGeometry x="344" y="-370" width="340" height="40" as="geometry" />
        </mxCell>
      </root>
    </mxGraphModel>
  </diagram>
  <diagram id="_Tw5yXQrdK_jVX-L5AhE" name="Diagrama de arquitectura">
    <mxGraphModel dx="4703" dy="2517" grid="1" gridSize="10" guides="1" tooltips="1" connect="1" arrows="1" fold="1" page="1" pageScale="1" pageWidth="850" pageHeight="1100" math="0" shadow="0">
      <root>
        <mxCell id="0" />
        <mxCell id="1" parent="0" />
        <mxCell id="bJdG1Db9n-pp6D5Mz_SG-1" style="edgeStyle=orthogonalEdgeStyle;rounded=0;orthogonalLoop=1;jettySize=auto;html=1;entryX=0;entryY=0.5;entryDx=0;entryDy=0;" parent="1" source="16AvDH3U5VYdPH64AMo1-2" target="bvOwgW89cS9pIb3cwINh-3" edge="1">
          <mxGeometry relative="1" as="geometry">
            <Array as="points">
              <mxPoint x="-525" y="550" />
              <mxPoint x="25" y="550" />
              <mxPoint x="25" y="605" />
            </Array>
          </mxGeometry>
        </mxCell>
        <mxCell id="bJdG1Db9n-pp6D5Mz_SG-7" style="edgeStyle=orthogonalEdgeStyle;rounded=0;orthogonalLoop=1;jettySize=auto;html=1;entryX=0;entryY=0.5;entryDx=0;entryDy=0;" parent="1" source="16AvDH3U5VYdPH64AMo1-2" target="bJdG1Db9n-pp6D5Mz_SG-6" edge="1">
          <mxGeometry relative="1" as="geometry">
            <Array as="points">
              <mxPoint x="-525" y="1050" />
              <mxPoint x="285" y="1050" />
            </Array>
          </mxGeometry>
        </mxCell>
        <mxCell id="Vyg_dLRH75_ZcHdOPbP7-1" style="edgeStyle=orthogonalEdgeStyle;rounded=0;orthogonalLoop=1;jettySize=auto;html=1;entryX=0.5;entryY=1;entryDx=0;entryDy=0;" parent="1" source="16AvDH3U5VYdPH64AMo1-2" target="lTNFElT4lLCEtZjEqk3c-19" edge="1">
          <mxGeometry relative="1" as="geometry">
            <Array as="points">
              <mxPoint x="-590" y="810" />
              <mxPoint x="110" y="810" />
              <mxPoint x="110" y="620" />
              <mxPoint x="285" y="620" />
            </Array>
          </mxGeometry>
        </mxCell>
        <mxCell id="16AvDH3U5VYdPH64AMo1-2" value="Login" style="ellipse;whiteSpace=wrap;html=1;verticalAlign=top;" parent="1" vertex="1">
          <mxGeometry x="-830" y="-10" width="610" height="410" as="geometry" />
        </mxCell>
        <mxCell id="lTNFElT4lLCEtZjEqk3c-13" value="" style="rounded=1;whiteSpace=wrap;html=1;" parent="1" vertex="1">
          <mxGeometry x="80" y="-700" width="1450" height="1560" as="geometry" />
        </mxCell>
        <mxCell id="ive5ylKGiLo58AgqGxgb-3" style="edgeStyle=orthogonalEdgeStyle;rounded=0;orthogonalLoop=1;jettySize=auto;html=1;entryX=1;entryY=0.5;entryDx=0;entryDy=0;" parent="1" source="MK39H2_sIX_CrVEcfrlE-1" target="ive5ylKGiLo58AgqGxgb-2" edge="1">
          <mxGeometry relative="1" as="geometry" />
        </mxCell>
        <mxCell id="tNyClH7keLqfFiHA2iMq-3" value="" style="edgeStyle=orthogonalEdgeStyle;rounded=0;orthogonalLoop=1;jettySize=auto;html=1;" parent="1" source="MK39H2_sIX_CrVEcfrlE-1" target="mkEhiI99xhhr5U6flsp_-2" edge="1">
          <mxGeometry relative="1" as="geometry" />
        </mxCell>
        <mxCell id="tNyClH7keLqfFiHA2iMq-4" value="" style="edgeStyle=orthogonalEdgeStyle;rounded=0;orthogonalLoop=1;jettySize=auto;html=1;" parent="1" source="MK39H2_sIX_CrVEcfrlE-1" target="mkEhiI99xhhr5U6flsp_-2" edge="1">
          <mxGeometry relative="1" as="geometry" />
        </mxCell>
        <mxCell id="BbVS6C69vHKNdvWaCgEk-8" value="" style="edgeStyle=orthogonalEdgeStyle;rounded=0;orthogonalLoop=1;jettySize=auto;html=1;" parent="1" source="MK39H2_sIX_CrVEcfrlE-1" edge="1">
          <mxGeometry relative="1" as="geometry">
            <Array as="points">
              <mxPoint x="360" y="70" />
              <mxPoint x="300" y="70" />
              <mxPoint x="300" y="-80" />
            </Array>
            <mxPoint x="300" y="-19.999999999999545" as="targetPoint" />
          </mxGeometry>
        </mxCell>
        <mxCell id="BbVS6C69vHKNdvWaCgEk-62" style="edgeStyle=orthogonalEdgeStyle;rounded=0;orthogonalLoop=1;jettySize=auto;html=1;" parent="1" source="MK39H2_sIX_CrVEcfrlE-1" target="VqnH3XjOMXumP3Hjl7R5-1" edge="1">
          <mxGeometry relative="1" as="geometry">
            <Array as="points">
              <mxPoint x="1020" y="250" />
            </Array>
          </mxGeometry>
        </mxCell>
        <mxCell id="BbVS6C69vHKNdvWaCgEk-68" value="HTTP" style="edgeLabel;html=1;align=center;verticalAlign=middle;resizable=0;points=[];" parent="BbVS6C69vHKNdvWaCgEk-62" vertex="1" connectable="0">
          <mxGeometry x="-0.0592" y="-3" relative="1" as="geometry">
            <mxPoint x="-31" y="-3" as="offset" />
          </mxGeometry>
        </mxCell>
        <mxCell id="hdszNxT6--n5JB6a5EMV-1" style="edgeStyle=orthogonalEdgeStyle;rounded=0;orthogonalLoop=1;jettySize=auto;html=1;entryX=0;entryY=0.5;entryDx=0;entryDy=0;" parent="1" source="MK39H2_sIX_CrVEcfrlE-1" target="BbVS6C69vHKNdvWaCgEk-43" edge="1">
          <mxGeometry relative="1" as="geometry" />
        </mxCell>
        <mxCell id="hdszNxT6--n5JB6a5EMV-2" value="HTTP" style="edgeLabel;html=1;align=center;verticalAlign=middle;resizable=0;points=[];" parent="hdszNxT6--n5JB6a5EMV-1" vertex="1" connectable="0">
          <mxGeometry x="0.5983" y="2" relative="1" as="geometry">
            <mxPoint as="offset" />
          </mxGeometry>
        </mxCell>
        <mxCell id="MK39H2_sIX_CrVEcfrlE-1" value="Orquestador (JAVA 17&lt;br&gt;springboot 3}" style="ellipse;whiteSpace=wrap;html=1;verticalAlign=top;" parent="1" vertex="1">
          <mxGeometry x="300" y="110" width="300" height="280" as="geometry" />
        </mxCell>
        <mxCell id="BbVS6C69vHKNdvWaCgEk-50" value="" style="edgeStyle=orthogonalEdgeStyle;rounded=0;orthogonalLoop=1;jettySize=auto;html=1;" parent="1" source="7hrMT0p6hW7YNOZe7QX4-1" target="BbVS6C69vHKNdvWaCgEk-49" edge="1">
          <mxGeometry relative="1" as="geometry">
            <Array as="points">
              <mxPoint x="1244" y="-330" />
              <mxPoint x="1310" y="-330" />
            </Array>
          </mxGeometry>
        </mxCell>
        <mxCell id="BbVS6C69vHKNdvWaCgEk-58" style="edgeStyle=orthogonalEdgeStyle;rounded=0;orthogonalLoop=1;jettySize=auto;html=1;entryX=0.5;entryY=0;entryDx=0;entryDy=0;exitX=-0.006;exitY=0.46;exitDx=0;exitDy=0;exitPerimeter=0;" parent="1" source="7hrMT0p6hW7YNOZe7QX4-1" target="BbVS6C69vHKNdvWaCgEk-56" edge="1">
          <mxGeometry relative="1" as="geometry">
            <Array as="points">
              <mxPoint x="1138" y="-110" />
              <mxPoint x="921" y="-110" />
            </Array>
            <mxPoint x="1109" y="-50" as="sourcePoint" />
          </mxGeometry>
        </mxCell>
        <mxCell id="hdszNxT6--n5JB6a5EMV-7" style="edgeStyle=orthogonalEdgeStyle;rounded=0;orthogonalLoop=1;jettySize=auto;html=1;entryX=1;entryY=0.5;entryDx=0;entryDy=0;" parent="1" source="7hrMT0p6hW7YNOZe7QX4-1" target="hdszNxT6--n5JB6a5EMV-6" edge="1">
          <mxGeometry relative="1" as="geometry" />
        </mxCell>
        <mxCell id="7hrMT0p6hW7YNOZe7QX4-1" value="recopilador&lt;br&gt;informacion Empresa(PTH)" style="ellipse;whiteSpace=wrap;html=1;verticalAlign=top;" parent="1" vertex="1">
          <mxGeometry x="1140" y="-160" width="268.74" height="240" as="geometry" />
        </mxCell>
        <mxCell id="QYmC_qpUat1cOEMkwfdP-1" value="Investigar de empresas&lt;br&gt;(Webscraping)" style="ellipse;whiteSpace=wrap;html=1;verticalAlign=top;" parent="1" vertex="1">
          <mxGeometry x="1150" y="-250" width="220" height="60" as="geometry" />
        </mxCell>
        <mxCell id="BbVS6C69vHKNdvWaCgEk-64" style="edgeStyle=orthogonalEdgeStyle;rounded=0;orthogonalLoop=1;jettySize=auto;html=1;" parent="1" source="VqnH3XjOMXumP3Hjl7R5-1" target="BbVS6C69vHKNdvWaCgEk-63" edge="1">
          <mxGeometry relative="1" as="geometry" />
        </mxCell>
        <mxCell id="bJdG1Db9n-pp6D5Mz_SG-2" style="edgeStyle=orthogonalEdgeStyle;rounded=0;orthogonalLoop=1;jettySize=auto;html=1;" parent="1" source="VqnH3XjOMXumP3Hjl7R5-1" target="bvOwgW89cS9pIb3cwINh-3" edge="1">
          <mxGeometry relative="1" as="geometry">
            <Array as="points">
              <mxPoint x="710" y="480" />
              <mxPoint x="710" y="630" />
            </Array>
          </mxGeometry>
        </mxCell>
        <mxCell id="_V7GPg7Uke1mIcKpwmKH-1" style="edgeStyle=orthogonalEdgeStyle;rounded=0;orthogonalLoop=1;jettySize=auto;html=1;" edge="1" parent="1" source="VqnH3XjOMXumP3Hjl7R5-1" target="7hrMT0p6hW7YNOZe7QX4-1">
          <mxGeometry relative="1" as="geometry">
            <Array as="points">
              <mxPoint x="1005" y="280" />
              <mxPoint x="1350" y="280" />
            </Array>
          </mxGeometry>
        </mxCell>
        <mxCell id="VqnH3XjOMXumP3Hjl7R5-1" value="Preparador de &lt;br&gt;entrevista(PTH)&lt;br&gt;&lt;div style=&quot;color: rgb(204, 204, 204); background-color: rgb(31, 31, 31); font-family: Consolas, &amp;quot;Courier New&amp;quot;, monospace; font-size: 14px; line-height: 19px;&quot;&gt;langchain.llms &lt;br&gt;HuggingFaceHub&lt;/div&gt;" style="ellipse;whiteSpace=wrap;html=1;verticalAlign=top;" parent="1" vertex="1">
          <mxGeometry x="830" y="365" width="350" height="230" as="geometry" />
        </mxCell>
        <mxCell id="rvywaRMbYtwIem8AMP04-3" value="Orqestador envia info a preparador" style="ellipse;whiteSpace=wrap;html=1;" parent="1" vertex="1">
          <mxGeometry x="279.91999999999996" y="290" width="112.5" height="80" as="geometry" />
        </mxCell>
        <mxCell id="bJdG1Db9n-pp6D5Mz_SG-5" style="edgeStyle=orthogonalEdgeStyle;rounded=0;orthogonalLoop=1;jettySize=auto;html=1;" parent="1" source="ive5ylKGiLo58AgqGxgb-1" target="bJdG1Db9n-pp6D5Mz_SG-4" edge="1">
          <mxGeometry relative="1" as="geometry">
            <Array as="points">
              <mxPoint x="1186" y="440" />
              <mxPoint x="1580" y="440" />
            </Array>
          </mxGeometry>
        </mxCell>
        <mxCell id="ive5ylKGiLo58AgqGxgb-1" value="genera preguntas" style="ellipse;whiteSpace=wrap;html=1;" parent="1" vertex="1">
          <mxGeometry x="1130" y="445" width="112.5" height="80" as="geometry" />
        </mxCell>
        <mxCell id="ive5ylKGiLo58AgqGxgb-5" style="edgeStyle=orthogonalEdgeStyle;rounded=0;orthogonalLoop=1;jettySize=auto;html=1;entryX=0;entryY=0.5;entryDx=0;entryDy=0;" parent="1" source="ive5ylKGiLo58AgqGxgb-2" target="MK39H2_sIX_CrVEcfrlE-1" edge="1">
          <mxGeometry relative="1" as="geometry" />
        </mxCell>
        <mxCell id="BbVS6C69vHKNdvWaCgEk-33" style="edgeStyle=orthogonalEdgeStyle;rounded=0;orthogonalLoop=1;jettySize=auto;html=1;" parent="1" source="ive5ylKGiLo58AgqGxgb-2" target="BbVS6C69vHKNdvWaCgEk-34" edge="1">
          <mxGeometry relative="1" as="geometry">
            <mxPoint x="-320" y="-120.00000000000023" as="targetPoint" />
          </mxGeometry>
        </mxCell>
        <mxCell id="BbVS6C69vHKNdvWaCgEk-70" value="" style="edgeStyle=orthogonalEdgeStyle;rounded=0;orthogonalLoop=1;jettySize=auto;html=1;" parent="1" source="ive5ylKGiLo58AgqGxgb-2" target="BbVS6C69vHKNdvWaCgEk-69" edge="1">
          <mxGeometry relative="1" as="geometry" />
        </mxCell>
        <mxCell id="ive5ylKGiLo58AgqGxgb-2" value="Front (Angular 17)" style="ellipse;whiteSpace=wrap;html=1;verticalAlign=top;" parent="1" vertex="1">
          <mxGeometry x="-685" y="70" width="300" height="280" as="geometry" />
        </mxCell>
        <mxCell id="R8jU-wJ4KfyQZDHequ2U-1" value="capturando respuestas" style="ellipse;whiteSpace=wrap;html=1;" parent="1" vertex="1">
          <mxGeometry x="-632.5" y="310" width="112.5" height="80" as="geometry" />
        </mxCell>
        <mxCell id="R8jU-wJ4KfyQZDHequ2U-3" value="recibe la respuesta a la pregunta" style="ellipse;whiteSpace=wrap;html=1;" parent="1" vertex="1">
          <mxGeometry x="1030" y="535" width="162.5" height="140" as="geometry" />
        </mxCell>
        <mxCell id="R8jU-wJ4KfyQZDHequ2U-2" value="Analiza la a respuesta y genera el feedback a la respuesta" style="ellipse;whiteSpace=wrap;html=1;" parent="1" vertex="1">
          <mxGeometry x="1070" y="630" width="112.5" height="80" as="geometry" />
        </mxCell>
        <mxCell id="R8jU-wJ4KfyQZDHequ2U-4" value="Actor" style="shape=umlActor;verticalLabelPosition=bottom;verticalAlign=top;html=1;outlineConnect=0;" parent="1" vertex="1">
          <mxGeometry x="-1070" y="204.5" width="30" height="60" as="geometry" />
        </mxCell>
        <mxCell id="jgELzPAYEu5HMi-HUtO2-1" value="generando feedbak global de entrevista y&amp;nbsp; puntuacion&lt;br&gt;(Temas de estuio o putnos por mejorar)" style="ellipse;whiteSpace=wrap;html=1;" parent="1" vertex="1">
          <mxGeometry x="420" y="690" width="190" height="105" as="geometry" />
        </mxCell>
        <mxCell id="P2YSvC09_nZTGuszsQcX-3" value="Feedback completo" style="ellipse;whiteSpace=wrap;html=1;" parent="1" vertex="1">
          <mxGeometry x="300" y="670" width="120" height="120" as="geometry" />
        </mxCell>
        <mxCell id="hdszNxT6--n5JB6a5EMV-5" style="edgeStyle=orthogonalEdgeStyle;rounded=0;orthogonalLoop=1;jettySize=auto;html=1;" parent="1" source="bvOwgW89cS9pIb3cwINh-3" target="MK39H2_sIX_CrVEcfrlE-1" edge="1">
          <mxGeometry relative="1" as="geometry" />
        </mxCell>
        <mxCell id="Vyg_dLRH75_ZcHdOPbP7-2" style="edgeStyle=orthogonalEdgeStyle;rounded=0;orthogonalLoop=1;jettySize=auto;html=1;entryX=0.127;entryY=0.154;entryDx=0;entryDy=0;entryPerimeter=0;" parent="1" source="bvOwgW89cS9pIb3cwINh-3" target="bJdG1Db9n-pp6D5Mz_SG-3" edge="1">
          <mxGeometry relative="1" as="geometry">
            <Array as="points">
              <mxPoint x="770" y="605" />
              <mxPoint x="770" y="910" />
              <mxPoint x="1130" y="910" />
              <mxPoint x="1130" y="1010" />
            </Array>
          </mxGeometry>
        </mxCell>
        <mxCell id="bvOwgW89cS9pIb3cwINh-3" value="Generar feedback (JAVA)" style="ellipse;whiteSpace=wrap;html=1;verticalAlign=top;" parent="1" vertex="1">
          <mxGeometry x="285" y="505" width="330" height="205" as="geometry" />
        </mxCell>
        <mxCell id="tNyClH7keLqfFiHA2iMq-7" style="edgeStyle=orthogonalEdgeStyle;rounded=0;orthogonalLoop=1;jettySize=auto;html=1;" parent="1" source="bvOwgW89cS9pIb3cwINh-7" target="bvOwgW89cS9pIb3cwINh-3" edge="1">
          <mxGeometry relative="1" as="geometry" />
        </mxCell>
        <mxCell id="bvOwgW89cS9pIb3cwINh-7" value="guardando feedbaks para posterior envio a generador de feedback" style="ellipse;whiteSpace=wrap;html=1;" parent="1" vertex="1">
          <mxGeometry x="791.26" y="502.5" width="200" height="130" as="geometry" />
        </mxCell>
        <mxCell id="mkEhiI99xhhr5U6flsp_-3" style="edgeStyle=orthogonalEdgeStyle;rounded=0;orthogonalLoop=1;jettySize=auto;html=1;" parent="1" source="lTNFElT4lLCEtZjEqk3c-14" target="MK39H2_sIX_CrVEcfrlE-1" edge="1">
          <mxGeometry relative="1" as="geometry" />
        </mxCell>
        <mxCell id="mkEhiI99xhhr5U6flsp_-2" value="Interface&amp;nbsp; Capturar la informacion(PDF)&lt;br&gt;&lt;br&gt;Respuesta generando entregvista" style="ellipse;whiteSpace=wrap;html=1;" parent="1" vertex="1">
          <mxGeometry x="-485" y="30" width="160" height="160" as="geometry" />
        </mxCell>
        <mxCell id="mkEhiI99xhhr5U6flsp_-4" value="Interface para espacio de entrevista" style="ellipse;whiteSpace=wrap;html=1;" parent="1" vertex="1">
          <mxGeometry x="-531.25" y="280" width="112.5" height="80" as="geometry" />
        </mxCell>
        <mxCell id="tNyClH7keLqfFiHA2iMq-10" style="edgeStyle=orthogonalEdgeStyle;rounded=0;orthogonalLoop=1;jettySize=auto;html=1;" parent="1" source="tNyClH7keLqfFiHA2iMq-8" target="tNyClH7keLqfFiHA2iMq-9" edge="1">
          <mxGeometry relative="1" as="geometry" />
        </mxCell>
        <mxCell id="tNyClH7keLqfFiHA2iMq-8" value="PENDIENTE" style="ellipse;whiteSpace=wrap;html=1;" parent="1" vertex="1">
          <mxGeometry x="1343.13" y="470" width="112.5" height="80" as="geometry" />
        </mxCell>
        <mxCell id="tNyClH7keLqfFiHA2iMq-12" style="edgeStyle=orthogonalEdgeStyle;rounded=0;orthogonalLoop=1;jettySize=auto;html=1;entryX=0.5;entryY=0;entryDx=0;entryDy=0;" parent="1" source="tNyClH7keLqfFiHA2iMq-9" target="tNyClH7keLqfFiHA2iMq-11" edge="1">
          <mxGeometry relative="1" as="geometry" />
        </mxCell>
        <mxCell id="tNyClH7keLqfFiHA2iMq-9" value="donde se va a procesar la IA&lt;br&gt;Investigacion" style="ellipse;whiteSpace=wrap;html=1;verticalAlign=top;" parent="1" vertex="1">
          <mxGeometry x="1300" y="632.5" width="198.75" height="50" as="geometry" />
        </mxCell>
        <mxCell id="tNyClH7keLqfFiHA2iMq-11" value="Colab" style="ellipse;whiteSpace=wrap;html=1;verticalAlign=top;" parent="1" vertex="1">
          <mxGeometry x="1300" y="702.5" width="198.75" height="50" as="geometry" />
        </mxCell>
        <mxCell id="BbVS6C69vHKNdvWaCgEk-7" value="ESTADOS_ENTREVISTA" style="whiteSpace=wrap;html=1;verticalAlign=top;" parent="1" vertex="1">
          <mxGeometry x="200" y="-140" width="170" height="80" as="geometry" />
        </mxCell>
        <mxCell id="BbVS6C69vHKNdvWaCgEk-29" style="edgeStyle=orthogonalEdgeStyle;rounded=0;orthogonalLoop=1;jettySize=auto;html=1;entryX=0.5;entryY=0;entryDx=0;entryDy=0;" parent="1" source="BbVS6C69vHKNdvWaCgEk-22" target="BbVS6C69vHKNdvWaCgEk-28" edge="1">
          <mxGeometry relative="1" as="geometry" />
        </mxCell>
        <mxCell id="BbVS6C69vHKNdvWaCgEk-48" value="" style="edgeStyle=orthogonalEdgeStyle;rounded=0;orthogonalLoop=1;jettySize=auto;html=1;" parent="1" source="BbVS6C69vHKNdvWaCgEk-22" target="BbVS6C69vHKNdvWaCgEk-47" edge="1">
          <mxGeometry relative="1" as="geometry" />
        </mxCell>
        <mxCell id="BbVS6C69vHKNdvWaCgEk-57" style="edgeStyle=orthogonalEdgeStyle;rounded=0;orthogonalLoop=1;jettySize=auto;html=1;exitX=1;exitY=0.5;exitDx=0;exitDy=0;" parent="1" source="BbVS6C69vHKNdvWaCgEk-22" target="BbVS6C69vHKNdvWaCgEk-56" edge="1">
          <mxGeometry relative="1" as="geometry">
            <Array as="points">
              <mxPoint x="680" y="-250" />
              <mxPoint x="910" y="-250" />
            </Array>
          </mxGeometry>
        </mxCell>
        <mxCell id="r-5t7qR4uQRNDH46Msge-2" style="edgeStyle=orthogonalEdgeStyle;rounded=0;orthogonalLoop=1;jettySize=auto;html=1;" parent="1" source="BbVS6C69vHKNdvWaCgEk-22" target="Vyg_dLRH75_ZcHdOPbP7-3" edge="1">
          <mxGeometry relative="1" as="geometry" />
        </mxCell>
        <mxCell id="BbVS6C69vHKNdvWaCgEk-22" value="Analizador &lt;br&gt;(PTH HuggingFaceHub&lt;span style=&quot;background-color: initial;&quot;&gt;)&lt;/span&gt;" style="ellipse;whiteSpace=wrap;html=1;verticalAlign=top;" parent="1" vertex="1">
          <mxGeometry x="310" y="-520" width="370" height="360" as="geometry" />
        </mxCell>
        <mxCell id="PwCZPx-M4Dng1062TTxa-1" value="&lt;br&gt;Hoja de Vida y Puesto" style="ellipse;whiteSpace=wrap;html=1;verticalAlign=top;" parent="1" vertex="1">
          <mxGeometry x="290" y="-490" width="140" height="90" as="geometry" />
        </mxCell>
        <mxCell id="3X6doPTOEM_ykb_XEn5g-1" value="Formulario &lt;br&gt;puesto" style="ellipse;whiteSpace=wrap;html=1;verticalAlign=top;" parent="1" vertex="1">
          <mxGeometry x="-465" y="145" width="100" height="61.25" as="geometry" />
        </mxCell>
        <mxCell id="2ltroBmK2UhHmXc0UweN-2" value="tambien algun metodo para &lt;br&gt;controlar que los archivos &lt;br&gt;procesados si correspondan a Cvs y ofertas, y no depronto el pdf de un" style="ellipse;whiteSpace=wrap;html=1;verticalAlign=top;" parent="1" vertex="1">
          <mxGeometry x="392.41999999999996" y="-380" width="227.58" height="80" as="geometry" />
        </mxCell>
        <mxCell id="BbVS6C69vHKNdvWaCgEk-24" style="edgeStyle=orthogonalEdgeStyle;rounded=0;orthogonalLoop=1;jettySize=auto;html=1;entryX=0.284;entryY=0.967;entryDx=0;entryDy=0;entryPerimeter=0;" parent="1" source="MK39H2_sIX_CrVEcfrlE-1" target="BbVS6C69vHKNdvWaCgEk-22" edge="1">
          <mxGeometry relative="1" as="geometry" />
        </mxCell>
        <mxCell id="BbVS6C69vHKNdvWaCgEk-40" value="HTTP" style="edgeLabel;html=1;align=center;verticalAlign=middle;resizable=0;points=[];" parent="BbVS6C69vHKNdvWaCgEk-24" vertex="1" connectable="0">
          <mxGeometry x="0.6381" y="-1" relative="1" as="geometry">
            <mxPoint x="-4" y="35" as="offset" />
          </mxGeometry>
        </mxCell>
        <mxCell id="BbVS6C69vHKNdvWaCgEk-30" style="edgeStyle=orthogonalEdgeStyle;rounded=0;orthogonalLoop=1;jettySize=auto;html=1;" parent="1" source="BbVS6C69vHKNdvWaCgEk-28" target="MK39H2_sIX_CrVEcfrlE-1" edge="1">
          <mxGeometry relative="1" as="geometry" />
        </mxCell>
        <mxCell id="BbVS6C69vHKNdvWaCgEk-28" value="acualizzando &lt;br&gt;los estados&amp;nbsp;" style="rhombus;whiteSpace=wrap;html=1;" parent="1" vertex="1">
          <mxGeometry x="480" y="-110" width="140" height="80" as="geometry" />
        </mxCell>
        <mxCell id="BbVS6C69vHKNdvWaCgEk-34" value="List" style="swimlane;fontStyle=0;childLayout=stackLayout;horizontal=1;startSize=30;horizontalStack=0;resizeParent=1;resizeParentMax=0;resizeLast=0;collapsible=1;marginBottom=0;whiteSpace=wrap;html=1;" parent="1" vertex="1">
          <mxGeometry x="-750" y="-200.00000000000023" width="140" height="120" as="geometry" />
        </mxCell>
        <mxCell id="BbVS6C69vHKNdvWaCgEk-35" value="Item 1" style="text;strokeColor=none;fillColor=none;align=left;verticalAlign=middle;spacingLeft=4;spacingRight=4;overflow=hidden;points=[[0,0.5],[1,0.5]];portConstraint=eastwest;rotatable=0;whiteSpace=wrap;html=1;" parent="BbVS6C69vHKNdvWaCgEk-34" vertex="1">
          <mxGeometry y="30" width="140" height="30" as="geometry" />
        </mxCell>
        <mxCell id="BbVS6C69vHKNdvWaCgEk-36" value="Item 2" style="text;strokeColor=none;fillColor=none;align=left;verticalAlign=middle;spacingLeft=4;spacingRight=4;overflow=hidden;points=[[0,0.5],[1,0.5]];portConstraint=eastwest;rotatable=0;whiteSpace=wrap;html=1;" parent="BbVS6C69vHKNdvWaCgEk-34" vertex="1">
          <mxGeometry y="60" width="140" height="30" as="geometry" />
        </mxCell>
        <mxCell id="BbVS6C69vHKNdvWaCgEk-37" value="Item 3" style="text;strokeColor=none;fillColor=none;align=left;verticalAlign=middle;spacingLeft=4;spacingRight=4;overflow=hidden;points=[[0,0.5],[1,0.5]];portConstraint=eastwest;rotatable=0;whiteSpace=wrap;html=1;" parent="BbVS6C69vHKNdvWaCgEk-34" vertex="1">
          <mxGeometry y="90" width="140" height="30" as="geometry" />
        </mxCell>
        <mxCell id="BbVS6C69vHKNdvWaCgEk-39" value="le preguntamos a &lt;br&gt;travez del modelo instructor en huggin face" style="ellipse;whiteSpace=wrap;html=1;verticalAlign=top;" parent="1" vertex="1">
          <mxGeometry x="402.42" y="-270" width="185.16" height="80" as="geometry" />
        </mxCell>
        <mxCell id="BbVS6C69vHKNdvWaCgEk-60" style="edgeStyle=orthogonalEdgeStyle;rounded=0;orthogonalLoop=1;jettySize=auto;html=1;" parent="1" source="BbVS6C69vHKNdvWaCgEk-43" target="7hrMT0p6hW7YNOZe7QX4-1" edge="1">
          <mxGeometry relative="1" as="geometry" />
        </mxCell>
        <mxCell id="BbVS6C69vHKNdvWaCgEk-43" value="Cual era la empresa&amp;nbsp;&lt;br&gt;el puesto" style="rhombus;whiteSpace=wrap;html=1;" parent="1" vertex="1">
          <mxGeometry x="900" y="160" width="140" height="80" as="geometry" />
        </mxCell>
        <mxCell id="BbVS6C69vHKNdvWaCgEk-47" value="Sacar los datos del hoja de vida, otras preguntas del puesto" style="whiteSpace=wrap;html=1;verticalAlign=top;" parent="1" vertex="1">
          <mxGeometry x="402.42" y="-660" width="120" height="60" as="geometry" />
        </mxCell>
        <mxCell id="BbVS6C69vHKNdvWaCgEk-49" value="Webscraping" style="whiteSpace=wrap;html=1;verticalAlign=top;" parent="1" vertex="1">
          <mxGeometry x="1270" y="-350" width="120" height="60" as="geometry" />
        </mxCell>
        <mxCell id="BbVS6C69vHKNdvWaCgEk-53" value="Esperar ambas &lt;br&gt;respuestas o am,bos eventos tienen que haberse cumplido para proceder a la siguiente face" style="ellipse;whiteSpace=wrap;html=1;verticalAlign=top;" parent="1" vertex="1">
          <mxGeometry x="515" y="130" width="145" height="110" as="geometry" />
        </mxCell>
        <mxCell id="BbVS6C69vHKNdvWaCgEk-56" value="publicar eventos&amp;nbsp;&lt;br&gt;simultaneos" style="rhombus;whiteSpace=wrap;html=1;" parent="1" vertex="1">
          <mxGeometry x="851.26" y="-80" width="140" height="80" as="geometry" />
        </mxCell>
        <mxCell id="BbVS6C69vHKNdvWaCgEk-59" style="edgeStyle=orthogonalEdgeStyle;rounded=0;orthogonalLoop=1;jettySize=auto;html=1;entryX=0.962;entryY=0.375;entryDx=0;entryDy=0;entryPerimeter=0;" parent="1" source="BbVS6C69vHKNdvWaCgEk-56" target="BbVS6C69vHKNdvWaCgEk-53" edge="1">
          <mxGeometry relative="1" as="geometry" />
        </mxCell>
        <mxCell id="BbVS6C69vHKNdvWaCgEk-63" value="mensajes" style="rhombus;whiteSpace=wrap;html=1;" parent="1" vertex="1">
          <mxGeometry x="660" y="340" width="140" height="80" as="geometry" />
        </mxCell>
        <mxCell id="hdszNxT6--n5JB6a5EMV-3" value="" style="edgeStyle=orthogonalEdgeStyle;rounded=0;orthogonalLoop=1;jettySize=auto;html=1;" parent="1" source="BbVS6C69vHKNdvWaCgEk-66" target="BbVS6C69vHKNdvWaCgEk-53" edge="1">
          <mxGeometry relative="1" as="geometry" />
        </mxCell>
        <mxCell id="BbVS6C69vHKNdvWaCgEk-66" value="actuizacion de estados" style="ellipse;whiteSpace=wrap;html=1;" parent="1" vertex="1">
          <mxGeometry x="513.75" y="290" width="112.5" height="80" as="geometry" />
        </mxCell>
        <mxCell id="BbVS6C69vHKNdvWaCgEk-67" style="edgeStyle=orthogonalEdgeStyle;rounded=0;orthogonalLoop=1;jettySize=auto;html=1;entryX=0.974;entryY=0.836;entryDx=0;entryDy=0;entryPerimeter=0;" parent="1" source="BbVS6C69vHKNdvWaCgEk-63" target="BbVS6C69vHKNdvWaCgEk-66" edge="1">
          <mxGeometry relative="1" as="geometry" />
        </mxCell>
        <mxCell id="BbVS6C69vHKNdvWaCgEk-69" value="Empresa tres palitos" style="whiteSpace=wrap;html=1;verticalAlign=top;" parent="1" vertex="1">
          <mxGeometry x="-595" y="-350" width="120" height="60" as="geometry" />
        </mxCell>
        <mxCell id="BbVS6C69vHKNdvWaCgEk-74" style="edgeStyle=orthogonalEdgeStyle;rounded=0;orthogonalLoop=1;jettySize=auto;html=1;entryX=0;entryY=0;entryDx=0;entryDy=0;" parent="1" source="BbVS6C69vHKNdvWaCgEk-71" target="BbVS6C69vHKNdvWaCgEk-66" edge="1">
          <mxGeometry relative="1" as="geometry">
            <Array as="points">
              <mxPoint x="480" y="220" />
              <mxPoint x="480" y="280" />
              <mxPoint x="530" y="280" />
            </Array>
          </mxGeometry>
        </mxCell>
        <mxCell id="BbVS6C69vHKNdvWaCgEk-71" value="Si no se dio el eventod e empresa informar al usaurio" style="ellipse;whiteSpace=wrap;html=1;direction=south;" parent="1" vertex="1">
          <mxGeometry x="383.75" y="173.75" width="80" height="92.5" as="geometry" />
        </mxCell>
        <mxCell id="BbVS6C69vHKNdvWaCgEk-73" style="edgeStyle=orthogonalEdgeStyle;rounded=0;orthogonalLoop=1;jettySize=auto;html=1;entryX=-0.003;entryY=0.453;entryDx=0;entryDy=0;entryPerimeter=0;" parent="1" source="BbVS6C69vHKNdvWaCgEk-71" target="MK39H2_sIX_CrVEcfrlE-1" edge="1">
          <mxGeometry relative="1" as="geometry">
            <Array as="points">
              <mxPoint x="450" y="280" />
              <mxPoint x="374" y="280" />
              <mxPoint x="374" y="210" />
              <mxPoint x="280" y="210" />
              <mxPoint x="280" y="237" />
            </Array>
          </mxGeometry>
        </mxCell>
        <mxCell id="hdszNxT6--n5JB6a5EMV-8" style="edgeStyle=orthogonalEdgeStyle;rounded=0;orthogonalLoop=1;jettySize=auto;html=1;entryX=1;entryY=0.5;entryDx=0;entryDy=0;" parent="1" source="hdszNxT6--n5JB6a5EMV-6" target="MK39H2_sIX_CrVEcfrlE-1" edge="1">
          <mxGeometry relative="1" as="geometry" />
        </mxCell>
        <mxCell id="hdszNxT6--n5JB6a5EMV-6" value="acualizzando &lt;br&gt;los estados&amp;nbsp;" style="rhombus;whiteSpace=wrap;html=1;" parent="1" vertex="1">
          <mxGeometry x="830" y="20" width="140" height="80" as="geometry" />
        </mxCell>
        <mxCell id="lTNFElT4lLCEtZjEqk3c-1" value="" style="edgeStyle=orthogonalEdgeStyle;rounded=0;orthogonalLoop=1;jettySize=auto;html=1;entryX=0.009;entryY=0.456;entryDx=0;entryDy=0;entryPerimeter=0;" parent="1" source="R8jU-wJ4KfyQZDHequ2U-4" target="16AvDH3U5VYdPH64AMo1-2" edge="1">
          <mxGeometry relative="1" as="geometry">
            <mxPoint x="-610" y="270" as="sourcePoint" />
            <mxPoint x="-357" y="268" as="targetPoint" />
          </mxGeometry>
        </mxCell>
        <mxCell id="UNJOEeFC895s2m6PiDk4-2" style="edgeStyle=orthogonalEdgeStyle;rounded=0;orthogonalLoop=1;jettySize=auto;html=1;" parent="1" source="16AvDH3U5VYdPH64AMo1-2" target="lTNFElT4lLCEtZjEqk3c-10" edge="1">
          <mxGeometry relative="1" as="geometry">
            <Array as="points">
              <mxPoint x="-825" y="430" />
              <mxPoint x="-80" y="430" />
            </Array>
          </mxGeometry>
        </mxCell>
        <mxCell id="lTNFElT4lLCEtZjEqk3c-10" value="" style="ellipse;whiteSpace=wrap;html=1;verticalAlign=top;" parent="1" vertex="1">
          <mxGeometry x="-190" y="521.25" width="220" height="272.5" as="geometry" />
        </mxCell>
        <mxCell id="lTNFElT4lLCEtZjEqk3c-11" value="Keycloak&amp;nbsp;" style="text;html=1;strokeColor=none;fillColor=none;align=center;verticalAlign=middle;whiteSpace=wrap;rounded=0;" parent="1" vertex="1">
          <mxGeometry x="-60" y="495" width="90" height="30" as="geometry" />
        </mxCell>
        <mxCell id="lTNFElT4lLCEtZjEqk3c-12" value="Login&lt;br&gt;(OAuth super token reac)" style="ellipse;whiteSpace=wrap;html=1;verticalAlign=top;" parent="1" vertex="1">
          <mxGeometry x="-125" y="575" width="90" height="95" as="geometry" />
        </mxCell>
        <mxCell id="lTNFElT4lLCEtZjEqk3c-25" style="edgeStyle=orthogonalEdgeStyle;rounded=0;orthogonalLoop=1;jettySize=auto;html=1;entryX=0.5;entryY=0;entryDx=0;entryDy=0;" parent="1" source="lTNFElT4lLCEtZjEqk3c-14" target="lTNFElT4lLCEtZjEqk3c-10" edge="1">
          <mxGeometry relative="1" as="geometry">
            <Array as="points">
              <mxPoint x="50" y="430" />
              <mxPoint x="-80" y="430" />
            </Array>
          </mxGeometry>
        </mxCell>
        <mxCell id="lTNFElT4lLCEtZjEqk3c-14" value="&lt;br&gt;GW" style="ellipse;whiteSpace=wrap;html=1;verticalAlign=top;" parent="1" vertex="1">
          <mxGeometry x="-10" y="91.88" width="210" height="256.25" as="geometry" />
        </mxCell>
        <mxCell id="r-5t7qR4uQRNDH46Msge-1" value="" style="edgeStyle=orthogonalEdgeStyle;rounded=0;orthogonalLoop=1;jettySize=auto;html=1;" parent="1" source="lTNFElT4lLCEtZjEqk3c-16" target="8Yh7CefsiE0qVgxP5HpL-4" edge="1">
          <mxGeometry relative="1" as="geometry" />
        </mxCell>
        <mxCell id="lTNFElT4lLCEtZjEqk3c-16" value="ingress controller" style="ellipse;whiteSpace=wrap;html=1;" parent="1" vertex="1">
          <mxGeometry x="38.75" y="180" width="112.5" height="80" as="geometry" />
        </mxCell>
        <mxCell id="lTNFElT4lLCEtZjEqk3c-17" value="MODELO" style="ellipse;whiteSpace=wrap;html=1;" parent="1" vertex="1">
          <mxGeometry x="257.49999999999994" y="124.5" width="112.5" height="80" as="geometry" />
        </mxCell>
        <mxCell id="lTNFElT4lLCEtZjEqk3c-18" value="MODELO" style="ellipse;whiteSpace=wrap;html=1;" parent="1" vertex="1">
          <mxGeometry x="833.75" y="329.5" width="112.5" height="80" as="geometry" />
        </mxCell>
        <mxCell id="lTNFElT4lLCEtZjEqk3c-19" value="MODELO" style="ellipse;whiteSpace=wrap;html=1;" parent="1" vertex="1">
          <mxGeometry x="228.74999999999994" y="520" width="112.5" height="80" as="geometry" />
        </mxCell>
        <mxCell id="lTNFElT4lLCEtZjEqk3c-20" value="Cluster IP" style="ellipse;whiteSpace=wrap;html=1;verticalAlign=top;" parent="1" vertex="1">
          <mxGeometry x="570" y="-505" width="140" height="90" as="geometry" />
        </mxCell>
        <mxCell id="lTNFElT4lLCEtZjEqk3c-21" value="Cluster IP" style="ellipse;whiteSpace=wrap;html=1;verticalAlign=top;" parent="1" vertex="1">
          <mxGeometry x="1358.75" y="-80" width="140" height="90" as="geometry" />
        </mxCell>
        <mxCell id="lTNFElT4lLCEtZjEqk3c-22" value="Cluster IP" style="ellipse;whiteSpace=wrap;html=1;verticalAlign=top;" parent="1" vertex="1">
          <mxGeometry x="1056.25" y="324.5" width="140" height="90" as="geometry" />
        </mxCell>
        <mxCell id="lTNFElT4lLCEtZjEqk3c-23" value="Cluster IP" style="ellipse;whiteSpace=wrap;html=1;verticalAlign=top;" parent="1" vertex="1">
          <mxGeometry x="517.5" y="490" width="140" height="90" as="geometry" />
        </mxCell>
        <mxCell id="lTNFElT4lLCEtZjEqk3c-24" value="Cluster IP" style="ellipse;whiteSpace=wrap;html=1;verticalAlign=top;" parent="1" vertex="1">
          <mxGeometry x="517.5" y="40" width="140" height="90" as="geometry" />
        </mxCell>
        <mxCell id="lTNFElT4lLCEtZjEqk3c-26" value="AKS" style="ellipse;whiteSpace=wrap;html=1;verticalAlign=top;" parent="1" vertex="1">
          <mxGeometry x="610" y="-855" width="390" height="305" as="geometry" />
        </mxCell>
        <mxCell id="EaUxiQX-7QRNmOrN0InL-1" value="SAGA &lt;br&gt;ORQUESTADA" style="ellipse;whiteSpace=wrap;html=1;verticalAlign=top;" parent="1" vertex="1">
          <mxGeometry x="870" y="-440" width="130" height="90" as="geometry" />
        </mxCell>
        <mxCell id="8Yh7CefsiE0qVgxP5HpL-1" value="" style="rounded=0;whiteSpace=wrap;html=1;fillColor=#FF8000;" parent="1" vertex="1">
          <mxGeometry x="-485" y="-40" width="20" height="30" as="geometry" />
        </mxCell>
        <mxCell id="8Yh7CefsiE0qVgxP5HpL-2" value="" style="rounded=0;whiteSpace=wrap;html=1;fillColor=#FF8000;" parent="1" vertex="1">
          <mxGeometry x="415" y="80" width="20" height="30" as="geometry" />
        </mxCell>
        <mxCell id="8Yh7CefsiE0qVgxP5HpL-3" value="" style="rounded=0;whiteSpace=wrap;html=1;fillColor=#FF8000;" parent="1" vertex="1">
          <mxGeometry x="460" y="-550" width="20" height="30" as="geometry" />
        </mxCell>
        <mxCell id="8Yh7CefsiE0qVgxP5HpL-4" value="" style="rounded=0;whiteSpace=wrap;html=1;fillColor=#00CC00;" parent="1" vertex="1">
          <mxGeometry x="100" y="65" width="20" height="30" as="geometry" />
        </mxCell>
        <mxCell id="8Yh7CefsiE0qVgxP5HpL-6" value="" style="rounded=0;whiteSpace=wrap;html=1;fillColor=#FF0000;" parent="1" vertex="1">
          <mxGeometry x="395" y="472.5" width="20" height="30" as="geometry" />
        </mxCell>
        <mxCell id="8Yh7CefsiE0qVgxP5HpL-8" value="" style="rounded=0;whiteSpace=wrap;html=1;fillColor=#FF8000;" parent="1" vertex="1">
          <mxGeometry x="-110" y="490" width="20" height="30" as="geometry" />
        </mxCell>
        <mxCell id="8Yh7CefsiE0qVgxP5HpL-9" value="" style="rounded=0;whiteSpace=wrap;html=1;fillColor=#FF0000;" parent="1" vertex="1">
          <mxGeometry x="1265" y="-190" width="20" height="30" as="geometry" />
        </mxCell>
        <mxCell id="8Yh7CefsiE0qVgxP5HpL-10" value="" style="rounded=0;whiteSpace=wrap;html=1;fillColor=#FF8000;" parent="1" vertex="1">
          <mxGeometry x="980" y="335" width="20" height="30" as="geometry" />
        </mxCell>
        <mxCell id="8Yh7CefsiE0qVgxP5HpL-11" value="" style="rounded=0;whiteSpace=wrap;html=1;fillColor=#FF0000;" parent="1" vertex="1">
          <mxGeometry x="-570" y="40" width="20" height="30" as="geometry" />
        </mxCell>
        <mxCell id="cJ24jG-xzlgh3uKU17eo-4" style="edgeStyle=orthogonalEdgeStyle;rounded=0;orthogonalLoop=1;jettySize=auto;html=1;" parent="1" source="cJ24jG-xzlgh3uKU17eo-2" target="lTNFElT4lLCEtZjEqk3c-14" edge="1">
          <mxGeometry relative="1" as="geometry">
            <Array as="points">
              <mxPoint x="50" y="-50" />
            </Array>
          </mxGeometry>
        </mxCell>
        <mxCell id="cJ24jG-xzlgh3uKU17eo-2" value="pantalla preview" style="ellipse;whiteSpace=wrap;html=1;verticalAlign=top;" parent="1" vertex="1">
          <mxGeometry x="-390" y="-140" width="190" height="180" as="geometry" />
        </mxCell>
        <mxCell id="bJdG1Db9n-pp6D5Mz_SG-8" style="edgeStyle=orthogonalEdgeStyle;rounded=0;orthogonalLoop=1;jettySize=auto;html=1;entryX=1;entryY=0.5;entryDx=0;entryDy=0;" parent="1" source="bJdG1Db9n-pp6D5Mz_SG-3" target="bJdG1Db9n-pp6D5Mz_SG-6" edge="1">
          <mxGeometry relative="1" as="geometry" />
        </mxCell>
        <mxCell id="bJdG1Db9n-pp6D5Mz_SG-3" value="" style="ellipse;whiteSpace=wrap;html=1;" parent="1" vertex="1">
          <mxGeometry x="1110" y="930" width="550" height="390" as="geometry" />
        </mxCell>
        <mxCell id="bJdG1Db9n-pp6D5Mz_SG-4" value="RECORDAR una entrevista en proceso?" style="ellipse;whiteSpace=wrap;html=1;" parent="1" vertex="1">
          <mxGeometry x="1480" y="920" width="200" height="180" as="geometry" />
        </mxCell>
        <mxCell id="sPVRe-dVoF7aBPKin2Hk-3" style="edgeStyle=orthogonalEdgeStyle;rounded=0;orthogonalLoop=1;jettySize=auto;html=1;" parent="1" source="bJdG1Db9n-pp6D5Mz_SG-6" target="bvOwgW89cS9pIb3cwINh-3" edge="1">
          <mxGeometry relative="1" as="geometry">
            <Array as="points">
              <mxPoint x="170" y="1050" />
              <mxPoint x="170" y="660" />
            </Array>
          </mxGeometry>
        </mxCell>
        <mxCell id="bJdG1Db9n-pp6D5Mz_SG-6" value="websocket" style="ellipse;whiteSpace=wrap;html=1;" parent="1" vertex="1">
          <mxGeometry x="292.42" y="960" width="230" height="180" as="geometry" />
        </mxCell>
        <mxCell id="sPVRe-dVoF7aBPKin2Hk-1" value="Sesion del modelo" style="ellipse;whiteSpace=wrap;html=1;" parent="1" vertex="1">
          <mxGeometry x="1430" y="900" width="120" height="80" as="geometry" />
        </mxCell>
        <mxCell id="sPVRe-dVoF7aBPKin2Hk-2" value="Cuantas sesiones puede tener activas?" style="ellipse;whiteSpace=wrap;html=1;" parent="1" vertex="1">
          <mxGeometry x="1430" y="840" width="120" height="80" as="geometry" />
        </mxCell>
        <mxCell id="sPVRe-dVoF7aBPKin2Hk-6" style="edgeStyle=orthogonalEdgeStyle;rounded=0;orthogonalLoop=1;jettySize=auto;html=1;" parent="1" source="sPVRe-dVoF7aBPKin2Hk-4" target="bJdG1Db9n-pp6D5Mz_SG-3" edge="1">
          <mxGeometry relative="1" as="geometry">
            <Array as="points">
              <mxPoint x="1160" y="1260" />
              <mxPoint x="1160" y="1260" />
            </Array>
          </mxGeometry>
        </mxCell>
        <mxCell id="sPVRe-dVoF7aBPKin2Hk-7" style="edgeStyle=orthogonalEdgeStyle;rounded=0;orthogonalLoop=1;jettySize=auto;html=1;" parent="1" source="sPVRe-dVoF7aBPKin2Hk-4" target="bvOwgW89cS9pIb3cwINh-3" edge="1">
          <mxGeometry relative="1" as="geometry">
            <Array as="points">
              <mxPoint x="680" y="670" />
            </Array>
          </mxGeometry>
        </mxCell>
        <mxCell id="sPVRe-dVoF7aBPKin2Hk-4" value="websocket" style="ellipse;whiteSpace=wrap;html=1;" parent="1" vertex="1">
          <mxGeometry x="480" y="1240" width="230" height="180" as="geometry" />
        </mxCell>
        <mxCell id="sPVRe-dVoF7aBPKin2Hk-5" style="edgeStyle=orthogonalEdgeStyle;rounded=0;orthogonalLoop=1;jettySize=auto;html=1;entryX=0.204;entryY=0.899;entryDx=0;entryDy=0;entryPerimeter=0;" parent="1" source="sPVRe-dVoF7aBPKin2Hk-4" target="16AvDH3U5VYdPH64AMo1-2" edge="1">
          <mxGeometry relative="1" as="geometry" />
        </mxCell>
        <mxCell id="Vyg_dLRH75_ZcHdOPbP7-3" value="Validador match (LLM LLAMA o Genmini)&lt;div&gt;&lt;br/&gt;&lt;/div&gt;" style="ellipse;whiteSpace=wrap;html=1;verticalAlign=top;" parent="1" vertex="1">
          <mxGeometry x="80" y="-505" width="150" height="120" as="geometry" />
        </mxCell>
        <mxCell id="tqCMskp7WEnPNIAUQ8Zd-3" value="RAG" style="ellipse;whiteSpace=wrap;html=1;" parent="1" vertex="1">
          <mxGeometry x="210" y="70" width="112.5" height="80" as="geometry" />
        </mxCell>
        <mxCell id="_V7GPg7Uke1mIcKpwmKH-2" style="edgeStyle=orthogonalEdgeStyle;rounded=0;orthogonalLoop=1;jettySize=auto;html=1;entryX=0.408;entryY=0.991;entryDx=0;entryDy=0;entryPerimeter=0;" edge="1" parent="1" source="16AvDH3U5VYdPH64AMo1-2" target="BbVS6C69vHKNdvWaCgEk-22">
          <mxGeometry relative="1" as="geometry" />
        </mxCell>
      </root>
    </mxGraphModel>
  </diagram>
  <diagram id="d9MxH_Gnj8zKCRn0OciD" name="Diag. Componentes Base">
    <mxGraphModel dx="1802" dy="850" grid="0" gridSize="10" guides="1" tooltips="1" connect="1" arrows="1" fold="1" page="1" pageScale="1" pageWidth="827" pageHeight="1169" math="0" shadow="0">
      <root>
        <mxCell id="0" />
        <mxCell id="1" parent="0" />
        <mxCell id="HK_3fRcAFnaeG8rh7wnH-1" value="FRONT" style="swimlane;whiteSpace=wrap;html=1;strokeWidth=7;startSize=47;strokeColor=#CC0000;fontSize=20;" parent="1" vertex="1">
          <mxGeometry x="149" y="656" width="270" height="760" as="geometry" />
        </mxCell>
        <mxCell id="HK_3fRcAFnaeG8rh7wnH-2" value="&lt;font style=&quot;font-size: 11px;&quot;&gt;&lt;b&gt;LOGIN&lt;/b&gt;&lt;/font&gt;" style="shape=module;align=left;spacingLeft=20;align=center;verticalAlign=top;whiteSpace=wrap;html=1;strokeWidth=4;strokeColor=#660000;" parent="HK_3fRcAFnaeG8rh7wnH-1" vertex="1">
          <mxGeometry x="10" y="60" width="240" height="67" as="geometry" />
        </mxCell>
        <mxCell id="HK_3fRcAFnaeG8rh7wnH-3" value="&lt;font style=&quot;font-size: 11px;&quot;&gt;&lt;b&gt;ESPACIO PREVIEW ENTREVISTADOR&lt;/b&gt;&lt;/font&gt;" style="shape=module;align=left;spacingLeft=20;align=center;verticalAlign=top;whiteSpace=wrap;html=1;strokeColor=#660000;strokeWidth=4;" parent="HK_3fRcAFnaeG8rh7wnH-1" vertex="1">
          <mxGeometry x="10" y="140" width="240" height="150" as="geometry" />
        </mxCell>
        <mxCell id="HK_3fRcAFnaeG8rh7wnH-5" value="&lt;font style=&quot;font-size: 11px;&quot;&gt;&lt;b&gt;ESPACIO ENTREVISTA&lt;/b&gt;&lt;/font&gt;" style="shape=module;align=left;spacingLeft=20;align=center;verticalAlign=top;whiteSpace=wrap;html=1;strokeWidth=4;strokeColor=#660000;" parent="HK_3fRcAFnaeG8rh7wnH-1" vertex="1">
          <mxGeometry x="10" y="303" width="240" height="440" as="geometry" />
        </mxCell>
        <mxCell id="HK_3fRcAFnaeG8rh7wnH-6" value="«Component»&lt;br&gt;&lt;b&gt;ESPACIO FEEDBACK&lt;/b&gt;" style="html=1;dropTarget=0;whiteSpace=wrap;strokeWidth=3;strokeColor=#CC0000;" parent="HK_3fRcAFnaeG8rh7wnH-1" vertex="1">
          <mxGeometry x="44" y="673" width="180" height="62" as="geometry" />
        </mxCell>
        <mxCell id="HK_3fRcAFnaeG8rh7wnH-7" value="" style="shape=module;jettyWidth=8;jettyHeight=4;strokeColor=#660000;" parent="HK_3fRcAFnaeG8rh7wnH-6" vertex="1">
          <mxGeometry x="1" width="20" height="20" relative="1" as="geometry">
            <mxPoint x="-27" y="7" as="offset" />
          </mxGeometry>
        </mxCell>
        <mxCell id="HK_3fRcAFnaeG8rh7wnH-8" value="" style="fontStyle=1;align=center;verticalAlign=top;childLayout=stackLayout;horizontal=1;horizontalStack=0;resizeParent=1;resizeParentMax=0;resizeLast=0;marginBottom=0;strokeWidth=3;strokeColor=#CC0000;" parent="HK_3fRcAFnaeG8rh7wnH-1" vertex="1">
          <mxGeometry x="44" y="503" width="180" height="161" as="geometry" />
        </mxCell>
        <mxCell id="HK_3fRcAFnaeG8rh7wnH-9" value="&lt;b&gt;&lt;i&gt;Entrevistador&lt;/i&gt;&lt;/b&gt;" style="html=1;align=left;spacingLeft=4;verticalAlign=top;strokeColor=none;fillColor=none;whiteSpace=wrap;" parent="HK_3fRcAFnaeG8rh7wnH-8" vertex="1">
          <mxGeometry width="180" height="40" as="geometry" />
        </mxCell>
        <mxCell id="HK_3fRcAFnaeG8rh7wnH-10" value="" style="shape=module;jettyWidth=10;jettyHeight=4;strokeColor=#660000;" parent="HK_3fRcAFnaeG8rh7wnH-9" vertex="1">
          <mxGeometry x="1" width="16" height="20" relative="1" as="geometry">
            <mxPoint x="-25" y="9" as="offset" />
          </mxGeometry>
        </mxCell>
        <mxCell id="HK_3fRcAFnaeG8rh7wnH-11" value="" style="line;strokeWidth=1;fillColor=none;align=left;verticalAlign=middle;spacingTop=-1;spacingLeft=3;spacingRight=3;rotatable=0;labelPosition=right;points=[];portConstraint=eastwest;" parent="HK_3fRcAFnaeG8rh7wnH-8" vertex="1">
          <mxGeometry y="40" width="180" height="8" as="geometry" />
        </mxCell>
        <mxCell id="HK_3fRcAFnaeG8rh7wnH-12" value="PREGUNTAS ENTREVISTA" style="html=1;align=center;spacingLeft=4;verticalAlign=top;strokeColor=none;fillColor=none;whiteSpace=wrap;fontStyle=1;fontSize=11;" parent="HK_3fRcAFnaeG8rh7wnH-8" vertex="1">
          <mxGeometry y="48" width="180" height="25" as="geometry" />
        </mxCell>
        <mxCell id="HK_3fRcAFnaeG8rh7wnH-13" value="Preguntas generadas por IA" style="html=1;align=left;spacingLeft=4;verticalAlign=top;strokeColor=none;fillColor=none;whiteSpace=wrap;" parent="HK_3fRcAFnaeG8rh7wnH-8" vertex="1">
          <mxGeometry y="73" width="180" height="25" as="geometry" />
        </mxCell>
        <mxCell id="HK_3fRcAFnaeG8rh7wnH-14" value="" style="line;strokeWidth=1;fillColor=none;align=left;verticalAlign=middle;spacingTop=-1;spacingLeft=3;spacingRight=3;rotatable=0;labelPosition=right;points=[];portConstraint=eastwest;" parent="HK_3fRcAFnaeG8rh7wnH-8" vertex="1">
          <mxGeometry y="98" width="180" height="8" as="geometry" />
        </mxCell>
        <mxCell id="HK_3fRcAFnaeG8rh7wnH-15" value="RESPUESTAS A ENTREVISTA" style="html=1;align=center;spacingLeft=4;verticalAlign=top;strokeColor=none;fillColor=none;whiteSpace=wrap;fontSize=11;fontStyle=1" parent="HK_3fRcAFnaeG8rh7wnH-8" vertex="1">
          <mxGeometry y="106" width="180" height="25" as="geometry" />
        </mxCell>
        <mxCell id="HK_3fRcAFnaeG8rh7wnH-16" value="Respuestas que da el usuario" style="html=1;align=left;spacingLeft=4;verticalAlign=top;strokeColor=none;fillColor=none;whiteSpace=wrap;" parent="HK_3fRcAFnaeG8rh7wnH-8" vertex="1">
          <mxGeometry y="131" width="180" height="30" as="geometry" />
        </mxCell>
        <mxCell id="HK_3fRcAFnaeG8rh7wnH-17" value="" style="fontStyle=1;align=center;verticalAlign=top;childLayout=stackLayout;horizontal=1;horizontalStack=0;resizeParent=1;resizeParentMax=0;resizeLast=0;marginBottom=0;strokeWidth=3;strokeColor=#CC0000;" parent="HK_3fRcAFnaeG8rh7wnH-1" vertex="1">
          <mxGeometry x="45" y="333" width="180" height="161" as="geometry" />
        </mxCell>
        <mxCell id="HK_3fRcAFnaeG8rh7wnH-18" value="&lt;b&gt;&lt;i&gt;Captura de datos&lt;/i&gt;&lt;/b&gt;" style="html=1;align=left;spacingLeft=4;verticalAlign=top;strokeColor=none;fillColor=none;whiteSpace=wrap;" parent="HK_3fRcAFnaeG8rh7wnH-17" vertex="1">
          <mxGeometry width="180" height="40" as="geometry" />
        </mxCell>
        <mxCell id="HK_3fRcAFnaeG8rh7wnH-19" value="" style="shape=module;jettyWidth=10;jettyHeight=4;strokeColor=#660000;" parent="HK_3fRcAFnaeG8rh7wnH-18" vertex="1">
          <mxGeometry x="1" width="16" height="20" relative="1" as="geometry">
            <mxPoint x="-25" y="9" as="offset" />
          </mxGeometry>
        </mxCell>
        <mxCell id="HK_3fRcAFnaeG8rh7wnH-20" value="" style="line;strokeWidth=1;fillColor=none;align=left;verticalAlign=middle;spacingTop=-1;spacingLeft=3;spacingRight=3;rotatable=0;labelPosition=right;points=[];portConstraint=eastwest;" parent="HK_3fRcAFnaeG8rh7wnH-17" vertex="1">
          <mxGeometry y="40" width="180" height="8" as="geometry" />
        </mxCell>
        <mxCell id="HK_3fRcAFnaeG8rh7wnH-21" value="HOJA DE VIDA (CV)" style="html=1;align=center;spacingLeft=4;verticalAlign=top;strokeColor=none;fillColor=none;whiteSpace=wrap;fontStyle=1;fontSize=11;" parent="HK_3fRcAFnaeG8rh7wnH-17" vertex="1">
          <mxGeometry y="48" width="180" height="25" as="geometry" />
        </mxCell>
        <mxCell id="HK_3fRcAFnaeG8rh7wnH-22" value="Cargar Pdf" style="html=1;align=left;spacingLeft=4;verticalAlign=top;strokeColor=none;fillColor=none;whiteSpace=wrap;" parent="HK_3fRcAFnaeG8rh7wnH-17" vertex="1">
          <mxGeometry y="73" width="180" height="25" as="geometry" />
        </mxCell>
        <mxCell id="HK_3fRcAFnaeG8rh7wnH-23" value="" style="line;strokeWidth=1;fillColor=none;align=left;verticalAlign=middle;spacingTop=-1;spacingLeft=3;spacingRight=3;rotatable=0;labelPosition=right;points=[];portConstraint=eastwest;" parent="HK_3fRcAFnaeG8rh7wnH-17" vertex="1">
          <mxGeometry y="98" width="180" height="8" as="geometry" />
        </mxCell>
        <mxCell id="HK_3fRcAFnaeG8rh7wnH-24" value="OFERTA LABORAL" style="html=1;align=center;spacingLeft=4;verticalAlign=top;strokeColor=none;fillColor=none;whiteSpace=wrap;fontSize=11;fontStyle=1" parent="HK_3fRcAFnaeG8rh7wnH-17" vertex="1">
          <mxGeometry y="106" width="180" height="25" as="geometry" />
        </mxCell>
        <mxCell id="HK_3fRcAFnaeG8rh7wnH-25" value="Diligenciar Formulario" style="html=1;align=left;spacingLeft=4;verticalAlign=top;strokeColor=none;fillColor=none;whiteSpace=wrap;" parent="HK_3fRcAFnaeG8rh7wnH-17" vertex="1">
          <mxGeometry y="131" width="180" height="30" as="geometry" />
        </mxCell>
        <mxCell id="zcPvcrEWqF4W7cp7udFz-1" value="" style="shape=image;verticalLabelPosition=bottom;labelBackgroundColor=default;verticalAlign=top;aspect=fixed;imageAspect=0;image=https://i.pinimg.com/originals/1d/78/36/1d7836b162169e9836b6761253132a81.png;" parent="HK_3fRcAFnaeG8rh7wnH-1" vertex="1">
          <mxGeometry x="14" y="14" width="73.85" height="20" as="geometry" />
        </mxCell>
        <mxCell id="HK_3fRcAFnaeG8rh7wnH-31" value="BACKEND" style="swimlane;whiteSpace=wrap;html=1;startSize=40;strokeWidth=7;strokeColor=#67AB9F;fontSize=25;" parent="1" vertex="1">
          <mxGeometry x="744" y="424" width="2030" height="1420" as="geometry" />
        </mxCell>
        <mxCell id="HK_3fRcAFnaeG8rh7wnH-32" value="&lt;span style=&quot;font-weight: normal; font-size: 14px;&quot;&gt;&lt;i style=&quot;font-size: 14px;&quot;&gt;&amp;lt;&amp;lt;Microservicio&amp;gt;&amp;gt;&lt;/i&gt;&lt;/span&gt;&lt;br style=&quot;font-size: 14px;&quot;&gt;Api GateWay" style="swimlane;whiteSpace=wrap;html=1;startSize=52;strokeWidth=7;strokeColor=#00CC00;fontSize=14;" parent="HK_3fRcAFnaeG8rh7wnH-31" vertex="1">
          <mxGeometry x="60" y="450" width="303" height="284" as="geometry" />
        </mxCell>
        <mxCell id="f6rxw3BwrxN4zMDX_2T--1" value="" style="shape=image;verticalLabelPosition=bottom;labelBackgroundColor=default;verticalAlign=top;aspect=fixed;imageAspect=0;image=https://bgasparotto.com/wp-content/uploads/2017/12/spring-boot-logo.png;" parent="HK_3fRcAFnaeG8rh7wnH-32" vertex="1">
          <mxGeometry x="9" y="8" width="72.37" height="38" as="geometry" />
        </mxCell>
        <mxCell id="A3Psz8cCiYH65ctrUiJ_-3" value="&lt;p style=&quot;margin:0px;margin-top:6px;text-align:center;&quot;&gt;&lt;b&gt;GateWay&lt;/b&gt;&lt;/p&gt;" style="align=left;overflow=fill;html=1;dropTarget=0;whiteSpace=wrap;strokeWidth=4;strokeColor=#006633;" parent="HK_3fRcAFnaeG8rh7wnH-32" vertex="1">
          <mxGeometry x="26" y="59" width="246" height="96" as="geometry" />
        </mxCell>
        <mxCell id="A3Psz8cCiYH65ctrUiJ_-4" value="" style="shape=component;jettyWidth=8;jettyHeight=4;" parent="A3Psz8cCiYH65ctrUiJ_-3" vertex="1">
          <mxGeometry x="1" width="20" height="20" relative="1" as="geometry">
            <mxPoint x="-24" y="4" as="offset" />
          </mxGeometry>
        </mxCell>
        <mxCell id="K11QHAuoJOkHe4VxRCnO-1" value="&lt;span style=&quot;font-weight: normal;&quot;&gt;&lt;i&gt;&amp;lt;&amp;lt;Microservicio&amp;gt;&amp;gt;&lt;/i&gt;&lt;/span&gt;&lt;br&gt;Analizador" style="swimlane;whiteSpace=wrap;html=1;startSize=42;strokeWidth=5;strokeColor=#004C99;shadow=0;rounded=0;glass=0;swimlaneLine=1;" parent="HK_3fRcAFnaeG8rh7wnH-31" vertex="1">
          <mxGeometry x="896" y="123" width="539" height="346" as="geometry" />
        </mxCell>
        <mxCell id="K11QHAuoJOkHe4VxRCnO-3" value="&lt;p style=&quot;margin:0px;margin-top:6px;text-align:center;&quot;&gt;&lt;b&gt;Validar CV y Oferta ingresados&lt;/b&gt;&lt;/p&gt;&lt;hr&gt;&lt;p style=&quot;margin:0px;margin-left:8px;&quot;&gt;&lt;br&gt;&lt;/p&gt;" style="align=left;overflow=fill;html=1;dropTarget=0;whiteSpace=wrap;strokeWidth=2;strokeColor=#0000CC;" parent="K11QHAuoJOkHe4VxRCnO-1" vertex="1">
          <mxGeometry x="30" y="62" width="490" height="111" as="geometry" />
        </mxCell>
        <mxCell id="K11QHAuoJOkHe4VxRCnO-4" value="" style="shape=component;jettyWidth=8;jettyHeight=4;" parent="K11QHAuoJOkHe4VxRCnO-3" vertex="1">
          <mxGeometry x="1" width="20" height="20" relative="1" as="geometry">
            <mxPoint x="-24" y="4" as="offset" />
          </mxGeometry>
        </mxCell>
        <mxCell id="lbrDN0p4U9MZS_-dXcsZ-1" value="" style="shape=image;verticalLabelPosition=bottom;labelBackgroundColor=default;verticalAlign=top;aspect=fixed;imageAspect=0;image=https://hackernoon.imgix.net/images/VyvcKdbWHbTaN3QzRCQQS7pXASq1-y42k312q.png;" parent="K11QHAuoJOkHe4VxRCnO-1" vertex="1">
          <mxGeometry x="14" y="10" width="77.33" height="22.94" as="geometry" />
        </mxCell>
        <mxCell id="lIlCC8p2G4M_FSI6WMYi-4" value="Validar Oferta y CV" style="shape=mxgraph.uml25.action;html=1;align=center;verticalAlign=middle;absoluteArcSize=1;arcSize=10;dashed=0;spacingLeft=10;flipH=1;whiteSpace=wrap;strokeWidth=1;fontSize=9;fontStyle=1;strokeColor=#0000CC;" parent="K11QHAuoJOkHe4VxRCnO-1" vertex="1">
          <mxGeometry x="49" y="100" width="108" height="43" as="geometry" />
        </mxCell>
        <mxCell id="lIlCC8p2G4M_FSI6WMYi-6" value="Event" style="text;html=1;strokeColor=none;fillColor=none;align=center;verticalAlign=middle;whiteSpace=wrap;rounded=0;fontSize=11;" parent="lIlCC8p2G4M_FSI6WMYi-4" vertex="1">
          <mxGeometry x="5.6511627906976765" y="1.0361445783132528" width="37.67441860465117" height="15.542168674698798" as="geometry" />
        </mxCell>
        <mxCell id="6x0NcWdY5QkLATu4YAcQ-3" value="&lt;p style=&quot;margin:0px;margin-top:6px;text-align:center;&quot;&gt;&lt;b&gt;Analizar CV y Oferta&lt;/b&gt;&lt;/p&gt;&lt;hr&gt;&lt;p style=&quot;margin:0px;margin-left:8px;&quot;&gt;&lt;br&gt;&lt;/p&gt;" style="align=left;overflow=fill;html=1;dropTarget=0;whiteSpace=wrap;strokeWidth=2;strokeColor=#0000CC;" parent="K11QHAuoJOkHe4VxRCnO-1" vertex="1">
          <mxGeometry x="28" y="186" width="490" height="94" as="geometry" />
        </mxCell>
        <mxCell id="6x0NcWdY5QkLATu4YAcQ-4" value="" style="shape=component;jettyWidth=8;jettyHeight=4;" parent="6x0NcWdY5QkLATu4YAcQ-3" vertex="1">
          <mxGeometry x="1" width="20" height="20" relative="1" as="geometry">
            <mxPoint x="-24" y="4" as="offset" />
          </mxGeometry>
        </mxCell>
        <mxCell id="6x0NcWdY5QkLATu4YAcQ-5" value="Analizar Oferta y CV" style="shape=mxgraph.uml25.action;html=1;align=center;verticalAlign=middle;absoluteArcSize=1;arcSize=10;dashed=0;spacingLeft=10;flipH=1;whiteSpace=wrap;strokeWidth=1;fontSize=9;fontStyle=1;strokeColor=#0000CC;" parent="K11QHAuoJOkHe4VxRCnO-1" vertex="1">
          <mxGeometry x="52" y="218" width="108" height="43" as="geometry" />
        </mxCell>
        <mxCell id="6x0NcWdY5QkLATu4YAcQ-6" value="Event" style="text;html=1;strokeColor=none;fillColor=none;align=center;verticalAlign=middle;whiteSpace=wrap;rounded=0;fontSize=11;" parent="6x0NcWdY5QkLATu4YAcQ-5" vertex="1">
          <mxGeometry x="5.6511627906976765" y="1.0361445783132528" width="37.67441860465117" height="15.542168674698798" as="geometry" />
        </mxCell>
        <mxCell id="qLxUPcp4aa_f4y7GbMEm-1" value="&lt;span style=&quot;font-weight: normal;&quot;&gt;&lt;i&gt;&amp;lt;&amp;lt;Microservicio&amp;gt;&amp;gt;&lt;/i&gt;&lt;/span&gt;&lt;br&gt;Recopilador de Información" style="swimlane;whiteSpace=wrap;html=1;startSize=42;strokeWidth=5;strokeColor=#004C99;" parent="HK_3fRcAFnaeG8rh7wnH-31" vertex="1">
          <mxGeometry x="1622" y="218" width="330" height="232" as="geometry" />
        </mxCell>
        <mxCell id="qLxUPcp4aa_f4y7GbMEm-2" value="&lt;p style=&quot;margin:0px;margin-top:6px;text-align:center;&quot;&gt;&lt;b&gt;Investigar Empresa (web scraping)&lt;/b&gt;&lt;/p&gt;&lt;hr&gt;&lt;p style=&quot;margin:0px;margin-left:8px;&quot;&gt;&lt;br&gt;&lt;/p&gt;" style="align=left;overflow=fill;html=1;dropTarget=0;whiteSpace=wrap;strokeWidth=2;strokeColor=#0000CC;" parent="qLxUPcp4aa_f4y7GbMEm-1" vertex="1">
          <mxGeometry x="30" y="71" width="280" height="90" as="geometry" />
        </mxCell>
        <mxCell id="qLxUPcp4aa_f4y7GbMEm-3" value="" style="shape=component;jettyWidth=8;jettyHeight=4;" parent="qLxUPcp4aa_f4y7GbMEm-2" vertex="1">
          <mxGeometry x="1" width="20" height="20" relative="1" as="geometry">
            <mxPoint x="-24" y="4" as="offset" />
          </mxGeometry>
        </mxCell>
        <mxCell id="qLxUPcp4aa_f4y7GbMEm-4" value="" style="shape=image;verticalLabelPosition=bottom;labelBackgroundColor=default;verticalAlign=top;aspect=fixed;imageAspect=0;image=https://hackernoon.imgix.net/images/VyvcKdbWHbTaN3QzRCQQS7pXASq1-y42k312q.png;" parent="qLxUPcp4aa_f4y7GbMEm-1" vertex="1">
          <mxGeometry x="14" y="10" width="77.33" height="22.94" as="geometry" />
        </mxCell>
        <mxCell id="Q77mf5UmInl3Oe8Q2mnH-1" value="Investigar Empresa" style="shape=mxgraph.uml25.action;html=1;align=center;verticalAlign=middle;absoluteArcSize=1;arcSize=10;dashed=0;spacingLeft=10;flipH=1;whiteSpace=wrap;strokeWidth=1;fontSize=9;fontStyle=1;strokeColor=#0000CC;" parent="qLxUPcp4aa_f4y7GbMEm-1" vertex="1">
          <mxGeometry x="40" y="108" width="108" height="43" as="geometry" />
        </mxCell>
        <mxCell id="Q77mf5UmInl3Oe8Q2mnH-2" value="Event" style="text;html=1;strokeColor=none;fillColor=none;align=center;verticalAlign=middle;whiteSpace=wrap;rounded=0;fontSize=11;" parent="Q77mf5UmInl3Oe8Q2mnH-1" vertex="1">
          <mxGeometry x="5.6511627906976765" y="1.0361445783132528" width="37.67441860465117" height="15.542168674698798" as="geometry" />
        </mxCell>
        <mxCell id="qLxUPcp4aa_f4y7GbMEm-5" value="&lt;span style=&quot;font-weight: normal; font-size: 18px;&quot;&gt;&lt;i style=&quot;font-size: 18px;&quot;&gt;&amp;lt;&amp;lt;Microservicio&amp;gt;&amp;gt;&lt;/i&gt;&lt;/span&gt;&lt;br style=&quot;font-size: 18px;&quot;&gt;Orquestador" style="swimlane;whiteSpace=wrap;html=1;startSize=56;strokeColor=#00CC00;strokeWidth=7;fontSize=18;" parent="HK_3fRcAFnaeG8rh7wnH-31" vertex="1">
          <mxGeometry x="486" y="447" width="322" height="620" as="geometry" />
        </mxCell>
        <mxCell id="qLxUPcp4aa_f4y7GbMEm-6" value="" style="shape=image;verticalLabelPosition=bottom;labelBackgroundColor=default;verticalAlign=top;aspect=fixed;imageAspect=0;image=https://bgasparotto.com/wp-content/uploads/2017/12/spring-boot-logo.png;" parent="qLxUPcp4aa_f4y7GbMEm-5" vertex="1">
          <mxGeometry x="14" y="10" width="77.61" height="40.75" as="geometry" />
        </mxCell>
        <mxCell id="RF3iujdTGceP80T30LP2-9" value="&lt;p style=&quot;margin:0px;margin-top:6px;text-align:center;&quot;&gt;&lt;b&gt;Estado Entrevista&lt;/b&gt;&lt;/p&gt;&lt;hr&gt;&lt;p style=&quot;margin:0px;margin-left:8px;&quot;&gt;+ Actualizar Estado&amp;nbsp;&lt;/p&gt;" style="align=left;overflow=fill;html=1;dropTarget=0;whiteSpace=wrap;strokeWidth=4;strokeColor=#006600;" parent="qLxUPcp4aa_f4y7GbMEm-5" vertex="1">
          <mxGeometry x="17" y="181" width="271" height="90" as="geometry" />
        </mxCell>
        <mxCell id="RF3iujdTGceP80T30LP2-10" value="" style="shape=component;jettyWidth=8;jettyHeight=4;" parent="RF3iujdTGceP80T30LP2-9" vertex="1">
          <mxGeometry x="1" width="20" height="20" relative="1" as="geometry">
            <mxPoint x="-24" y="4" as="offset" />
          </mxGeometry>
        </mxCell>
        <mxCell id="A92LvQKMvZgKC4Uq5DWh-1" value="&lt;p style=&quot;margin:0px;margin-top:6px;text-align:center;&quot;&gt;&lt;b&gt;Analizar CV y Oferta&lt;br&gt;&lt;/b&gt;&lt;/p&gt;&lt;hr&gt;&lt;p style=&quot;margin:0px;margin-left:8px;&quot;&gt;&amp;nbsp;&lt;/p&gt;" style="align=left;overflow=fill;html=1;dropTarget=0;whiteSpace=wrap;strokeWidth=4;strokeColor=#006600;" parent="qLxUPcp4aa_f4y7GbMEm-5" vertex="1">
          <mxGeometry x="17" y="70" width="272" height="90" as="geometry" />
        </mxCell>
        <mxCell id="A92LvQKMvZgKC4Uq5DWh-2" value="" style="shape=component;jettyWidth=8;jettyHeight=4;" parent="A92LvQKMvZgKC4Uq5DWh-1" vertex="1">
          <mxGeometry x="1" width="20" height="20" relative="1" as="geometry">
            <mxPoint x="-24" y="4" as="offset" />
          </mxGeometry>
        </mxCell>
        <mxCell id="A92LvQKMvZgKC4Uq5DWh-3" value="&lt;p style=&quot;margin:0px;margin-top:6px;text-align:center;&quot;&gt;&lt;b&gt;Generar Entrevista&lt;/b&gt;&lt;/p&gt;&lt;hr&gt;&lt;p style=&quot;margin:0px;margin-left:8px;&quot;&gt;&lt;br&gt;&lt;/p&gt;" style="align=left;overflow=fill;html=1;dropTarget=0;whiteSpace=wrap;strokeWidth=4;strokeColor=#006600;" parent="qLxUPcp4aa_f4y7GbMEm-5" vertex="1">
          <mxGeometry x="17" y="296" width="271" height="90" as="geometry" />
        </mxCell>
        <mxCell id="A92LvQKMvZgKC4Uq5DWh-4" value="" style="shape=component;jettyWidth=8;jettyHeight=4;" parent="A92LvQKMvZgKC4Uq5DWh-3" vertex="1">
          <mxGeometry x="1" width="20" height="20" relative="1" as="geometry">
            <mxPoint x="-24" y="4" as="offset" />
          </mxGeometry>
        </mxCell>
        <mxCell id="vx9IksQv1d9Bjdi8k2PK-1" value="&lt;p style=&quot;margin:0px;margin-top:6px;text-align:center;&quot;&gt;&lt;b&gt;Responder Entrevista&lt;/b&gt;&lt;/p&gt;&lt;hr&gt;&lt;p style=&quot;margin:0px;margin-left:8px;&quot;&gt;&lt;br&gt;&lt;/p&gt;" style="align=left;overflow=fill;html=1;dropTarget=0;whiteSpace=wrap;strokeWidth=4;strokeColor=#006600;" parent="qLxUPcp4aa_f4y7GbMEm-5" vertex="1">
          <mxGeometry x="17" y="404" width="271" height="90" as="geometry" />
        </mxCell>
        <mxCell id="vx9IksQv1d9Bjdi8k2PK-2" value="" style="shape=component;jettyWidth=8;jettyHeight=4;" parent="vx9IksQv1d9Bjdi8k2PK-1" vertex="1">
          <mxGeometry x="1" width="20" height="20" relative="1" as="geometry">
            <mxPoint x="-24" y="4" as="offset" />
          </mxGeometry>
        </mxCell>
        <mxCell id="vx9IksQv1d9Bjdi8k2PK-3" value="&lt;p style=&quot;margin:0px;margin-top:6px;text-align:center;&quot;&gt;&lt;b&gt;Generar FeedBack&lt;/b&gt;&lt;/p&gt;&lt;hr&gt;&lt;p style=&quot;margin:0px;margin-left:8px;&quot;&gt;&lt;br&gt;&lt;/p&gt;" style="align=left;overflow=fill;html=1;dropTarget=0;whiteSpace=wrap;strokeWidth=4;strokeColor=#006600;" parent="qLxUPcp4aa_f4y7GbMEm-5" vertex="1">
          <mxGeometry x="16" y="509" width="275" height="90" as="geometry" />
        </mxCell>
        <mxCell id="vx9IksQv1d9Bjdi8k2PK-4" value="" style="shape=component;jettyWidth=8;jettyHeight=4;" parent="vx9IksQv1d9Bjdi8k2PK-3" vertex="1">
          <mxGeometry x="1" width="20" height="20" relative="1" as="geometry">
            <mxPoint x="-24" y="4" as="offset" />
          </mxGeometry>
        </mxCell>
        <mxCell id="HK_3fRcAFnaeG8rh7wnH-30" value="" style="ellipse;whiteSpace=wrap;html=1;align=center;aspect=fixed;fillColor=none;strokeColor=none;resizable=0;perimeter=centerPerimeter;rotatable=0;allowArrows=0;points=[];outlineConnect=1;" parent="HK_3fRcAFnaeG8rh7wnH-31" vertex="1">
          <mxGeometry x="255" y="301" width="10" height="10" as="geometry" />
        </mxCell>
        <mxCell id="bdv_BzujygIh6tq-azoB-3" value="" style="ellipse;whiteSpace=wrap;html=1;align=center;aspect=fixed;fillColor=none;strokeColor=none;resizable=0;perimeter=centerPerimeter;rotatable=0;allowArrows=0;points=[];outlineConnect=1;" parent="HK_3fRcAFnaeG8rh7wnH-31" vertex="1">
          <mxGeometry x="207" y="340" width="10" height="10" as="geometry" />
        </mxCell>
        <mxCell id="A3Psz8cCiYH65ctrUiJ_-1" value="" style="rounded=0;orthogonalLoop=1;jettySize=auto;html=1;endArrow=halfCircle;endFill=0;endSize=6;strokeWidth=3;sketch=0;exitX=1;exitY=0.5;exitDx=0;exitDy=0;flowAnimation=1;strokeColor=#006600;" parent="HK_3fRcAFnaeG8rh7wnH-31" source="A3Psz8cCiYH65ctrUiJ_-3" edge="1">
          <mxGeometry relative="1" as="geometry">
            <mxPoint x="310" y="359" as="sourcePoint" />
            <mxPoint x="391" y="557" as="targetPoint" />
          </mxGeometry>
        </mxCell>
        <mxCell id="A3Psz8cCiYH65ctrUiJ_-2" value="" style="rounded=0;orthogonalLoop=1;jettySize=auto;html=1;endArrow=oval;endFill=0;sketch=0;sourcePerimeterSpacing=0;targetPerimeterSpacing=0;endSize=10;strokeWidth=3;flowAnimation=0;noJump=0;ignoreEdge=0;orthogonal=0;comic=0;startFill=1;snapToPoint=0;fixDash=0;bendable=1;strokeColor=#006600;enumerate=0;enumerateValue=4;exitX=0;exitY=0.5;exitDx=0;exitDy=0;" parent="HK_3fRcAFnaeG8rh7wnH-31" source="qLxUPcp4aa_f4y7GbMEm-5" edge="1">
          <mxGeometry relative="1" as="geometry">
            <mxPoint x="501" y="558" as="sourcePoint" />
            <mxPoint x="390" y="557" as="targetPoint" />
            <Array as="points">
              <mxPoint x="387" y="757" />
            </Array>
          </mxGeometry>
        </mxCell>
        <mxCell id="A3Psz8cCiYH65ctrUiJ_-8" value="" style="rounded=0;orthogonalLoop=1;jettySize=auto;html=1;endArrow=halfCircle;endFill=0;endSize=6;strokeWidth=3;sketch=0;exitX=1;exitY=0.5;exitDx=0;exitDy=0;flowAnimation=0;strokeColor=#0000CC;" parent="HK_3fRcAFnaeG8rh7wnH-31" source="6x0NcWdY5QkLATu4YAcQ-3" edge="1">
          <mxGeometry relative="1" as="geometry">
            <mxPoint x="1186" y="181" as="sourcePoint" />
            <mxPoint x="1466" y="257" as="targetPoint" />
            <Array as="points">
              <mxPoint x="1466" y="356" />
            </Array>
          </mxGeometry>
        </mxCell>
        <mxCell id="URQY5UeJ7NXYKMhHnyY7-2" value="" style="rounded=0;orthogonalLoop=1;jettySize=auto;html=1;endArrow=oval;endFill=0;sketch=0;sourcePerimeterSpacing=0;targetPerimeterSpacing=0;endSize=10;strokeWidth=3;flowAnimation=0;noJump=0;ignoreEdge=0;orthogonal=0;comic=0;startFill=1;snapToPoint=0;fixDash=0;bendable=1;strokeColor=#0000CC;enumerate=1;enumerateValue=3;exitX=1;exitY=0;exitDx=0;exitDy=0;" parent="HK_3fRcAFnaeG8rh7wnH-31" edge="1">
          <mxGeometry relative="1" as="geometry">
            <mxPoint x="945" y="241.65000000000055" as="sourcePoint" />
            <mxPoint x="827" y="546" as="targetPoint" />
            <Array as="points">
              <mxPoint x="827" y="242" />
            </Array>
          </mxGeometry>
        </mxCell>
        <mxCell id="GaRELZcXmOe91ldKRzS6-2" style="edgeStyle=orthogonalEdgeStyle;rounded=0;orthogonalLoop=1;jettySize=auto;html=1;entryX=1;entryY=0.5;entryDx=0;entryDy=0;exitX=1;exitY=0.675;exitDx=0;exitDy=0;strokeColor=#009999;dashed=1;strokeWidth=3;exitPerimeter=0;flowAnimation=1;" parent="HK_3fRcAFnaeG8rh7wnH-31" source="lIlCC8p2G4M_FSI6WMYi-4" target="RF3iujdTGceP80T30LP2-9" edge="1">
          <mxGeometry relative="1" as="geometry">
            <mxPoint x="928" y="253.82500000000027" as="sourcePoint" />
            <Array as="points">
              <mxPoint x="870" y="253" />
              <mxPoint x="870" y="673" />
            </Array>
          </mxGeometry>
        </mxCell>
        <mxCell id="6x0NcWdY5QkLATu4YAcQ-7" style="edgeStyle=orthogonalEdgeStyle;rounded=0;orthogonalLoop=1;jettySize=auto;html=1;exitX=0.993;exitY=0.695;exitDx=0;exitDy=0;strokeColor=#009999;strokeWidth=3;exitPerimeter=0;entryX=1;entryY=0.5;entryDx=0;entryDy=0;dashed=1;flowAnimation=1;" parent="HK_3fRcAFnaeG8rh7wnH-31" edge="1">
          <mxGeometry relative="1" as="geometry">
            <mxPoint x="948.7560000000001" y="367.8850000000002" as="sourcePoint" />
            <mxPoint x="774" y="673" as="targetPoint" />
            <Array as="points">
              <mxPoint x="879" y="368" />
              <mxPoint x="879" y="673" />
            </Array>
          </mxGeometry>
        </mxCell>
        <mxCell id="Q77mf5UmInl3Oe8Q2mnH-3" style="edgeStyle=orthogonalEdgeStyle;rounded=0;orthogonalLoop=1;jettySize=auto;html=1;exitX=0.998;exitY=0.657;exitDx=0;exitDy=0;strokeColor=#009999;dashed=1;strokeWidth=3;exitPerimeter=0;flowAnimation=1;comic=0;" parent="HK_3fRcAFnaeG8rh7wnH-31" edge="1">
          <mxGeometry relative="1" as="geometry">
            <mxPoint x="1662.216" y="355.251" as="sourcePoint" />
            <mxPoint x="776" y="672" as="targetPoint" />
            <Array as="points">
              <mxPoint x="1580" y="355" />
              <mxPoint x="1580" y="673" />
              <mxPoint x="780" y="673" />
              <mxPoint x="780" y="672" />
            </Array>
          </mxGeometry>
        </mxCell>
        <mxCell id="Q77mf5UmInl3Oe8Q2mnH-4" value="" style="rounded=0;orthogonalLoop=1;jettySize=auto;html=1;endArrow=halfCircle;endFill=0;endSize=6;strokeWidth=3;sketch=0;exitX=1;exitY=0.75;exitDx=0;exitDy=0;flowAnimation=0;strokeColor=#0000CC;" parent="HK_3fRcAFnaeG8rh7wnH-31" source="6x0NcWdY5QkLATu4YAcQ-3" edge="1">
          <mxGeometry relative="1" as="geometry">
            <mxPoint x="1452" y="383.5" as="sourcePoint" />
            <mxPoint x="1502" y="337" as="targetPoint" />
            <Array as="points">
              <mxPoint x="1502" y="380" />
            </Array>
          </mxGeometry>
        </mxCell>
        <mxCell id="Q77mf5UmInl3Oe8Q2mnH-5" value="" style="rounded=0;orthogonalLoop=1;jettySize=auto;html=1;endArrow=oval;endFill=0;sketch=0;sourcePerimeterSpacing=0;targetPerimeterSpacing=0;endSize=10;strokeWidth=3;flowAnimation=1;noJump=0;ignoreEdge=0;orthogonal=0;comic=0;startFill=1;snapToPoint=0;fixDash=0;bendable=1;strokeColor=#0000CC;enumerate=1;enumerateValue=3;exitX=0;exitY=0.5;exitDx=0;exitDy=0;" parent="HK_3fRcAFnaeG8rh7wnH-31" source="qLxUPcp4aa_f4y7GbMEm-2" edge="1">
          <mxGeometry relative="1" as="geometry">
            <mxPoint x="1650" y="330" as="sourcePoint" />
            <mxPoint x="1502" y="335" as="targetPoint" />
            <Array as="points" />
          </mxGeometry>
        </mxCell>
        <mxCell id="Q77mf5UmInl3Oe8Q2mnH-6" value="&lt;span style=&quot;font-weight: normal;&quot;&gt;&lt;i&gt;&amp;lt;&amp;lt;Microservicio&amp;gt;&amp;gt;&lt;/i&gt;&lt;/span&gt;&lt;br&gt;Preparador de Entrevista" style="swimlane;whiteSpace=wrap;html=1;startSize=42;strokeWidth=5;strokeColor=#004C99;" parent="HK_3fRcAFnaeG8rh7wnH-31" vertex="1">
          <mxGeometry x="1622" y="650" width="330" height="470" as="geometry" />
        </mxCell>
        <mxCell id="Q77mf5UmInl3Oe8Q2mnH-7" value="&lt;p style=&quot;margin:0px;margin-top:6px;text-align:center;&quot;&gt;&lt;b&gt;Generar Preguntas&lt;/b&gt;&lt;/p&gt;&lt;hr&gt;&lt;p style=&quot;margin:0px;margin-left:8px;&quot;&gt;&lt;br&gt;&lt;/p&gt;" style="align=left;overflow=fill;html=1;dropTarget=0;whiteSpace=wrap;strokeWidth=2;strokeColor=#0000CC;" parent="Q77mf5UmInl3Oe8Q2mnH-6" vertex="1">
          <mxGeometry x="30" y="71" width="280" height="90" as="geometry" />
        </mxCell>
        <mxCell id="Q77mf5UmInl3Oe8Q2mnH-8" value="" style="shape=component;jettyWidth=8;jettyHeight=4;" parent="Q77mf5UmInl3Oe8Q2mnH-7" vertex="1">
          <mxGeometry x="1" width="20" height="20" relative="1" as="geometry">
            <mxPoint x="-24" y="4" as="offset" />
          </mxGeometry>
        </mxCell>
        <mxCell id="Q77mf5UmInl3Oe8Q2mnH-9" value="" style="shape=image;verticalLabelPosition=bottom;labelBackgroundColor=default;verticalAlign=top;aspect=fixed;imageAspect=0;image=https://hackernoon.imgix.net/images/VyvcKdbWHbTaN3QzRCQQS7pXASq1-y42k312q.png;" parent="Q77mf5UmInl3Oe8Q2mnH-6" vertex="1">
          <mxGeometry x="14" y="10" width="77.33" height="22.94" as="geometry" />
        </mxCell>
        <mxCell id="Q77mf5UmInl3Oe8Q2mnH-10" value="Generar Preguntas" style="shape=mxgraph.uml25.action;html=1;align=center;verticalAlign=middle;absoluteArcSize=1;arcSize=10;dashed=0;spacingLeft=10;flipH=1;whiteSpace=wrap;strokeWidth=1;fontSize=9;fontStyle=1;strokeColor=#0000CC;" parent="Q77mf5UmInl3Oe8Q2mnH-6" vertex="1">
          <mxGeometry x="40" y="108" width="108" height="43" as="geometry" />
        </mxCell>
        <mxCell id="Q77mf5UmInl3Oe8Q2mnH-11" value="Event" style="text;html=1;strokeColor=none;fillColor=none;align=center;verticalAlign=middle;whiteSpace=wrap;rounded=0;fontSize=11;" parent="Q77mf5UmInl3Oe8Q2mnH-10" vertex="1">
          <mxGeometry x="5.6511627906976765" y="1.0361445783132528" width="37.67441860465117" height="15.542168674698798" as="geometry" />
        </mxCell>
        <mxCell id="-dEZZabvTaUFYB1GWqo2-1" value="&lt;p style=&quot;margin:0px;margin-top:6px;text-align:center;&quot;&gt;&lt;b&gt;Analizar Respuestas&lt;/b&gt;&lt;/p&gt;&lt;hr&gt;&lt;p style=&quot;margin:0px;margin-left:8px;&quot;&gt;&lt;br&gt;&lt;/p&gt;" style="align=left;overflow=fill;html=1;dropTarget=0;whiteSpace=wrap;strokeWidth=2;strokeColor=#0000CC;" parent="Q77mf5UmInl3Oe8Q2mnH-6" vertex="1">
          <mxGeometry x="30" y="190" width="280" height="90" as="geometry" />
        </mxCell>
        <mxCell id="-dEZZabvTaUFYB1GWqo2-2" value="" style="shape=component;jettyWidth=8;jettyHeight=4;" parent="-dEZZabvTaUFYB1GWqo2-1" vertex="1">
          <mxGeometry x="1" width="20" height="20" relative="1" as="geometry">
            <mxPoint x="-24" y="4" as="offset" />
          </mxGeometry>
        </mxCell>
        <mxCell id="-dEZZabvTaUFYB1GWqo2-3" value="Analizar Respuestas" style="shape=mxgraph.uml25.action;html=1;align=center;verticalAlign=middle;absoluteArcSize=1;arcSize=10;dashed=0;spacingLeft=10;flipH=1;whiteSpace=wrap;strokeWidth=1;fontSize=9;fontStyle=1;strokeColor=#0000CC;" parent="Q77mf5UmInl3Oe8Q2mnH-6" vertex="1">
          <mxGeometry x="40" y="230" width="108" height="43" as="geometry" />
        </mxCell>
        <mxCell id="-dEZZabvTaUFYB1GWqo2-4" value="Event" style="text;html=1;strokeColor=none;fillColor=none;align=center;verticalAlign=middle;whiteSpace=wrap;rounded=0;fontSize=11;" parent="-dEZZabvTaUFYB1GWqo2-3" vertex="1">
          <mxGeometry x="5.6511627906976765" y="1.0361445783132528" width="37.67441860465117" height="15.542168674698798" as="geometry" />
        </mxCell>
        <mxCell id="1zK38C7U8xg2GFa9RjvA-1" value="&lt;p style=&quot;margin:0px;margin-top:6px;text-align:center;&quot;&gt;&lt;b&gt;Generar Feddback&lt;/b&gt;&lt;/p&gt;&lt;hr&gt;&lt;p style=&quot;margin:0px;margin-left:8px;&quot;&gt;&lt;br&gt;&lt;/p&gt;" style="align=left;overflow=fill;html=1;dropTarget=0;whiteSpace=wrap;strokeWidth=2;strokeColor=#0000CC;" parent="Q77mf5UmInl3Oe8Q2mnH-6" vertex="1">
          <mxGeometry x="25" y="310" width="280" height="90" as="geometry" />
        </mxCell>
        <mxCell id="1zK38C7U8xg2GFa9RjvA-2" value="" style="shape=component;jettyWidth=8;jettyHeight=4;" parent="1zK38C7U8xg2GFa9RjvA-1" vertex="1">
          <mxGeometry x="1" width="20" height="20" relative="1" as="geometry">
            <mxPoint x="-24" y="4" as="offset" />
          </mxGeometry>
        </mxCell>
        <mxCell id="1zK38C7U8xg2GFa9RjvA-3" value="Generar Feedback" style="shape=mxgraph.uml25.action;html=1;align=center;verticalAlign=middle;absoluteArcSize=1;arcSize=10;dashed=0;spacingLeft=10;flipH=1;whiteSpace=wrap;strokeWidth=1;fontSize=9;fontStyle=1;strokeColor=#0000CC;" parent="Q77mf5UmInl3Oe8Q2mnH-6" vertex="1">
          <mxGeometry x="40" y="350" width="108" height="43" as="geometry" />
        </mxCell>
        <mxCell id="1zK38C7U8xg2GFa9RjvA-4" value="Event" style="text;html=1;strokeColor=none;fillColor=none;align=center;verticalAlign=middle;whiteSpace=wrap;rounded=0;fontSize=11;" parent="1zK38C7U8xg2GFa9RjvA-3" vertex="1">
          <mxGeometry x="5.6511627906976765" y="1.0361445783132528" width="37.67441860465117" height="15.542168674698798" as="geometry" />
        </mxCell>
        <mxCell id="30utRNiN4G90ubca1dSC-1" style="edgeStyle=orthogonalEdgeStyle;rounded=0;orthogonalLoop=1;jettySize=auto;html=1;exitX=1;exitY=0.349;exitDx=0;exitDy=0;strokeColor=#009999;dashed=1;strokeWidth=3;exitPerimeter=0;entryX=1;entryY=0.5;entryDx=0;entryDy=0;flowAnimation=1;" parent="HK_3fRcAFnaeG8rh7wnH-31" source="Q77mf5UmInl3Oe8Q2mnH-10" target="RF3iujdTGceP80T30LP2-9" edge="1">
          <mxGeometry relative="1" as="geometry">
            <mxPoint x="1646.216" y="441.251" as="sourcePoint" />
            <mxPoint x="705" y="650" as="targetPoint" />
            <Array as="points">
              <mxPoint x="1576" y="773" />
              <mxPoint x="1576" y="673" />
            </Array>
          </mxGeometry>
        </mxCell>
        <mxCell id="8d3MKeXFBncZ6fvmg_Oq-1" value="&lt;span style=&quot;font-weight: normal;&quot;&gt;&lt;i&gt;&amp;lt;&amp;lt;Microservicio&amp;gt;&amp;gt;&lt;/i&gt;&lt;/span&gt;&lt;br&gt;Generador de Feedback" style="swimlane;whiteSpace=wrap;html=1;startSize=42;strokeColor=#00CC00;strokeWidth=7;" parent="HK_3fRcAFnaeG8rh7wnH-31" vertex="1">
          <mxGeometry x="487" y="1134" width="322" height="232" as="geometry" />
        </mxCell>
        <mxCell id="8d3MKeXFBncZ6fvmg_Oq-2" value="" style="shape=image;verticalLabelPosition=bottom;labelBackgroundColor=default;verticalAlign=top;aspect=fixed;imageAspect=0;image=https://bgasparotto.com/wp-content/uploads/2017/12/spring-boot-logo.png;" parent="8d3MKeXFBncZ6fvmg_Oq-1" vertex="1">
          <mxGeometry x="20" y="-0.75" width="77.61" height="40.75" as="geometry" />
        </mxCell>
        <mxCell id="8d3MKeXFBncZ6fvmg_Oq-3" value="&lt;p style=&quot;margin:0px;margin-top:6px;text-align:center;&quot;&gt;&lt;b&gt;Generar Feedback&lt;/b&gt;&lt;/p&gt;&lt;hr&gt;&lt;p style=&quot;margin:0px;margin-left:8px;&quot;&gt;&lt;br&gt;&lt;/p&gt;" style="align=left;overflow=fill;html=1;dropTarget=0;whiteSpace=wrap;strokeWidth=2;strokeColor=#006600;" parent="8d3MKeXFBncZ6fvmg_Oq-1" vertex="1">
          <mxGeometry x="30" y="71" width="180" height="90" as="geometry" />
        </mxCell>
        <mxCell id="8d3MKeXFBncZ6fvmg_Oq-4" value="" style="shape=component;jettyWidth=8;jettyHeight=4;" parent="8d3MKeXFBncZ6fvmg_Oq-3" vertex="1">
          <mxGeometry x="1" width="20" height="20" relative="1" as="geometry">
            <mxPoint x="-24" y="4" as="offset" />
          </mxGeometry>
        </mxCell>
        <mxCell id="Z0JfrTQ4XgbNrRVXbaco-1" style="edgeStyle=orthogonalEdgeStyle;rounded=0;orthogonalLoop=1;jettySize=auto;html=1;exitX=1.011;exitY=0.372;exitDx=0;exitDy=0;strokeColor=#009999;dashed=1;strokeWidth=3;exitPerimeter=0;entryX=1;entryY=0.5;entryDx=0;entryDy=0;flowAnimation=1;" parent="HK_3fRcAFnaeG8rh7wnH-31" edge="1">
          <mxGeometry relative="1" as="geometry">
            <mxPoint x="1657.812" y="895.9960000000001" as="sourcePoint" />
            <mxPoint x="771" y="673" as="targetPoint" />
            <Array as="points">
              <mxPoint x="1567" y="895" />
              <mxPoint x="1567" y="673" />
            </Array>
          </mxGeometry>
        </mxCell>
        <mxCell id="Z0JfrTQ4XgbNrRVXbaco-2" style="edgeStyle=orthogonalEdgeStyle;rounded=0;orthogonalLoop=1;jettySize=auto;html=1;exitX=1.021;exitY=0.31;exitDx=0;exitDy=0;strokeColor=#009999;dashed=1;strokeWidth=3;exitPerimeter=0;entryX=1;entryY=0.5;entryDx=0;entryDy=0;flowAnimation=1;" parent="HK_3fRcAFnaeG8rh7wnH-31" edge="1">
          <mxGeometry relative="1" as="geometry">
            <mxPoint x="1658.732" y="1013.3299999999999" as="sourcePoint" />
            <mxPoint x="773" y="673" as="targetPoint" />
            <Array as="points">
              <mxPoint x="1561" y="1013" />
              <mxPoint x="1561" y="673" />
            </Array>
          </mxGeometry>
        </mxCell>
        <mxCell id="Z0JfrTQ4XgbNrRVXbaco-3" value="Actualizar Estado" style="edgeLabel;html=1;align=center;verticalAlign=middle;resizable=0;points=[];labelBackgroundColor=none;" parent="Z0JfrTQ4XgbNrRVXbaco-2" vertex="1" connectable="0">
          <mxGeometry x="0.2555" y="-6" relative="1" as="geometry">
            <mxPoint x="4" y="15" as="offset" />
          </mxGeometry>
        </mxCell>
        <mxCell id="Z0JfrTQ4XgbNrRVXbaco-4" value="" style="rounded=0;orthogonalLoop=1;jettySize=auto;html=1;endArrow=halfCircle;endFill=0;endSize=6;strokeWidth=3;sketch=0;flowAnimation=0;strokeColor=#006600;exitX=1;exitY=0.5;exitDx=0;exitDy=0;" parent="HK_3fRcAFnaeG8rh7wnH-31" source="vx9IksQv1d9Bjdi8k2PK-3" edge="1">
          <mxGeometry relative="1" as="geometry">
            <mxPoint x="363" y="607" as="sourcePoint" />
            <mxPoint x="849" y="1001" as="targetPoint" />
          </mxGeometry>
        </mxCell>
        <mxCell id="Z0JfrTQ4XgbNrRVXbaco-5" value="" style="rounded=0;orthogonalLoop=1;jettySize=auto;html=1;endArrow=oval;endFill=0;sketch=0;sourcePerimeterSpacing=0;targetPerimeterSpacing=0;endSize=10;strokeWidth=3;flowAnimation=1;noJump=0;ignoreEdge=0;orthogonal=0;comic=0;startFill=1;snapToPoint=0;fixDash=0;bendable=1;strokeColor=#006600;enumerate=1;enumerateValue=6;exitX=1;exitY=0.5;exitDx=0;exitDy=0;" parent="HK_3fRcAFnaeG8rh7wnH-31" source="8d3MKeXFBncZ6fvmg_Oq-3" edge="1">
          <mxGeometry relative="1" as="geometry">
            <mxPoint x="516" y="584" as="sourcePoint" />
            <mxPoint x="850" y="1000" as="targetPoint" />
            <Array as="points">
              <mxPoint x="850" y="1250" />
            </Array>
          </mxGeometry>
        </mxCell>
        <mxCell id="RF3iujdTGceP80T30LP2-1" value="" style="rounded=0;orthogonalLoop=1;jettySize=auto;html=1;endArrow=halfCircle;endFill=0;endSize=6;strokeWidth=3;sketch=0;flowAnimation=0;strokeColor=#006600;exitX=1;exitY=0.75;exitDx=0;exitDy=0;" parent="HK_3fRcAFnaeG8rh7wnH-31" source="8d3MKeXFBncZ6fvmg_Oq-3" edge="1">
          <mxGeometry relative="1" as="geometry">
            <mxPoint x="942" y="1007" as="sourcePoint" />
            <mxPoint x="888" y="1274" as="targetPoint" />
          </mxGeometry>
        </mxCell>
        <mxCell id="RF3iujdTGceP80T30LP2-2" value="" style="rounded=0;orthogonalLoop=1;jettySize=auto;html=1;endArrow=oval;endFill=0;sketch=0;sourcePerimeterSpacing=0;targetPerimeterSpacing=0;endSize=10;strokeWidth=3;flowAnimation=0;noJump=0;ignoreEdge=0;orthogonal=0;comic=0;startFill=1;snapToPoint=0;fixDash=0;bendable=1;strokeColor=#0000CC;enumerate=1;enumerateValue=6;exitX=0.999;exitY=0.664;exitDx=0;exitDy=0;exitPerimeter=0;" parent="HK_3fRcAFnaeG8rh7wnH-31" source="1zK38C7U8xg2GFa9RjvA-3" edge="1">
          <mxGeometry relative="1" as="geometry">
            <mxPoint x="830" y="1390" as="sourcePoint" />
            <mxPoint x="888" y="1274" as="targetPoint" />
            <Array as="points">
              <mxPoint x="1542" y="1027" />
            </Array>
          </mxGeometry>
        </mxCell>
        <mxCell id="RF3iujdTGceP80T30LP2-3" value="" style="rounded=0;orthogonalLoop=1;jettySize=auto;html=1;endArrow=halfCircle;endFill=0;endSize=6;strokeWidth=3;sketch=0;flowAnimation=0;strokeColor=#006600;exitX=1;exitY=0.5;exitDx=0;exitDy=0;" parent="HK_3fRcAFnaeG8rh7wnH-31" source="vx9IksQv1d9Bjdi8k2PK-1" edge="1">
          <mxGeometry relative="1" as="geometry">
            <mxPoint x="811" y="779" as="sourcePoint" />
            <mxPoint x="855" y="896" as="targetPoint" />
          </mxGeometry>
        </mxCell>
        <mxCell id="RF3iujdTGceP80T30LP2-5" value="" style="rounded=0;orthogonalLoop=1;jettySize=auto;html=1;endArrow=halfCircle;endFill=0;endSize=6;strokeWidth=3;sketch=0;flowAnimation=0;strokeColor=#006600;exitX=1;exitY=0.5;exitDx=0;exitDy=0;" parent="HK_3fRcAFnaeG8rh7wnH-31" source="A92LvQKMvZgKC4Uq5DWh-3" edge="1">
          <mxGeometry relative="1" as="geometry">
            <mxPoint x="810" y="737" as="sourcePoint" />
            <mxPoint x="851" y="788" as="targetPoint" />
          </mxGeometry>
        </mxCell>
        <mxCell id="RF3iujdTGceP80T30LP2-6" value="" style="rounded=0;orthogonalLoop=1;jettySize=auto;html=1;endArrow=oval;endFill=0;sketch=0;sourcePerimeterSpacing=0;targetPerimeterSpacing=0;endSize=10;strokeWidth=3;flowAnimation=1;noJump=0;ignoreEdge=0;orthogonal=0;comic=0;startFill=1;snapToPoint=0;fixDash=0;bendable=1;strokeColor=#0000CC;enumerate=1;enumerateValue=5;exitX=1.022;exitY=0.623;exitDx=0;exitDy=0;exitPerimeter=0;" parent="HK_3fRcAFnaeG8rh7wnH-31" source="-dEZZabvTaUFYB1GWqo2-3" edge="1">
          <mxGeometry relative="1" as="geometry">
            <mxPoint x="1501" y="901" as="sourcePoint" />
            <mxPoint x="856" y="895" as="targetPoint" />
            <Array as="points" />
          </mxGeometry>
        </mxCell>
        <mxCell id="RF3iujdTGceP80T30LP2-8" value="" style="rounded=0;orthogonalLoop=1;jettySize=auto;html=1;endArrow=oval;endFill=0;sketch=0;sourcePerimeterSpacing=0;targetPerimeterSpacing=0;endSize=10;strokeWidth=3;flowAnimation=1;noJump=0;ignoreEdge=0;orthogonal=0;comic=0;startFill=1;snapToPoint=0;fixDash=0;bendable=1;strokeColor=#0000CC;enumerate=1;enumerateValue=4;exitX=1.004;exitY=0.633;exitDx=0;exitDy=0;exitPerimeter=0;" parent="HK_3fRcAFnaeG8rh7wnH-31" source="Q77mf5UmInl3Oe8Q2mnH-10" edge="1">
          <mxGeometry relative="1" as="geometry">
            <mxPoint x="1527" y="796" as="sourcePoint" />
            <mxPoint x="851" y="788" as="targetPoint" />
            <Array as="points">
              <mxPoint x="1503" y="785" />
            </Array>
          </mxGeometry>
        </mxCell>
        <mxCell id="RF3iujdTGceP80T30LP2-11" value="" style="rounded=0;orthogonalLoop=1;jettySize=auto;html=1;endArrow=halfCircle;endFill=0;endSize=6;strokeWidth=3;sketch=0;flowAnimation=0;strokeColor=#006600;exitX=1;exitY=0.5;exitDx=0;exitDy=0;" parent="HK_3fRcAFnaeG8rh7wnH-31" source="A92LvQKMvZgKC4Uq5DWh-1" edge="1">
          <mxGeometry relative="1" as="geometry">
            <mxPoint x="776" y="563" as="sourcePoint" />
            <mxPoint x="828" y="547" as="targetPoint" />
            <Array as="points">
              <mxPoint x="829" y="563" />
            </Array>
          </mxGeometry>
        </mxCell>
        <mxCell id="qtNOMh3mZO1IegQqFAeq-1" value="AKS (Azure Kubernetes Service)" style="swimlane;whiteSpace=wrap;html=1;startSize=43;fontSize=27;fontStyle=3;strokeWidth=7;strokeColor=#7EA6E0;" parent="HK_3fRcAFnaeG8rh7wnH-31" vertex="1">
          <mxGeometry x="453" y="68" width="1548" height="1317" as="geometry" />
        </mxCell>
        <mxCell id="6x0NcWdY5QkLATu4YAcQ-10" value="" style="rounded=0;orthogonalLoop=1;jettySize=auto;html=1;endArrow=halfCircle;endFill=0;endSize=6;strokeWidth=3;sketch=0;exitX=1;exitY=0.5;exitDx=0;exitDy=0;flowAnimation=0;strokeColor=#0000CC;" parent="HK_3fRcAFnaeG8rh7wnH-31" source="K11QHAuoJOkHe4VxRCnO-3" edge="1">
          <mxGeometry relative="1" as="geometry">
            <mxPoint x="1399" y="344" as="sourcePoint" />
            <mxPoint x="1450" y="131" as="targetPoint" />
            <Array as="points">
              <mxPoint x="1450" y="241" />
            </Array>
          </mxGeometry>
        </mxCell>
        <mxCell id="A3Psz8cCiYH65ctrUiJ_-9" value="" style="rounded=0;orthogonalLoop=1;jettySize=auto;html=1;endArrow=oval;endFill=0;sketch=0;sourcePerimeterSpacing=0;targetPerimeterSpacing=0;endSize=10;strokeWidth=3;flowAnimation=0;noJump=0;ignoreEdge=0;orthogonal=0;comic=0;startFill=1;snapToPoint=0;fixDash=0;bendable=1;strokeColor=#000000;enumerate=1;enumerateValue=3;exitX=0.5;exitY=1;exitDx=0;exitDy=0;" parent="HK_3fRcAFnaeG8rh7wnH-31" source="A3Psz8cCiYH65ctrUiJ_-6" edge="1">
          <mxGeometry relative="1" as="geometry">
            <mxPoint x="1182" y="-201" as="sourcePoint" />
            <mxPoint x="1465" y="257" as="targetPoint" />
            <Array as="points">
              <mxPoint x="1466" y="-30" />
            </Array>
          </mxGeometry>
        </mxCell>
        <mxCell id="bdv_BzujygIh6tq-azoB-8" value="" style="ellipse;whiteSpace=wrap;html=1;align=center;aspect=fixed;fillColor=none;strokeColor=none;resizable=0;perimeter=centerPerimeter;rotatable=0;allowArrows=0;points=[];outlineConnect=1;" parent="1" vertex="1">
          <mxGeometry x="1029" y="914" width="10" height="10" as="geometry" />
        </mxCell>
        <mxCell id="bdv_BzujygIh6tq-azoB-7" value="" style="rounded=0;orthogonalLoop=1;jettySize=auto;html=1;endArrow=oval;endFill=0;sketch=0;sourcePerimeterSpacing=0;targetPerimeterSpacing=0;endSize=10;strokeWidth=3;flowAnimation=1;noJump=0;ignoreEdge=0;orthogonal=0;comic=0;startFill=1;snapToPoint=0;fixDash=0;bendable=1;strokeColor=#CC0066;enumerate=1;enumerateValue=1;exitX=0.5;exitY=1;exitDx=0;exitDy=0;" parent="1" source="m2sPMxKKgdwUWeNki6nV-1" edge="1">
          <mxGeometry relative="1" as="geometry">
            <mxPoint x="554" y="638" as="sourcePoint" />
            <mxPoint x="1136" y="957" as="targetPoint" />
            <Array as="points">
              <mxPoint x="569" y="649" />
              <mxPoint x="1136" y="652" />
            </Array>
          </mxGeometry>
        </mxCell>
        <mxCell id="bdv_BzujygIh6tq-azoB-6" value="" style="rounded=0;orthogonalLoop=1;jettySize=auto;html=1;endArrow=halfCircle;endFill=0;endSize=6;strokeWidth=3;sketch=0;exitX=1;exitY=0.25;exitDx=0;exitDy=0;flowAnimation=1;strokeColor=#660000;enumerate=1;enumerateValue=1;" parent="1" source="A3Psz8cCiYH65ctrUiJ_-3" edge="1">
          <mxGeometry relative="1" as="geometry">
            <mxPoint x="554" y="654" as="sourcePoint" />
            <mxPoint x="1136" y="957" as="targetPoint" />
            <Array as="points" />
          </mxGeometry>
        </mxCell>
        <mxCell id="bdv_BzujygIh6tq-azoB-9" value="" style="rounded=0;orthogonalLoop=1;jettySize=auto;html=1;endArrow=oval;endFill=0;sketch=0;sourcePerimeterSpacing=0;targetPerimeterSpacing=0;endSize=10;strokeWidth=2;strokeColor=#660000;enumerate=1;enumerateValue=2;exitX=0;exitY=0.5;exitDx=0;exitDy=0;flowAnimation=0;ignoreEdge=0;noJump=0;orthogonal=0;comic=0;" parent="1" source="A3Psz8cCiYH65ctrUiJ_-3" edge="1">
          <mxGeometry relative="1" as="geometry">
            <mxPoint x="804" y="948" as="sourcePoint" />
            <mxPoint x="513" y="869" as="targetPoint" />
            <Array as="points">
              <mxPoint x="572" y="948" />
            </Array>
          </mxGeometry>
        </mxCell>
        <mxCell id="6x0NcWdY5QkLATu4YAcQ-14" value="HTTP" style="edgeLabel;html=1;align=center;verticalAlign=middle;resizable=0;points=[];" parent="bdv_BzujygIh6tq-azoB-9" vertex="1" connectable="0">
          <mxGeometry x="0.8091" y="1" relative="1" as="geometry">
            <mxPoint as="offset" />
          </mxGeometry>
        </mxCell>
        <mxCell id="bdv_BzujygIh6tq-azoB-10" value="" style="rounded=0;orthogonalLoop=1;jettySize=auto;html=1;endArrow=halfCircle;endFill=0;endSize=6;strokeWidth=2;sketch=0;exitX=1;exitY=0.5;exitDx=0;exitDy=0;strokeColor=#660000;enumerate=1;enumerateValue=2;flowAnimation=1;" parent="1" source="HK_3fRcAFnaeG8rh7wnH-3" edge="1">
          <mxGeometry relative="1" as="geometry">
            <mxPoint x="409" y="839" as="sourcePoint" />
            <mxPoint x="513" y="869" as="targetPoint" />
          </mxGeometry>
        </mxCell>
        <mxCell id="bdv_BzujygIh6tq-azoB-13" value="" style="rounded=0;orthogonalLoop=1;jettySize=auto;html=1;endArrow=halfCircle;endFill=0;endSize=6;strokeWidth=2;sketch=0;exitX=1;exitY=0.75;exitDx=0;exitDy=0;strokeColor=#660000;enumerate=1;enumerateValue=3;flowAnimation=1;" parent="1" source="HK_3fRcAFnaeG8rh7wnH-18" edge="1">
          <mxGeometry relative="1" as="geometry">
            <mxPoint x="424" y="1018.5" as="sourcePoint" />
            <mxPoint x="507" y="1018.5" as="targetPoint" />
          </mxGeometry>
        </mxCell>
        <mxCell id="bdv_BzujygIh6tq-azoB-14" value="" style="rounded=0;orthogonalLoop=1;jettySize=auto;html=1;endArrow=oval;endFill=0;sketch=0;sourcePerimeterSpacing=0;targetPerimeterSpacing=0;endSize=10;strokeWidth=2;strokeColor=#660000;enumerate=1;enumerateValue=3;exitX=0;exitY=0.5;exitDx=0;exitDy=0;" parent="1" source="A3Psz8cCiYH65ctrUiJ_-3" edge="1">
          <mxGeometry relative="1" as="geometry">
            <mxPoint x="804" y="973" as="sourcePoint" />
            <mxPoint x="507" y="1018.5" as="targetPoint" />
            <Array as="points">
              <mxPoint x="568" y="976" />
            </Array>
          </mxGeometry>
        </mxCell>
        <mxCell id="6x0NcWdY5QkLATu4YAcQ-15" value="HTTP" style="edgeLabel;html=1;align=center;verticalAlign=middle;resizable=0;points=[];" parent="bdv_BzujygIh6tq-azoB-14" vertex="1" connectable="0">
          <mxGeometry x="0.8398" y="-1" relative="1" as="geometry">
            <mxPoint as="offset" />
          </mxGeometry>
        </mxCell>
        <mxCell id="bdv_BzujygIh6tq-azoB-15" value="" style="rounded=0;orthogonalLoop=1;jettySize=auto;html=1;endArrow=oval;endFill=0;sketch=0;sourcePerimeterSpacing=0;targetPerimeterSpacing=0;endSize=10;strokeWidth=2;strokeColor=#660000;enumerate=1;enumerateValue=4;exitX=0;exitY=0.5;exitDx=0;exitDy=0;" parent="1" source="A3Psz8cCiYH65ctrUiJ_-3" edge="1">
          <mxGeometry relative="1" as="geometry">
            <mxPoint x="802" y="987" as="sourcePoint" />
            <mxPoint x="501" y="1223" as="targetPoint" />
            <Array as="points">
              <mxPoint x="605" y="990" />
            </Array>
          </mxGeometry>
        </mxCell>
        <mxCell id="6x0NcWdY5QkLATu4YAcQ-12" value="HTTP" style="edgeLabel;html=1;align=center;verticalAlign=middle;resizable=0;points=[];" parent="bdv_BzujygIh6tq-azoB-15" vertex="1" connectable="0">
          <mxGeometry x="0.7013" y="-3" relative="1" as="geometry">
            <mxPoint as="offset" />
          </mxGeometry>
        </mxCell>
        <mxCell id="bdv_BzujygIh6tq-azoB-16" value="" style="rounded=0;orthogonalLoop=1;jettySize=auto;html=1;endArrow=halfCircle;endFill=0;endSize=6;strokeWidth=2;sketch=0;strokeColor=#660000;exitX=1;exitY=0.5;exitDx=0;exitDy=0;enumerate=1;enumerateValue=4;flowAnimation=1;" parent="1" edge="1">
          <mxGeometry relative="1" as="geometry">
            <mxPoint x="398" y="1224" as="sourcePoint" />
            <mxPoint x="502" y="1223" as="targetPoint" />
          </mxGeometry>
        </mxCell>
        <mxCell id="bdv_BzujygIh6tq-azoB-17" value="" style="rounded=0;orthogonalLoop=1;jettySize=auto;html=1;endArrow=oval;endFill=0;sketch=0;sourcePerimeterSpacing=0;targetPerimeterSpacing=0;endSize=10;strokeWidth=2;strokeColor=#660000;enumerate=1;enumerateValue=6;exitX=0;exitY=0.5;exitDx=0;exitDy=0;" parent="1" source="A3Psz8cCiYH65ctrUiJ_-3" edge="1">
          <mxGeometry relative="1" as="geometry">
            <mxPoint x="803" y="1016" as="sourcePoint" />
            <mxPoint x="500" y="1342" as="targetPoint" />
            <Array as="points">
              <mxPoint x="644" y="1016" />
            </Array>
          </mxGeometry>
        </mxCell>
        <mxCell id="6x0NcWdY5QkLATu4YAcQ-11" value="HTTP" style="edgeLabel;html=1;align=center;verticalAlign=middle;resizable=0;points=[];" parent="bdv_BzujygIh6tq-azoB-17" vertex="1" connectable="0">
          <mxGeometry x="0.7394" y="1" relative="1" as="geometry">
            <mxPoint as="offset" />
          </mxGeometry>
        </mxCell>
        <mxCell id="bdv_BzujygIh6tq-azoB-18" value="" style="rounded=0;orthogonalLoop=1;jettySize=auto;html=1;endArrow=halfCircle;endFill=0;endSize=6;strokeWidth=2;sketch=0;exitX=1;exitY=0.25;exitDx=0;exitDy=0;strokeColor=#660000;enumerate=1;enumerateValue=6;flowAnimation=1;" parent="1" source="HK_3fRcAFnaeG8rh7wnH-6" edge="1">
          <mxGeometry relative="1" as="geometry">
            <mxPoint x="401" y="1345" as="sourcePoint" />
            <mxPoint x="499" y="1343" as="targetPoint" />
          </mxGeometry>
        </mxCell>
        <mxCell id="m2sPMxKKgdwUWeNki6nV-1" value="" style="fontStyle=1;align=center;verticalAlign=top;childLayout=stackLayout;horizontal=1;horizontalStack=0;resizeParent=1;resizeParentMax=0;resizeLast=0;marginBottom=0;strokeColor=#CC0066;strokeWidth=7;fontSize=12;" parent="1" vertex="1">
          <mxGeometry x="473" y="422" width="197" height="133.91" as="geometry" />
        </mxCell>
        <mxCell id="m2sPMxKKgdwUWeNki6nV-2" value="Autenticación" style="html=1;align=left;spacingLeft=4;verticalAlign=top;strokeColor=none;fillColor=none;whiteSpace=wrap;fontSize=14;fontStyle=3" parent="m2sPMxKKgdwUWeNki6nV-1" vertex="1">
          <mxGeometry width="197" height="40" as="geometry" />
        </mxCell>
        <mxCell id="m2sPMxKKgdwUWeNki6nV-3" value="" style="shape=module;jettyWidth=10;jettyHeight=4;" parent="m2sPMxKKgdwUWeNki6nV-2" vertex="1">
          <mxGeometry x="1" width="16" height="20" relative="1" as="geometry">
            <mxPoint x="-25" y="9" as="offset" />
          </mxGeometry>
        </mxCell>
        <mxCell id="m2sPMxKKgdwUWeNki6nV-4" value="" style="line;strokeWidth=1;fillColor=none;align=left;verticalAlign=middle;spacingTop=-1;spacingLeft=3;spacingRight=3;rotatable=0;labelPosition=right;points=[];portConstraint=eastwest;" parent="m2sPMxKKgdwUWeNki6nV-1" vertex="1">
          <mxGeometry y="40" width="197" height="8" as="geometry" />
        </mxCell>
        <mxCell id="m2sPMxKKgdwUWeNki6nV-5" value="Key Cloak" style="html=1;align=center;spacingLeft=4;verticalAlign=top;strokeColor=none;fillColor=none;whiteSpace=wrap;fontStyle=3;fontColor=#CC0066;fontSize=16;" parent="m2sPMxKKgdwUWeNki6nV-1" vertex="1">
          <mxGeometry y="48" width="197" height="25" as="geometry" />
        </mxCell>
        <mxCell id="m2sPMxKKgdwUWeNki6nV-6" value="OAUTH" style="html=1;align=left;spacingLeft=4;verticalAlign=top;strokeColor=none;fillColor=none;whiteSpace=wrap;fontSize=14;fontStyle=3" parent="m2sPMxKKgdwUWeNki6nV-1" vertex="1">
          <mxGeometry y="73" width="197" height="25" as="geometry" />
        </mxCell>
        <mxCell id="pZ69eFV6JAG5la2JUUV1-1" value="" style="shape=image;verticalLabelPosition=bottom;labelBackgroundColor=default;verticalAlign=top;aspect=fixed;imageAspect=0;image=https://www.xpand-it.com/wp-content/uploads/2020/06/Keycloak-logo.png;" parent="m2sPMxKKgdwUWeNki6nV-1" vertex="1">
          <mxGeometry y="98" width="197" height="27.91" as="geometry" />
        </mxCell>
        <mxCell id="m2sPMxKKgdwUWeNki6nV-7" value="" style="line;strokeWidth=1;fillColor=none;align=left;verticalAlign=middle;spacingTop=-1;spacingLeft=3;spacingRight=3;rotatable=0;labelPosition=right;points=[];portConstraint=eastwest;" parent="m2sPMxKKgdwUWeNki6nV-1" vertex="1">
          <mxGeometry y="125.91" width="197" height="8" as="geometry" />
        </mxCell>
        <mxCell id="A3Psz8cCiYH65ctrUiJ_-6" value="&lt;p style=&quot;margin: 6px 0px 0px; text-align: center; font-size: 19px;&quot;&gt;&lt;span style=&quot;font-size: 19px;&quot;&gt;&amp;lt;&amp;lt;&lt;/span&gt;&lt;span style=&quot;background-color: initial; font-size: 19px;&quot;&gt;Hugging Face Hub&lt;/span&gt;&lt;span style=&quot;background-color: initial; font-size: 19px;&quot;&gt;&amp;gt;&amp;gt;&lt;/span&gt;&lt;/p&gt;" style="align=left;overflow=fill;html=1;dropTarget=1;whiteSpace=wrap;container=1;treeFolding=1;strokeWidth=3;fontSize=19;fontStyle=1" parent="1" vertex="1">
          <mxGeometry x="2077" y="180" width="267" height="189" as="geometry" />
        </mxCell>
        <mxCell id="A3Psz8cCiYH65ctrUiJ_-7" value="" style="shape=component;jettyWidth=8;jettyHeight=4;" parent="A3Psz8cCiYH65ctrUiJ_-6" vertex="1">
          <mxGeometry x="1" width="20" height="20" relative="1" as="geometry">
            <mxPoint x="-24" y="4" as="offset" />
          </mxGeometry>
        </mxCell>
        <mxCell id="A3Psz8cCiYH65ctrUiJ_-5" value="" style="shape=image;verticalLabelPosition=bottom;labelBackgroundColor=default;verticalAlign=top;aspect=fixed;imageAspect=0;image=https://static.vecteezy.com/system/resources/previews/011/410/303/non_2x/artificial-intelligence-ai-processor-chip-icon-symbol-for-graphic-design-logo-website-social-media-mobile-app-ui-illustration-vector.jpg;" parent="A3Psz8cCiYH65ctrUiJ_-6" vertex="1">
          <mxGeometry x="64.6203571428572" y="29.076923076923077" width="138.99959157222088" height="137.59374246443213" as="geometry" />
        </mxCell>
        <mxCell id="6x0NcWdY5QkLATu4YAcQ-9" value="" style="rounded=0;orthogonalLoop=1;jettySize=auto;html=1;endArrow=oval;endFill=0;sketch=0;sourcePerimeterSpacing=0;targetPerimeterSpacing=0;endSize=10;strokeWidth=3;flowAnimation=0;noJump=0;ignoreEdge=0;orthogonal=0;comic=0;startFill=1;snapToPoint=0;fixDash=0;bendable=1;strokeColor=#000000;enumerate=1;enumerateValue=3;exitX=0.425;exitY=1.001;exitDx=0;exitDy=0;exitPerimeter=0;" parent="1" source="A3Psz8cCiYH65ctrUiJ_-6" edge="1">
          <mxGeometry relative="1" as="geometry">
            <mxPoint x="2194" y="370" as="sourcePoint" />
            <mxPoint x="2193" y="555" as="targetPoint" />
            <Array as="points" />
          </mxGeometry>
        </mxCell>
        <mxCell id="thKJZtWLX0SrUjWwmtHR-9" value="&lt;p style=&quot;margin: 6px 0px 0px; text-align: center; font-size: 19px;&quot;&gt;&lt;span style=&quot;font-size: 19px;&quot;&gt;&amp;lt;&amp;lt;&lt;/span&gt;&lt;span style=&quot;background-color: initial; font-size: 19px;&quot;&gt;Hugging Face Hub&lt;/span&gt;&lt;span style=&quot;background-color: initial; font-size: 19px;&quot;&gt;&amp;gt;&amp;gt;&lt;/span&gt;&lt;/p&gt;" style="align=left;overflow=fill;html=1;dropTarget=1;whiteSpace=wrap;container=1;treeFolding=1;strokeWidth=3;fontSize=19;fontStyle=1" parent="1" vertex="1">
          <mxGeometry x="2077" y="1934" width="267" height="189" as="geometry" />
        </mxCell>
        <mxCell id="thKJZtWLX0SrUjWwmtHR-10" value="" style="shape=component;jettyWidth=8;jettyHeight=4;" parent="thKJZtWLX0SrUjWwmtHR-9" vertex="1">
          <mxGeometry x="1" width="20" height="20" relative="1" as="geometry">
            <mxPoint x="-24" y="4" as="offset" />
          </mxGeometry>
        </mxCell>
        <mxCell id="thKJZtWLX0SrUjWwmtHR-11" value="" style="shape=image;verticalLabelPosition=bottom;labelBackgroundColor=default;verticalAlign=top;aspect=fixed;imageAspect=0;image=https://static.vecteezy.com/system/resources/previews/011/410/303/non_2x/artificial-intelligence-ai-processor-chip-icon-symbol-for-graphic-design-logo-website-social-media-mobile-app-ui-illustration-vector.jpg;" parent="thKJZtWLX0SrUjWwmtHR-9" vertex="1">
          <mxGeometry x="64.6203571428572" y="29.076923076923077" width="138.99959157222088" height="137.59374246443213" as="geometry" />
        </mxCell>
        <mxCell id="thKJZtWLX0SrUjWwmtHR-12" value="" style="rounded=0;orthogonalLoop=1;jettySize=auto;html=1;endArrow=oval;endFill=0;sketch=0;sourcePerimeterSpacing=0;targetPerimeterSpacing=0;endSize=10;strokeWidth=2;flowAnimation=0;noJump=0;ignoreEdge=0;orthogonal=0;comic=0;startFill=1;snapToPoint=0;fixDash=0;bendable=1;strokeColor=#000000;enumerate=0;enumerateValue=4;exitX=1;exitY=0.75;exitDx=0;exitDy=0;" parent="1" source="thKJZtWLX0SrUjWwmtHR-9" edge="1">
          <mxGeometry relative="1" as="geometry">
            <mxPoint x="2517" y="1644" as="sourcePoint" />
            <mxPoint x="2514" y="2064" as="targetPoint" />
            <Array as="points">
              <mxPoint x="2444" y="2076" />
            </Array>
          </mxGeometry>
        </mxCell>
        <mxCell id="thKJZtWLX0SrUjWwmtHR-13" value="" style="rounded=0;orthogonalLoop=1;jettySize=auto;html=1;endArrow=halfCircle;endFill=0;endSize=6;strokeWidth=2;sketch=0;flowAnimation=0;strokeColor=#0000CC;exitX=1;exitY=0.5;exitDx=0;exitDy=0;enumerate=1;enumerateValue=4;" parent="1" source="Q77mf5UmInl3Oe8Q2mnH-7" edge="1">
          <mxGeometry relative="1" as="geometry">
            <mxPoint x="2424" y="1634" as="sourcePoint" />
            <mxPoint x="2514" y="2064" as="targetPoint" />
            <Array as="points">
              <mxPoint x="3004" y="1190" />
              <mxPoint x="3004" y="2064" />
            </Array>
          </mxGeometry>
        </mxCell>
        <mxCell id="thKJZtWLX0SrUjWwmtHR-14" value="" style="rounded=0;orthogonalLoop=1;jettySize=auto;html=1;endArrow=halfCircle;endFill=0;endSize=6;strokeWidth=2;sketch=0;flowAnimation=0;strokeColor=#0000CC;exitX=1;exitY=0.5;exitDx=0;exitDy=0;enumerate=1;enumerateValue=5;" parent="1" source="-dEZZabvTaUFYB1GWqo2-1" edge="1">
          <mxGeometry relative="1" as="geometry">
            <mxPoint x="2676" y="1294" as="sourcePoint" />
            <mxPoint x="2524" y="2024" as="targetPoint" />
            <Array as="points">
              <mxPoint x="2994" y="1309" />
              <mxPoint x="2994" y="2024" />
            </Array>
          </mxGeometry>
        </mxCell>
        <mxCell id="thKJZtWLX0SrUjWwmtHR-15" value="" style="rounded=0;orthogonalLoop=1;jettySize=auto;html=1;endArrow=oval;endFill=0;sketch=0;sourcePerimeterSpacing=0;targetPerimeterSpacing=0;endSize=10;strokeWidth=2;flowAnimation=0;noJump=0;ignoreEdge=0;orthogonal=0;comic=0;startFill=1;snapToPoint=0;fixDash=0;bendable=1;strokeColor=#000000;enumerate=0;enumerateValue=4;exitX=1.006;exitY=0.537;exitDx=0;exitDy=0;exitPerimeter=0;" parent="1" edge="1">
          <mxGeometry relative="1" as="geometry">
            <mxPoint x="2344.002" y="1995.493" as="sourcePoint" />
            <mxPoint x="2544" y="1984" as="targetPoint" />
            <Array as="points">
              <mxPoint x="2444" y="1995" />
            </Array>
          </mxGeometry>
        </mxCell>
        <mxCell id="thKJZtWLX0SrUjWwmtHR-16" value="" style="rounded=0;orthogonalLoop=1;jettySize=auto;html=1;endArrow=halfCircle;endFill=0;endSize=6;strokeWidth=2;sketch=0;flowAnimation=0;strokeColor=#0000CC;exitX=1;exitY=0.5;exitDx=0;exitDy=0;enumerate=1;enumerateValue=6;" parent="1" source="1zK38C7U8xg2GFa9RjvA-1" edge="1">
          <mxGeometry relative="1" as="geometry">
            <mxPoint x="2684" y="1424" as="sourcePoint" />
            <mxPoint x="2544" y="1984" as="targetPoint" />
            <Array as="points">
              <mxPoint x="2984" y="1424" />
              <mxPoint x="2984" y="1984" />
            </Array>
          </mxGeometry>
        </mxCell>
        <mxCell id="thKJZtWLX0SrUjWwmtHR-17" value="" style="rounded=0;orthogonalLoop=1;jettySize=auto;html=1;endArrow=oval;endFill=0;sketch=0;sourcePerimeterSpacing=0;targetPerimeterSpacing=0;endSize=10;strokeWidth=2;flowAnimation=0;noJump=0;ignoreEdge=0;orthogonal=0;comic=0;startFill=1;snapToPoint=0;fixDash=0;bendable=1;strokeColor=#000000;enumerate=0;enumerateValue=4;" parent="1" edge="1">
          <mxGeometry relative="1" as="geometry">
            <mxPoint x="2344" y="2034" as="sourcePoint" />
            <mxPoint x="2524" y="2022.75" as="targetPoint" />
            <Array as="points">
              <mxPoint x="2444" y="2031" />
            </Array>
          </mxGeometry>
        </mxCell>
        <mxCell id="o2pUkPvB0Ja7e9Ckz8vI-1" value="" style="rounded=0;orthogonalLoop=1;jettySize=auto;html=1;endArrow=oval;endFill=0;sketch=0;sourcePerimeterSpacing=0;targetPerimeterSpacing=0;endSize=10;strokeWidth=2;strokeColor=#660000;enumerate=1;enumerateValue=5;exitX=0;exitY=0.5;exitDx=0;exitDy=0;" parent="1" source="A3Psz8cCiYH65ctrUiJ_-3" edge="1">
          <mxGeometry relative="1" as="geometry">
            <mxPoint x="801" y="1015" as="sourcePoint" />
            <mxPoint x="500" y="1292" as="targetPoint" />
            <Array as="points">
              <mxPoint x="626" y="1004" />
            </Array>
          </mxGeometry>
        </mxCell>
        <mxCell id="o2pUkPvB0Ja7e9Ckz8vI-2" value="HTTP" style="edgeLabel;html=1;align=center;verticalAlign=middle;resizable=0;points=[];" parent="o2pUkPvB0Ja7e9Ckz8vI-1" vertex="1" connectable="0">
          <mxGeometry x="0.7013" y="-3" relative="1" as="geometry">
            <mxPoint as="offset" />
          </mxGeometry>
        </mxCell>
        <mxCell id="o2pUkPvB0Ja7e9Ckz8vI-3" value="" style="rounded=0;orthogonalLoop=1;jettySize=auto;html=1;endArrow=halfCircle;endFill=0;endSize=6;strokeWidth=2;sketch=0;strokeColor=#660000;exitX=1;exitY=0.5;exitDx=0;exitDy=0;enumerate=1;enumerateValue=5;flowAnimation=1;" parent="1" edge="1">
          <mxGeometry relative="1" as="geometry">
            <mxPoint x="397" y="1293" as="sourcePoint" />
            <mxPoint x="501" y="1292" as="targetPoint" />
          </mxGeometry>
        </mxCell>
        <mxCell id="OznQPBcJFZvqie0s509K-1" value="Entrevistador Inteligente&lt;br&gt;&lt;br&gt;Diagrama de Componentes Base" style="text;html=1;strokeColor=#3700CC;fillColor=none;align=center;verticalAlign=middle;whiteSpace=wrap;rounded=1;fontStyle=3;fontSize=44;strokeWidth=1;fontColor=#330066;dashed=1;dashPattern=12 12;shadow=1;sketch=1;curveFitting=1;jiggle=2;glass=0;" parent="1" vertex="1">
          <mxGeometry x="753" y="81" width="975" height="175" as="geometry" />
        </mxCell>
        <mxCell id="pZ69eFV6JAG5la2JUUV1-2" value="" style="rounded=0;orthogonalLoop=1;jettySize=auto;html=1;endArrow=halfCircle;endFill=0;endSize=6;strokeWidth=2;sketch=0;exitX=1;exitY=0.5;exitDx=0;exitDy=0;strokeColor=#660000;enumerate=1;enumerateValue=1;flowAnimation=1;" parent="1" source="HK_3fRcAFnaeG8rh7wnH-2" edge="1">
          <mxGeometry relative="1" as="geometry">
            <mxPoint x="426" y="748" as="sourcePoint" />
            <mxPoint x="515" y="748" as="targetPoint" />
          </mxGeometry>
        </mxCell>
        <mxCell id="pZ69eFV6JAG5la2JUUV1-3" value="" style="rounded=0;orthogonalLoop=1;jettySize=auto;html=1;endArrow=oval;endFill=0;sketch=0;sourcePerimeterSpacing=0;targetPerimeterSpacing=0;endSize=10;strokeWidth=2;strokeColor=#660000;enumerate=1;enumerateValue=1;exitX=0;exitY=0.5;exitDx=0;exitDy=0;flowAnimation=0;ignoreEdge=0;noJump=0;orthogonal=0;comic=0;" parent="1" source="A3Psz8cCiYH65ctrUiJ_-3" edge="1">
          <mxGeometry relative="1" as="geometry">
            <mxPoint x="832" y="860" as="sourcePoint" />
            <mxPoint x="515" y="748" as="targetPoint" />
            <Array as="points">
              <mxPoint x="585" y="910" />
            </Array>
          </mxGeometry>
        </mxCell>
        <mxCell id="pZ69eFV6JAG5la2JUUV1-4" value="HTTP" style="edgeLabel;html=1;align=center;verticalAlign=middle;resizable=0;points=[];" parent="pZ69eFV6JAG5la2JUUV1-3" vertex="1" connectable="0">
          <mxGeometry x="0.8091" y="1" relative="1" as="geometry">
            <mxPoint as="offset" />
          </mxGeometry>
        </mxCell>
      </root>
    </mxGraphModel>
  </diagram>
  <diagram id="kwUQ6LW9IGMn5qQqOzDd" name="Diag. Componentes Extendido">
    <mxGraphModel dx="4930" dy="2714" grid="0" gridSize="10" guides="1" tooltips="1" connect="1" arrows="1" fold="1" page="1" pageScale="1" pageWidth="827" pageHeight="1169" math="0" shadow="0">
      <root>
        <mxCell id="0" />
        <mxCell id="1" parent="0" />
        <mxCell id="fmrnC86ueRESXoqnmyNB-1" value="FRONT-END" style="swimlane;whiteSpace=wrap;html=1;strokeColor=#FF9999;strokeWidth=9;startSize=69;fontSize=25;fontColor=#CC0000;" parent="1" vertex="1">
          <mxGeometry x="-447" y="108" width="911" height="1449" as="geometry" />
        </mxCell>
        <mxCell id="fmrnC86ueRESXoqnmyNB-2" value="" style="shape=image;verticalLabelPosition=bottom;labelBackgroundColor=default;verticalAlign=top;aspect=fixed;imageAspect=0;image=https://i.pinimg.com/originals/1d/78/36/1d7836b162169e9836b6761253132a81.png;" parent="fmrnC86ueRESXoqnmyNB-1" vertex="1">
          <mxGeometry x="33" y="14" width="177.25" height="48" as="geometry" />
        </mxCell>
        <mxCell id="fmrnC86ueRESXoqnmyNB-3" value="LOGIN" style="shape=umlFrame;whiteSpace=wrap;html=1;pointerEvents=0;recursiveResize=0;container=1;collapsible=0;width=160;strokeWidth=4;strokeColor=#FF0000;fontStyle=1;fontColor=#CC0000;fontSize=16;" parent="fmrnC86ueRESXoqnmyNB-1" vertex="1">
          <mxGeometry x="50" y="116" width="436" height="156" as="geometry" />
        </mxCell>
        <mxCell id="fmrnC86ueRESXoqnmyNB-4" value="Iniciar Sesion" style="html=1;shadow=0;dashed=0;shape=mxgraph.bootstrap.rrect;rSize=5;strokeColor=none;strokeWidth=1;fillColor=#DB2843;fontColor=#FFFFFF;whiteSpace=wrap;align=center;verticalAlign=middle;spacingLeft=0;fontStyle=0;fontSize=16;spacing=5;" parent="fmrnC86ueRESXoqnmyNB-3" vertex="1">
          <mxGeometry x="144" y="55" width="119" height="40" as="geometry" />
        </mxCell>
        <mxCell id="fmrnC86ueRESXoqnmyNB-5" value="ESPACIO PREVIEW" style="shape=umlFrame;whiteSpace=wrap;html=1;pointerEvents=0;recursiveResize=0;container=1;collapsible=0;width=160;strokeWidth=4;strokeColor=#FF0000;fontStyle=1;fontColor=#CC0000;" parent="fmrnC86ueRESXoqnmyNB-1" vertex="1">
          <mxGeometry x="44" y="299" width="824" height="284" as="geometry" />
        </mxCell>
        <mxCell id="fmrnC86ueRESXoqnmyNB-6" value="&lt;h1&gt;info&lt;/h1&gt;&lt;p&gt;Se requiere definir la interfaz grafica (diseño UI) y proponer la interactividad para tener en cuenta la experiencia de usuario (UX) para tener un espacio en el que se&amp;nbsp; atraiga al usuario, mostrando lo que permite hacer la aplicación:&lt;br&gt;&lt;b&gt;Opciones abordadas:&lt;/b&gt;&lt;br&gt;Se contempla intro [animación o video] generado con IA para ser el guia.&lt;br&gt;Se contempla la opción de permitir crear entrevistas basicas sin haber hecho login, para incentivar el uso y registro de sesión.&lt;/p&gt;&lt;p&gt;&amp;nbsp;&lt;/p&gt;" style="text;html=1;strokeColor=none;fillColor=none;spacing=5;spacingTop=-20;whiteSpace=wrap;overflow=hidden;rounded=0;" parent="fmrnC86ueRESXoqnmyNB-5" vertex="1">
          <mxGeometry x="44" y="56" width="701" height="196" as="geometry" />
        </mxCell>
        <mxCell id="fmrnC86ueRESXoqnmyNB-7" value="ESPACIO ENTREVISTA" style="shape=umlFrame;whiteSpace=wrap;html=1;pointerEvents=0;recursiveResize=0;container=1;collapsible=0;width=160;strokeWidth=4;strokeColor=#FF0000;" parent="fmrnC86ueRESXoqnmyNB-1" vertex="1">
          <mxGeometry x="44" y="636" width="827" height="723" as="geometry" />
        </mxCell>
        <mxCell id="fmrnC86ueRESXoqnmyNB-8" value="ESPACIO CAPTURA DE DATOS" style="shape=umlFrame;whiteSpace=wrap;html=1;pointerEvents=0;recursiveResize=0;container=1;collapsible=0;width=160;strokeWidth=3;strokeColor=#FF0000;" parent="fmrnC86ueRESXoqnmyNB-7" vertex="1">
          <mxGeometry x="19" y="55" width="782" height="207" as="geometry" />
        </mxCell>
        <mxCell id="fmrnC86ueRESXoqnmyNB-9" value="Oferta Laboral (Formulario)" style="swimlane;whiteSpace=wrap;html=1;strokeColor=#FF0000;strokeWidth=2;" parent="fmrnC86ueRESXoqnmyNB-8" vertex="1">
          <mxGeometry x="359" y="17" width="200" height="167" as="geometry" />
        </mxCell>
        <mxCell id="fmrnC86ueRESXoqnmyNB-10" value="Oferta" style="strokeWidth=1;shadow=0;dashed=0;align=center;html=1;shape=mxgraph.mockup.containers.window;align=left;verticalAlign=top;spacingLeft=8;strokeColor2=#008cff;strokeColor3=#c4c4c4;fontColor=#666666;mainText=;fontSize=17;labelBackgroundColor=none;whiteSpace=wrap;" parent="fmrnC86ueRESXoqnmyNB-9" vertex="1">
          <mxGeometry x="5" y="35" width="192" height="126" as="geometry" />
        </mxCell>
        <mxCell id="fmrnC86ueRESXoqnmyNB-11" value="Agregar Oferta" style="html=1;shadow=0;dashed=0;shape=mxgraph.bootstrap.rrect;rSize=5;strokeColor=none;strokeWidth=1;fillColor=#DB2843;fontColor=#FFFFFF;whiteSpace=wrap;align=center;verticalAlign=middle;spacingLeft=0;fontStyle=0;fontSize=16;spacing=5;" parent="fmrnC86ueRESXoqnmyNB-9" vertex="1">
          <mxGeometry x="40" y="116" width="119" height="40" as="geometry" />
        </mxCell>
        <mxCell id="fmrnC86ueRESXoqnmyNB-12" value="Hoja de Vida (CV)" style="swimlane;whiteSpace=wrap;html=1;strokeColor=#FF0000;strokeWidth=2;" parent="fmrnC86ueRESXoqnmyNB-8" vertex="1">
          <mxGeometry x="37" y="39" width="200" height="146" as="geometry" />
        </mxCell>
        <mxCell id="fmrnC86ueRESXoqnmyNB-13" value="Subir CV" style="html=1;shadow=0;dashed=0;shape=mxgraph.bootstrap.rrect;rSize=5;strokeColor=none;strokeWidth=1;fillColor=#DB2843;fontColor=#FFFFFF;whiteSpace=wrap;align=center;verticalAlign=middle;spacingLeft=0;fontStyle=0;fontSize=16;spacing=5;" parent="fmrnC86ueRESXoqnmyNB-12" vertex="1">
          <mxGeometry x="40" y="86" width="119" height="40" as="geometry" />
        </mxCell>
        <mxCell id="fmrnC86ueRESXoqnmyNB-14" value="" style="sketch=0;aspect=fixed;pointerEvents=1;shadow=0;dashed=0;html=1;strokeColor=none;labelPosition=center;verticalLabelPosition=bottom;verticalAlign=top;align=center;fillColor=#CC0000;shape=mxgraph.azure.file" parent="fmrnC86ueRESXoqnmyNB-12" vertex="1">
          <mxGeometry x="71" y="34" width="47" height="50" as="geometry" />
        </mxCell>
        <mxCell id="fmrnC86ueRESXoqnmyNB-15" value="Generar Entrevista" style="html=1;shadow=0;dashed=0;shape=mxgraph.bootstrap.rrect;rSize=5;strokeColor=none;strokeWidth=1;fillColor=#DB2843;fontColor=#FFFFFF;whiteSpace=wrap;align=center;verticalAlign=middle;spacingLeft=0;fontStyle=0;fontSize=16;spacing=5;" parent="fmrnC86ueRESXoqnmyNB-8" vertex="1">
          <mxGeometry x="619" y="90" width="119" height="40" as="geometry" />
        </mxCell>
        <mxCell id="fmrnC86ueRESXoqnmyNB-16" value="ESPACIO PREGUNTAS&amp;nbsp;" style="shape=umlFrame;whiteSpace=wrap;html=1;pointerEvents=0;recursiveResize=0;container=1;collapsible=0;width=160;strokeWidth=3;strokeColor=#FF0000;" parent="fmrnC86ueRESXoqnmyNB-7" vertex="1">
          <mxGeometry x="19" y="282" width="782" height="197" as="geometry" />
        </mxCell>
        <mxCell id="fmrnC86ueRESXoqnmyNB-17" value="&lt;h1&gt;info&lt;/h1&gt;&lt;p&gt;Se requiere definir la interfaz en la que se va a mostrar las preguntas generadas por el &quot;Entrevistador&quot;, para que el usuario pueda dar sus respuestas, y luego enviarlas para obtener el feedback.&amp;nbsp;&amp;nbsp;&lt;/p&gt;&lt;p&gt;&amp;nbsp;&lt;/p&gt;" style="text;html=1;strokeColor=none;fillColor=none;spacing=5;spacingTop=-20;whiteSpace=wrap;overflow=hidden;rounded=0;" parent="fmrnC86ueRESXoqnmyNB-16" vertex="1">
          <mxGeometry x="25" y="60" width="327" height="120" as="geometry" />
        </mxCell>
        <mxCell id="fmrnC86ueRESXoqnmyNB-18" value="Preguntas de entrevista" style="swimlane;whiteSpace=wrap;html=1;strokeColor=#FF0000;strokeWidth=2;" parent="fmrnC86ueRESXoqnmyNB-16" vertex="1">
          <mxGeometry x="384" y="9" width="248" height="74" as="geometry" />
        </mxCell>
        <mxCell id="fmrnC86ueRESXoqnmyNB-19" value="Respuestas a entrevista" style="swimlane;whiteSpace=wrap;html=1;strokeColor=#FF0000;strokeWidth=2;" parent="fmrnC86ueRESXoqnmyNB-16" vertex="1">
          <mxGeometry x="384" y="104" width="247" height="81" as="geometry" />
        </mxCell>
        <mxCell id="fmrnC86ueRESXoqnmyNB-20" value="Responder Entrevista" style="html=1;shadow=0;dashed=0;shape=mxgraph.bootstrap.rrect;rSize=5;strokeColor=none;strokeWidth=1;fillColor=#DB2843;fontColor=#FFFFFF;whiteSpace=wrap;align=center;verticalAlign=middle;spacingLeft=0;fontStyle=0;fontSize=16;spacing=5;" parent="fmrnC86ueRESXoqnmyNB-16" vertex="1">
          <mxGeometry x="652" y="90" width="119" height="40" as="geometry" />
        </mxCell>
        <mxCell id="fmrnC86ueRESXoqnmyNB-21" value="ESPACIO FEEDBACK" style="shape=umlFrame;whiteSpace=wrap;html=1;pointerEvents=0;recursiveResize=0;container=1;collapsible=0;width=160;strokeWidth=3;strokeColor=#FF0000;" parent="fmrnC86ueRESXoqnmyNB-7" vertex="1">
          <mxGeometry x="19" y="502" width="782" height="197" as="geometry" />
        </mxCell>
        <mxCell id="fmrnC86ueRESXoqnmyNB-22" value="&lt;h1&gt;info&lt;/h1&gt;&lt;p&gt;Se requiere definir la interfaz grafica (diseño UI) y proponer la interactividad para tener cuenta experiencia de usuario (UX) para tener un espacio en el que se&amp;nbsp; muestre al usuario el feedback (retroalimentación) de lo que puede mejorar al momento de responder la entrevista, habilidades (skills / soft skills) que necesita reforzar, y otras recomendaciones que puedan sumarse.&lt;br&gt;&lt;br&gt;&lt;/p&gt;" style="text;html=1;strokeColor=none;fillColor=none;spacing=5;spacingTop=-20;whiteSpace=wrap;overflow=hidden;rounded=0;" parent="fmrnC86ueRESXoqnmyNB-21" vertex="1">
          <mxGeometry x="25" y="30" width="444" height="149.5" as="geometry" />
        </mxCell>
        <mxCell id="fmrnC86ueRESXoqnmyNB-23" value="BACK-END" style="swimlane;whiteSpace=wrap;html=1;strokeWidth=7;fontSize=31;startSize=100;strokeColor=#67AB9F;" parent="1" vertex="1">
          <mxGeometry x="928" y="-1064" width="5227" height="4477" as="geometry" />
        </mxCell>
        <mxCell id="fmrnC86ueRESXoqnmyNB-33" value="Preparador de Entrevista" style="swimlane;whiteSpace=wrap;html=1;strokeColor=#0000CC;strokeWidth=9;startSize=77;fontSize=25;align=center;" parent="fmrnC86ueRESXoqnmyNB-23" vertex="1">
          <mxGeometry x="4158" y="2045" width="666" height="562" as="geometry" />
        </mxCell>
        <mxCell id="fmrnC86ueRESXoqnmyNB-34" value="Generar preguntas" style="rounded=0;whiteSpace=wrap;html=1;fontSize=13;strokeColor=#0000FF;strokeWidth=2;" parent="fmrnC86ueRESXoqnmyNB-33" vertex="1">
          <mxGeometry x="20" y="132" width="120" height="60" as="geometry" />
        </mxCell>
        <mxCell id="fmrnC86ueRESXoqnmyNB-35" value="Acumular feedback" style="rounded=0;whiteSpace=wrap;html=1;fontSize=13;strokeColor=#0000FF;strokeWidth=2;" parent="fmrnC86ueRESXoqnmyNB-33" vertex="1">
          <mxGeometry x="204" y="303" width="120" height="60" as="geometry" />
        </mxCell>
        <mxCell id="fmrnC86ueRESXoqnmyNB-36" style="edgeStyle=orthogonalEdgeStyle;rounded=0;orthogonalLoop=1;jettySize=auto;html=1;strokeWidth=2;strokeColor=#0000FF;flowAnimation=1;" parent="fmrnC86ueRESXoqnmyNB-33" source="fmrnC86ueRESXoqnmyNB-37" target="fmrnC86ueRESXoqnmyNB-35" edge="1">
          <mxGeometry relative="1" as="geometry" />
        </mxCell>
        <mxCell id="fmrnC86ueRESXoqnmyNB-37" value="Analiza repuesta recibida y genera feedback" style="rounded=0;whiteSpace=wrap;html=1;fontSize=13;strokeColor=#0000FF;strokeWidth=2;" parent="fmrnC86ueRESXoqnmyNB-33" vertex="1">
          <mxGeometry x="204" y="205" width="120" height="60" as="geometry" />
        </mxCell>
        <mxCell id="fmrnC86ueRESXoqnmyNB-38" style="edgeStyle=orthogonalEdgeStyle;rounded=0;orthogonalLoop=1;jettySize=auto;html=1;entryX=0;entryY=0.5;entryDx=0;entryDy=0;strokeWidth=2;strokeColor=#0000FF;flowAnimation=1;" parent="fmrnC86ueRESXoqnmyNB-33" source="fmrnC86ueRESXoqnmyNB-39" target="fmrnC86ueRESXoqnmyNB-37" edge="1">
          <mxGeometry relative="1" as="geometry" />
        </mxCell>
        <mxCell id="fmrnC86ueRESXoqnmyNB-39" value="Capturar repuesta a pregunta" style="rounded=0;whiteSpace=wrap;html=1;fontSize=13;strokeColor=#0000FF;strokeWidth=2;" parent="fmrnC86ueRESXoqnmyNB-33" vertex="1">
          <mxGeometry x="24" y="263" width="120" height="60" as="geometry" />
        </mxCell>
        <mxCell id="fmrnC86ueRESXoqnmyNB-40" value="" style="shape=image;verticalLabelPosition=bottom;labelBackgroundColor=default;verticalAlign=top;aspect=fixed;imageAspect=0;image=https://hackernoon.imgix.net/images/VyvcKdbWHbTaN3QzRCQQS7pXASq1-y42k312q.png;" parent="fmrnC86ueRESXoqnmyNB-33" vertex="1">
          <mxGeometry x="11.63000000000011" y="19" width="144.75" height="42.94" as="geometry" />
        </mxCell>
        <mxCell id="fmrnC86ueRESXoqnmyNB-41" value="Analizar Empresas&lt;br style=&quot;font-size: 13px;&quot;&gt;(web Scraping)" style="rounded=0;whiteSpace=wrap;html=1;strokeColor=#0000FF;strokeWidth=2;fontSize=13;" parent="fmrnC86ueRESXoqnmyNB-33" vertex="1">
          <mxGeometry x="437" y="341" width="158" height="60" as="geometry" />
        </mxCell>
        <mxCell id="fmrnC86ueRESXoqnmyNB-42" style="edgeStyle=orthogonalEdgeStyle;rounded=0;orthogonalLoop=1;jettySize=auto;html=1;flowAnimation=1;" parent="fmrnC86ueRESXoqnmyNB-23" source="fmrnC86ueRESXoqnmyNB-43" target="fmrnC86ueRESXoqnmyNB-61" edge="1">
          <mxGeometry relative="1" as="geometry" />
        </mxCell>
        <mxCell id="fmrnC86ueRESXoqnmyNB-43" value="Analizador&lt;br&gt;&lt;span style=&quot;font-weight: normal;&quot;&gt;(Microservicio)&lt;/span&gt;" style="swimlane;whiteSpace=wrap;html=1;strokeWidth=9;strokeColor=#0000CC;startSize=79;fontSize=25;" parent="fmrnC86ueRESXoqnmyNB-23" vertex="1">
          <mxGeometry x="3007.5" y="222" width="796.5" height="738" as="geometry" />
        </mxCell>
        <mxCell id="fmrnC86ueRESXoqnmyNB-44" style="edgeStyle=orthogonalEdgeStyle;rounded=0;orthogonalLoop=1;jettySize=auto;html=1;entryX=1;entryY=0.5;entryDx=0;entryDy=0;strokeColor=#666666;flowAnimation=1;exitX=0.5;exitY=1;exitDx=0;exitDy=0;" parent="fmrnC86ueRESXoqnmyNB-43" source="fmrnC86ueRESXoqnmyNB-46" target="fmrnC86ueRESXoqnmyNB-54" edge="1">
          <mxGeometry relative="1" as="geometry">
            <Array as="points">
              <mxPoint x="264" y="204" />
              <mxPoint x="204" y="204" />
              <mxPoint x="204" y="241" />
            </Array>
          </mxGeometry>
        </mxCell>
        <mxCell id="fmrnC86ueRESXoqnmyNB-45" style="edgeStyle=orthogonalEdgeStyle;rounded=0;orthogonalLoop=1;jettySize=auto;html=1;entryX=0.25;entryY=0;entryDx=0;entryDy=0;" parent="fmrnC86ueRESXoqnmyNB-43" source="fmrnC86ueRESXoqnmyNB-46" target="fmrnC86ueRESXoqnmyNB-55" edge="1">
          <mxGeometry relative="1" as="geometry" />
        </mxCell>
        <mxCell id="fmrnC86ueRESXoqnmyNB-46" value="Analizar CV" style="rounded=0;whiteSpace=wrap;html=1;strokeColor=#0000FF;strokeWidth=2;fontSize=13;" parent="fmrnC86ueRESXoqnmyNB-43" vertex="1">
          <mxGeometry x="183" y="115" width="161" height="60" as="geometry" />
        </mxCell>
        <mxCell id="fmrnC86ueRESXoqnmyNB-47" style="edgeStyle=orthogonalEdgeStyle;rounded=0;orthogonalLoop=1;jettySize=auto;html=1;entryX=1;entryY=0.5;entryDx=0;entryDy=0;strokeColor=#666666;flowAnimation=1;exitX=0.5;exitY=0;exitDx=0;exitDy=0;" parent="fmrnC86ueRESXoqnmyNB-43" source="fmrnC86ueRESXoqnmyNB-49" target="fmrnC86ueRESXoqnmyNB-54" edge="1">
          <mxGeometry relative="1" as="geometry">
            <Array as="points">
              <mxPoint x="264" y="266" />
              <mxPoint x="205" y="266" />
              <mxPoint x="205" y="241" />
            </Array>
          </mxGeometry>
        </mxCell>
        <mxCell id="fmrnC86ueRESXoqnmyNB-48" style="edgeStyle=orthogonalEdgeStyle;rounded=0;orthogonalLoop=1;jettySize=auto;html=1;entryX=0.25;entryY=1;entryDx=0;entryDy=0;" parent="fmrnC86ueRESXoqnmyNB-43" source="fmrnC86ueRESXoqnmyNB-49" target="fmrnC86ueRESXoqnmyNB-55" edge="1">
          <mxGeometry relative="1" as="geometry" />
        </mxCell>
        <mxCell id="fmrnC86ueRESXoqnmyNB-49" value="Analizar Oferta de empleo" style="rounded=0;whiteSpace=wrap;html=1;strokeColor=#0000FF;strokeWidth=2;fontSize=13;" parent="fmrnC86ueRESXoqnmyNB-43" vertex="1">
          <mxGeometry x="185" y="299" width="160" height="60" as="geometry" />
        </mxCell>
        <mxCell id="fmrnC86ueRESXoqnmyNB-50" style="edgeStyle=orthogonalEdgeStyle;rounded=0;orthogonalLoop=1;jettySize=auto;html=1;entryX=0;entryY=0.5;entryDx=0;entryDy=0;flowAnimation=1;strokeColor=#3333FF;strokeWidth=2;" parent="fmrnC86ueRESXoqnmyNB-43" source="fmrnC86ueRESXoqnmyNB-54" target="fmrnC86ueRESXoqnmyNB-46" edge="1">
          <mxGeometry relative="1" as="geometry">
            <Array as="points">
              <mxPoint x="90" y="145" />
            </Array>
          </mxGeometry>
        </mxCell>
        <mxCell id="fmrnC86ueRESXoqnmyNB-51" value="Async" style="edgeLabel;html=1;align=center;verticalAlign=middle;resizable=0;points=[];" parent="fmrnC86ueRESXoqnmyNB-50" vertex="1" connectable="0">
          <mxGeometry x="0.4618" y="2" relative="1" as="geometry">
            <mxPoint as="offset" />
          </mxGeometry>
        </mxCell>
        <mxCell id="fmrnC86ueRESXoqnmyNB-52" style="edgeStyle=orthogonalEdgeStyle;rounded=0;orthogonalLoop=1;jettySize=auto;html=1;entryX=0;entryY=0.5;entryDx=0;entryDy=0;strokeColor=#3333FF;flowAnimation=1;strokeWidth=2;" parent="fmrnC86ueRESXoqnmyNB-43" source="fmrnC86ueRESXoqnmyNB-54" target="fmrnC86ueRESXoqnmyNB-49" edge="1">
          <mxGeometry relative="1" as="geometry">
            <Array as="points">
              <mxPoint x="90" y="329" />
            </Array>
          </mxGeometry>
        </mxCell>
        <mxCell id="fmrnC86ueRESXoqnmyNB-53" value="Async" style="edgeLabel;html=1;align=center;verticalAlign=middle;resizable=0;points=[];" parent="fmrnC86ueRESXoqnmyNB-52" vertex="1" connectable="0">
          <mxGeometry x="0.5637" y="-2" relative="1" as="geometry">
            <mxPoint as="offset" />
          </mxGeometry>
        </mxCell>
        <mxCell id="fmrnC86ueRESXoqnmyNB-54" value="Analizar CV y Oferta" style="rounded=0;whiteSpace=wrap;html=1;strokeColor=#0000FF;strokeWidth=2;fontSize=13;" parent="fmrnC86ueRESXoqnmyNB-43" vertex="1">
          <mxGeometry x="47" y="211" width="126.62" height="60" as="geometry" />
        </mxCell>
        <mxCell id="fmrnC86ueRESXoqnmyNB-55" value="Verificar validez de CV y Oferta" style="rounded=0;whiteSpace=wrap;html=1;strokeColor=#0000FF;strokeWidth=2;fontSize=13;" parent="fmrnC86ueRESXoqnmyNB-43" vertex="1">
          <mxGeometry x="406" y="225" width="158" height="60" as="geometry" />
        </mxCell>
        <mxCell id="fmrnC86ueRESXoqnmyNB-56" value="" style="shape=image;verticalLabelPosition=bottom;labelBackgroundColor=default;verticalAlign=top;aspect=fixed;imageAspect=0;image=https://hackernoon.imgix.net/images/VyvcKdbWHbTaN3QzRCQQS7pXASq1-y42k312q.png;" parent="fmrnC86ueRESXoqnmyNB-43" vertex="1">
          <mxGeometry x="24" y="11" width="144.75" height="42.94" as="geometry" />
        </mxCell>
        <mxCell id="fmrnC86ueRESXoqnmyNB-57" value="" style="group;strokeWidth=1;" parent="fmrnC86ueRESXoqnmyNB-23" vertex="1" connectable="0">
          <mxGeometry x="3401" y="3830" width="665" height="537" as="geometry" />
        </mxCell>
        <mxCell id="fmrnC86ueRESXoqnmyNB-58" value="«LLM»&lt;br style=&quot;font-size: 25px;&quot;&gt;&lt;b style=&quot;font-size: 25px;&quot;&gt;Component&lt;/b&gt;" style="html=1;dropTarget=0;whiteSpace=wrap;verticalAlign=top;container=1;strokeWidth=9;strokeColor=#330066;fontSize=25;" parent="fmrnC86ueRESXoqnmyNB-57" vertex="1">
          <mxGeometry width="665" height="537" as="geometry" />
        </mxCell>
        <mxCell id="fmrnC86ueRESXoqnmyNB-59" value="" style="shape=module;jettyWidth=8;jettyHeight=4;" parent="fmrnC86ueRESXoqnmyNB-58" vertex="1">
          <mxGeometry x="1" width="20" height="20" relative="1" as="geometry">
            <mxPoint x="-27" y="7" as="offset" />
          </mxGeometry>
        </mxCell>
        <mxCell id="fmrnC86ueRESXoqnmyNB-60" value="" style="shape=image;verticalLabelPosition=bottom;labelBackgroundColor=default;verticalAlign=top;aspect=fixed;imageAspect=0;image=https://thumbs.dreamstime.com/b/ilustraci%C3%B3n-de-modelo-lenguaje-grande-inteligencia-artificial-para-el-entendimiento-del-natural-280268740.jpg;imageBorder=#000066;strokeWidth=4;" parent="fmrnC86ueRESXoqnmyNB-57" vertex="1">
          <mxGeometry x="140.15053763440858" y="77.97534246575341" width="401.94977168949777" height="401.94977168949777" as="geometry" />
        </mxCell>
        <mxCell id="fmrnC86ueRESXoqnmyNB-61" value="Analizar Oferta y CV" style="shape=mxgraph.uml25.action;html=1;align=center;verticalAlign=middle;absoluteArcSize=1;arcSize=10;dashed=0;spacingLeft=10;flipH=1;whiteSpace=wrap;strokeWidth=4;fontSize=15;fontStyle=1" parent="fmrnC86ueRESXoqnmyNB-23" vertex="1">
          <mxGeometry x="2834" y="1704" width="172" height="83" as="geometry" />
        </mxCell>
        <mxCell id="fmrnC86ueRESXoqnmyNB-62" value="state" style="text;verticalAlign=middle;align=right;html=1;fontSize=15;" parent="fmrnC86ueRESXoqnmyNB-61" vertex="1">
          <mxGeometry x="-93.82" y="36" width="93.82" height="47" as="geometry" />
        </mxCell>
        <mxCell id="fmrnC86ueRESXoqnmyNB-63" value="Event" style="text;html=1;strokeColor=none;fillColor=none;align=center;verticalAlign=middle;whiteSpace=wrap;rounded=0;" parent="fmrnC86ueRESXoqnmyNB-61" vertex="1">
          <mxGeometry x="9" y="2" width="60" height="30" as="geometry" />
        </mxCell>
        <mxCell id="fmrnC86ueRESXoqnmyNB-65" value="&lt;h1&gt;info&lt;/h1&gt;&lt;p&gt;Se requiere supervisión de eventos, para determinar estado del procesado de la entrevista&lt;/p&gt;" style="text;html=1;strokeColor=none;fillColor=none;spacing=5;spacingTop=-20;whiteSpace=wrap;overflow=hidden;rounded=0;" parent="fmrnC86ueRESXoqnmyNB-23" vertex="1">
          <mxGeometry x="2575" y="1573" width="264" height="131" as="geometry" />
        </mxCell>
        <mxCell id="fmrnC86ueRESXoqnmyNB-66" style="edgeStyle=orthogonalEdgeStyle;rounded=0;orthogonalLoop=1;jettySize=auto;html=1;entryX=0;entryY=0.5;entryDx=0;entryDy=0;strokeWidth=3;strokeColor=#00CC00;flowAnimation=1;" parent="fmrnC86ueRESXoqnmyNB-23" target="fmrnC86ueRESXoqnmyNB-54" edge="1">
          <mxGeometry relative="1" as="geometry">
            <mxPoint x="1381" y="1440.034482758621" as="sourcePoint" />
          </mxGeometry>
        </mxCell>
        <mxCell id="fmrnC86ueRESXoqnmyNB-67" value="HTTP" style="edgeLabel;html=1;align=center;verticalAlign=middle;resizable=0;points=[];" parent="fmrnC86ueRESXoqnmyNB-66" vertex="1" connectable="0">
          <mxGeometry x="0.905" y="2" relative="1" as="geometry">
            <mxPoint x="-27" y="-12" as="offset" />
          </mxGeometry>
        </mxCell>
        <mxCell id="fmrnC86ueRESXoqnmyNB-69" value="State1" style="shape=umlState;rounded=1;verticalAlign=middle;align=center;absoluteArcSize=1;arcSize=10;umlStateConnection=connPointRefEntry;boundedLbl=1;whiteSpace=wrap;html=1;" parent="fmrnC86ueRESXoqnmyNB-23" vertex="1">
          <mxGeometry x="3242" y="1919" width="140" height="50" as="geometry" />
        </mxCell>
        <mxCell id="fmrnC86ueRESXoqnmyNB-70" value="Entry1" style="text;verticalAlign=middle;align=center;whiteSpace=wrap;html=1;" parent="fmrnC86ueRESXoqnmyNB-69" vertex="1">
          <mxGeometry x="-40" y="40" width="50" height="20" as="geometry" />
        </mxCell>
        <mxCell id="fmrnC86ueRESXoqnmyNB-72" style="edgeStyle=orthogonalEdgeStyle;rounded=0;orthogonalLoop=1;jettySize=auto;html=1;entryX=0.5;entryY=0;entryDx=0;entryDy=0;strokeColor=#009900;strokeWidth=4;flowAnimation=1;" parent="fmrnC86ueRESXoqnmyNB-23" source="fmrnC86ueRESXoqnmyNB-73" target="fmrnC86ueRESXoqnmyNB-58" edge="1">
          <mxGeometry relative="1" as="geometry" />
        </mxCell>
        <mxCell id="fmrnC86ueRESXoqnmyNB-73" value="Generador de Feedback&lt;br&gt;(microservicio)" style="swimlane;whiteSpace=wrap;html=1;strokeWidth=9;strokeColor=#009900;startSize=89;fontSize=25;" parent="fmrnC86ueRESXoqnmyNB-23" vertex="1">
          <mxGeometry x="3018" y="2838" width="827" height="653" as="geometry" />
        </mxCell>
        <mxCell id="fmrnC86ueRESXoqnmyNB-74" value="Generar feedback Completo" style="rounded=0;whiteSpace=wrap;html=1;strokeColor=#009900;strokeWidth=2;fontStyle=1;fontSize=14;" parent="fmrnC86ueRESXoqnmyNB-73" vertex="1">
          <mxGeometry x="24" y="145.25" width="274.5" height="111.75" as="geometry" />
        </mxCell>
        <mxCell id="fmrnC86ueRESXoqnmyNB-75" value="" style="shape=image;verticalLabelPosition=bottom;labelBackgroundColor=default;verticalAlign=top;aspect=fixed;imageAspect=0;image=https://bgasparotto.com/wp-content/uploads/2017/12/spring-boot-logo.png;" parent="fmrnC86ueRESXoqnmyNB-73" vertex="1">
          <mxGeometry x="6" y="24" width="119.04" height="62.5" as="geometry" />
        </mxCell>
        <mxCell id="fmrnC86ueRESXoqnmyNB-76" value="Action1" style="shape=mxgraph.uml25.action;html=1;align=center;verticalAlign=middle;absoluteArcSize=1;arcSize=10;dashed=0;spacingLeft=10;flipH=1;whiteSpace=wrap;" parent="fmrnC86ueRESXoqnmyNB-23" vertex="1">
          <mxGeometry x="3134" y="2315" width="172" height="83" as="geometry" />
        </mxCell>
        <mxCell id="fmrnC86ueRESXoqnmyNB-77" value="value1" style="text;verticalAlign=middle;align=right;html=1;" parent="fmrnC86ueRESXoqnmyNB-76" vertex="1">
          <mxGeometry x="-93.81818181818183" width="93.81818181818183" height="83" as="geometry" />
        </mxCell>
        <mxCell id="fmrnC86ueRESXoqnmyNB-78" value="Recopilador de información&lt;br&gt;(Microservicio)" style="swimlane;whiteSpace=wrap;html=1;strokeColor=#0000CC;strokeWidth=9;startSize=103;fontSize=25;align=center;" parent="fmrnC86ueRESXoqnmyNB-23" vertex="1">
          <mxGeometry x="4281" y="902" width="666" height="562" as="geometry" />
        </mxCell>
        <mxCell id="fmrnC86ueRESXoqnmyNB-79" value="Web Scrapping" style="rounded=0;whiteSpace=wrap;html=1;fontSize=13;strokeColor=#0000FF;strokeWidth=2;" parent="fmrnC86ueRESXoqnmyNB-78" vertex="1">
          <mxGeometry x="54" y="181" width="181" height="60" as="geometry" />
        </mxCell>
        <mxCell id="fmrnC86ueRESXoqnmyNB-80" value="" style="shape=image;verticalLabelPosition=bottom;labelBackgroundColor=default;verticalAlign=top;aspect=fixed;imageAspect=0;image=https://hackernoon.imgix.net/images/VyvcKdbWHbTaN3QzRCQQS7pXASq1-y42k312q.png;" parent="fmrnC86ueRESXoqnmyNB-78" vertex="1">
          <mxGeometry x="11.63000000000011" y="19" width="144.75" height="42.94" as="geometry" />
        </mxCell>
        <mxCell id="MMBDNyzYMdrIuKqSOUde-1" value="&lt;span style=&quot;font-weight: normal; font-size: 14px;&quot;&gt;&lt;i style=&quot;font-size: 14px;&quot;&gt;&amp;lt;&amp;lt;Microservicio&amp;gt;&amp;gt;&lt;/i&gt;&lt;/span&gt;&lt;br style=&quot;font-size: 14px;&quot;&gt;Api GateWay" style="swimlane;whiteSpace=wrap;html=1;startSize=52;strokeWidth=7;strokeColor=#00CC00;fontSize=14;" parent="fmrnC86ueRESXoqnmyNB-23" vertex="1">
          <mxGeometry x="91" y="1530" width="334" height="517" as="geometry" />
        </mxCell>
        <mxCell id="MMBDNyzYMdrIuKqSOUde-2" value="" style="shape=image;verticalLabelPosition=bottom;labelBackgroundColor=default;verticalAlign=top;aspect=fixed;imageAspect=0;image=https://bgasparotto.com/wp-content/uploads/2017/12/spring-boot-logo.png;" parent="MMBDNyzYMdrIuKqSOUde-1" vertex="1">
          <mxGeometry x="9" y="8" width="72.37" height="38" as="geometry" />
        </mxCell>
        <mxCell id="MMBDNyzYMdrIuKqSOUde-3" value="&lt;p style=&quot;margin:0px;margin-top:6px;text-align:center;&quot;&gt;&lt;b&gt;GateWay&lt;/b&gt;&lt;/p&gt;" style="align=left;overflow=fill;html=1;dropTarget=0;whiteSpace=wrap;strokeWidth=4;strokeColor=#006633;" parent="MMBDNyzYMdrIuKqSOUde-1" vertex="1">
          <mxGeometry x="26" y="59" width="280" height="371" as="geometry" />
        </mxCell>
        <mxCell id="MMBDNyzYMdrIuKqSOUde-4" value="" style="shape=component;jettyWidth=8;jettyHeight=4;" parent="MMBDNyzYMdrIuKqSOUde-3" vertex="1">
          <mxGeometry x="1" width="20" height="20" relative="1" as="geometry">
            <mxPoint x="-24" y="4" as="offset" />
          </mxGeometry>
        </mxCell>
        <mxCell id="K1pWm1xC70DweVqvnHf--1" value="Authentication" style="shape=module;align=left;spacingLeft=20;align=center;verticalAlign=top;whiteSpace=wrap;html=1;" parent="MMBDNyzYMdrIuKqSOUde-1" vertex="1">
          <mxGeometry x="44" y="104" width="230" height="50" as="geometry" />
        </mxCell>
        <mxCell id="MMBDNyzYMdrIuKqSOUde-6" style="edgeStyle=orthogonalEdgeStyle;rounded=0;orthogonalLoop=1;jettySize=auto;html=1;strokeWidth=3;strokeColor=#003300;entryX=0;entryY=0.5;entryDx=0;entryDy=0;" parent="fmrnC86ueRESXoqnmyNB-23" source="MMBDNyzYMdrIuKqSOUde-3" target="2EGIqap7ebJF0vIyUX9R-1" edge="1">
          <mxGeometry relative="1" as="geometry">
            <mxPoint x="879" y="1442" as="targetPoint" />
          </mxGeometry>
        </mxCell>
        <mxCell id="5kAP_t7aSkS64rp_F4Px-1" value="AKS" style="swimlane;whiteSpace=wrap;html=1;startSize=73;strokeWidth=7;fontSize=25;strokeColor=#7EA6E0;" parent="fmrnC86ueRESXoqnmyNB-23" vertex="1">
          <mxGeometry x="720" y="135" width="4333" height="4297" as="geometry" />
        </mxCell>
        <mxCell id="fmrnC86ueRESXoqnmyNB-24" value="Orquestador &lt;br style=&quot;font-size: 25px;&quot;&gt;(Microservicio)" style="swimlane;whiteSpace=wrap;html=1;strokeWidth=8;strokeColor=#009900;startSize=89;align=center;fontSize=25;" parent="5kAP_t7aSkS64rp_F4Px-1" vertex="1">
          <mxGeometry x="132" y="1078" width="768" height="1266" as="geometry" />
        </mxCell>
        <mxCell id="fmrnC86ueRESXoqnmyNB-26" value="" style="shape=image;verticalLabelPosition=bottom;labelBackgroundColor=default;verticalAlign=top;aspect=fixed;imageAspect=0;image=https://bgasparotto.com/wp-content/uploads/2017/12/spring-boot-logo.png;" parent="fmrnC86ueRESXoqnmyNB-24" vertex="1">
          <mxGeometry x="12" y="18" width="119.04" height="62.5" as="geometry" />
        </mxCell>
        <mxCell id="2EGIqap7ebJF0vIyUX9R-1" value="&lt;p style=&quot;text-align: center; margin: 6px 0px 0px; font-size: 15px;&quot;&gt;&lt;b style=&quot;font-size: 15px;&quot;&gt;ANALIZAR CV Y OFERTA&lt;br style=&quot;font-size: 15px;&quot;&gt;&lt;/b&gt;&lt;/p&gt;&lt;hr style=&quot;font-size: 15px;&quot;&gt;&lt;p style=&quot;margin: 0px 0px 0px 8px; font-size: 15px;&quot;&gt;&amp;nbsp;&lt;/p&gt;" style="align=left;overflow=fill;html=1;dropTarget=0;whiteSpace=wrap;strokeWidth=4;strokeColor=#006600;fontSize=15;" parent="fmrnC86ueRESXoqnmyNB-24" vertex="1">
          <mxGeometry x="43" y="165" width="688" height="122" as="geometry" />
        </mxCell>
        <mxCell id="2EGIqap7ebJF0vIyUX9R-2" value="" style="shape=component;jettyWidth=8;jettyHeight=4;" parent="2EGIqap7ebJF0vIyUX9R-1" vertex="1">
          <mxGeometry x="1" width="20" height="20" relative="1" as="geometry">
            <mxPoint x="-24" y="4" as="offset" />
          </mxGeometry>
        </mxCell>
        <mxCell id="fmrnC86ueRESXoqnmyNB-30" value="POST" style="text;html=1;strokeColor=none;fillColor=none;align=center;verticalAlign=middle;whiteSpace=wrap;rounded=0;fontStyle=1;fontColor=#006600;fontSize=19;" parent="fmrnC86ueRESXoqnmyNB-24" vertex="1">
          <mxGeometry x="86" y="171" width="62" height="23" as="geometry" />
        </mxCell>
        <mxCell id="2EGIqap7ebJF0vIyUX9R-3" value="Exceptions&lt;br&gt;&lt;br&gt;Si no es valida la info de CV o de la oferta debe notificar" style="rounded=0;whiteSpace=wrap;html=1;strokeColor=#CC6600;" parent="fmrnC86ueRESXoqnmyNB-24" vertex="1">
          <mxGeometry x="553" y="212.08999999999997" width="170" height="60" as="geometry" />
        </mxCell>
        <mxCell id="fmrnC86ueRESXoqnmyNB-31" value="&lt;b&gt;&lt;font color=&quot;#666666&quot;&gt;/api/v1/entrevistador/orquestador/analizar&lt;/font&gt;&lt;/b&gt;" style="text;html=1;strokeColor=none;fillColor=none;align=center;verticalAlign=middle;whiteSpace=wrap;rounded=0;fontStyle=2" parent="fmrnC86ueRESXoqnmyNB-24" vertex="1">
          <mxGeometry x="82" y="199" width="270" height="25" as="geometry" />
        </mxCell>
        <mxCell id="ISQDp1Ga7r71KN2fk23g-1" value="&lt;p style=&quot;margin: 6px 0px 0px; text-align: center; font-size: 15px;&quot;&gt;&lt;b style=&quot;font-size: 15px;&quot;&gt;ESTADO ENTREVISTA&lt;/b&gt;&lt;/p&gt;&lt;hr style=&quot;font-size: 15px;&quot;&gt;&lt;p style=&quot;margin: 0px 0px 0px 8px; font-size: 15px;&quot;&gt;&lt;font style=&quot;font-size: 15px;&quot;&gt;+ Actualizar Estado&amp;nbsp;&lt;/font&gt;&lt;/p&gt;" style="align=left;overflow=fill;html=1;dropTarget=0;whiteSpace=wrap;strokeWidth=4;strokeColor=#006600;fontSize=15;" parent="fmrnC86ueRESXoqnmyNB-24" vertex="1">
          <mxGeometry x="43" y="395" width="689" height="126" as="geometry" />
        </mxCell>
        <mxCell id="ISQDp1Ga7r71KN2fk23g-2" value="" style="shape=component;jettyWidth=8;jettyHeight=4;" parent="ISQDp1Ga7r71KN2fk23g-1" vertex="1">
          <mxGeometry x="1" width="20" height="20" relative="1" as="geometry">
            <mxPoint x="-24" y="4" as="offset" />
          </mxGeometry>
        </mxCell>
        <mxCell id="k2kJFTLUXrgiDyawM2Qj-1" value="&lt;p style=&quot;margin: 6px 0px 0px; text-align: center; font-size: 15px;&quot;&gt;&lt;b style=&quot;font-size: 15px;&quot;&gt;GENERAR ENTREVISTA&lt;/b&gt;&lt;/p&gt;&lt;hr style=&quot;font-size: 15px;&quot;&gt;&lt;p style=&quot;margin: 0px 0px 0px 8px; font-size: 15px;&quot;&gt;&lt;br style=&quot;font-size: 15px;&quot;&gt;&lt;/p&gt;" style="align=left;overflow=fill;html=1;dropTarget=0;whiteSpace=wrap;strokeWidth=4;strokeColor=#006600;fontSize=15;" parent="fmrnC86ueRESXoqnmyNB-24" vertex="1">
          <mxGeometry x="43" y="612" width="684" height="129" as="geometry" />
        </mxCell>
        <mxCell id="k2kJFTLUXrgiDyawM2Qj-2" value="" style="shape=component;jettyWidth=8;jettyHeight=4;" parent="k2kJFTLUXrgiDyawM2Qj-1" vertex="1">
          <mxGeometry x="1" width="20" height="20" relative="1" as="geometry">
            <mxPoint x="-24" y="4" as="offset" />
          </mxGeometry>
        </mxCell>
        <mxCell id="2OH-y4sVAJfx7NrgXaBw-1" value="&lt;p style=&quot;margin: 6px 0px 0px; text-align: center; font-size: 15px;&quot;&gt;&lt;b style=&quot;font-size: 15px;&quot;&gt;RESPONDER ENTREVISTA&lt;/b&gt;&lt;/p&gt;&lt;hr style=&quot;font-size: 15px;&quot;&gt;&lt;p style=&quot;margin: 0px 0px 0px 8px; font-size: 15px;&quot;&gt;&lt;br style=&quot;font-size: 15px;&quot;&gt;&lt;/p&gt;" style="align=left;overflow=fill;html=1;dropTarget=0;whiteSpace=wrap;strokeWidth=4;strokeColor=#006600;fontSize=15;" parent="fmrnC86ueRESXoqnmyNB-24" vertex="1">
          <mxGeometry x="43" y="821" width="683" height="114" as="geometry" />
        </mxCell>
        <mxCell id="2OH-y4sVAJfx7NrgXaBw-2" value="" style="shape=component;jettyWidth=8;jettyHeight=4;" parent="2OH-y4sVAJfx7NrgXaBw-1" vertex="1">
          <mxGeometry x="1" width="20" height="20" relative="1" as="geometry">
            <mxPoint x="-24" y="4" as="offset" />
          </mxGeometry>
        </mxCell>
        <mxCell id="NdC9C3f3Bnexeq6b3k_E-1" value="&lt;p style=&quot;margin: 6px 0px 0px; text-align: center; font-size: 15px;&quot;&gt;&lt;b style=&quot;font-size: 15px;&quot;&gt;GENERAR FEEDBACK&lt;/b&gt;&lt;/p&gt;&lt;hr style=&quot;font-size: 15px;&quot;&gt;&lt;p style=&quot;margin: 0px 0px 0px 8px; font-size: 15px;&quot;&gt;&lt;br style=&quot;font-size: 15px;&quot;&gt;&lt;/p&gt;" style="align=left;overflow=fill;html=1;dropTarget=0;whiteSpace=wrap;strokeWidth=4;strokeColor=#006600;fontSize=15;" parent="fmrnC86ueRESXoqnmyNB-24" vertex="1">
          <mxGeometry x="43" y="1023" width="682" height="122" as="geometry" />
        </mxCell>
        <mxCell id="NdC9C3f3Bnexeq6b3k_E-2" value="" style="shape=component;jettyWidth=8;jettyHeight=4;" parent="NdC9C3f3Bnexeq6b3k_E-1" vertex="1">
          <mxGeometry x="1" width="20" height="20" relative="1" as="geometry">
            <mxPoint x="-24" y="4" as="offset" />
          </mxGeometry>
        </mxCell>
        <mxCell id="fmrnC86ueRESXoqnmyNB-81" value="&lt;b style=&quot;font-size: 19px;&quot;&gt;&lt;i style=&quot;font-size: 19px;&quot;&gt;Tecnologías&lt;/i&gt;&lt;/b&gt;&lt;br style=&quot;font-size: 19px;&quot;&gt;&lt;br style=&quot;font-size: 19px;&quot;&gt;SpringBoot 3&lt;br style=&quot;font-size: 19px;&quot;&gt;Java 17&lt;br style=&quot;font-size: 19px;&quot;&gt;Angular 17&lt;br style=&quot;font-size: 19px;&quot;&gt;Python" style="text;html=1;strokeColor=default;fillColor=none;align=left;verticalAlign=top;whiteSpace=wrap;rounded=0;fontSize=19;labelBackgroundColor=none;strokeWidth=1;dashed=1;" parent="1" vertex="1">
          <mxGeometry x="-721" y="-887" width="439" height="180" as="geometry" />
        </mxCell>
        <mxCell id="fmrnC86ueRESXoqnmyNB-84" value="«Authentication»&lt;br&gt;" style="html=1;dropTarget=0;whiteSpace=wrap;strokeWidth=4;dashed=1;strokeColor=#3333FF;dashPattern=1 1;align=center;verticalAlign=top;" parent="1" vertex="1">
          <mxGeometry x="114" y="-134" width="265" height="107" as="geometry" />
        </mxCell>
        <mxCell id="fmrnC86ueRESXoqnmyNB-85" value="" style="shape=module;jettyWidth=8;jettyHeight=4;" parent="fmrnC86ueRESXoqnmyNB-84" vertex="1">
          <mxGeometry x="1" width="20" height="20" relative="1" as="geometry">
            <mxPoint x="-27" y="7" as="offset" />
          </mxGeometry>
        </mxCell>
        <mxCell id="fmrnC86ueRESXoqnmyNB-86" style="edgeStyle=orthogonalEdgeStyle;rounded=0;orthogonalLoop=1;jettySize=auto;html=1;entryX=0.5;entryY=0;entryDx=0;entryDy=0;strokeWidth=3;strokeColor=#3333FF;flowAnimation=1;" parent="1" source="fmrnC86ueRESXoqnmyNB-87" target="fmrnC86ueRESXoqnmyNB-84" edge="1">
          <mxGeometry relative="1" as="geometry" />
        </mxCell>
        <mxCell id="fmrnC86ueRESXoqnmyNB-87" value="POSIBLES OPCIONES" style="swimlane;whiteSpace=wrap;html=1;strokeColor=#3333FF;strokeWidth=3;align=left;" parent="1" vertex="1">
          <mxGeometry x="-94.5" y="-408" width="681.5" height="152" as="geometry" />
        </mxCell>
        <mxCell id="fmrnC86ueRESXoqnmyNB-88" value="" style="group;strokeWidth=3;" parent="fmrnC86ueRESXoqnmyNB-87" vertex="1" connectable="0">
          <mxGeometry x="32" y="30.5" width="156" height="89" as="geometry" />
        </mxCell>
        <mxCell id="fmrnC86ueRESXoqnmyNB-89" value="" style="rounded=1;whiteSpace=wrap;html=1;container=1;" parent="fmrnC86ueRESXoqnmyNB-88" vertex="1">
          <mxGeometry width="156" height="89" as="geometry" />
        </mxCell>
        <mxCell id="fmrnC86ueRESXoqnmyNB-90" value="" style="dashed=0;outlineConnect=0;html=1;align=center;labelPosition=center;verticalLabelPosition=bottom;verticalAlign=top;shape=mxgraph.webicons.linkedin;fillColor=#0095DB;gradientColor=#006391" parent="fmrnC86ueRESXoqnmyNB-88" vertex="1">
          <mxGeometry x="75.5" y="31" width="57" height="55" as="geometry" />
        </mxCell>
        <mxCell id="fmrnC86ueRESXoqnmyNB-91" value="API" style="text;html=1;strokeColor=none;fillColor=none;align=center;verticalAlign=middle;whiteSpace=wrap;rounded=0;fontStyle=1;fontColor=#3333FF;" parent="fmrnC86ueRESXoqnmyNB-88" vertex="1">
          <mxGeometry x="19" y="12" width="60" height="30" as="geometry" />
        </mxCell>
        <mxCell id="fmrnC86ueRESXoqnmyNB-92" value="" style="rounded=1;whiteSpace=wrap;html=1;container=1;" parent="fmrnC86ueRESXoqnmyNB-87" vertex="1">
          <mxGeometry x="220" y="30.5" width="156" height="89" as="geometry" />
        </mxCell>
        <mxCell id="fmrnC86ueRESXoqnmyNB-93" value="" style="verticalLabelPosition=bottom;html=1;verticalAlign=top;align=center;strokeColor=none;fillColor=#00BEF2;shape=mxgraph.azure.github_code;pointerEvents=1;" parent="fmrnC86ueRESXoqnmyNB-92" vertex="1">
          <mxGeometry x="90" y="33.5" width="50" height="50" as="geometry" />
        </mxCell>
        <mxCell id="fmrnC86ueRESXoqnmyNB-94" value="API" style="text;html=1;strokeColor=none;fillColor=none;align=center;verticalAlign=middle;whiteSpace=wrap;rounded=0;fontStyle=1;fontColor=#3333FF;" parent="fmrnC86ueRESXoqnmyNB-92" vertex="1">
          <mxGeometry x="14" y="12" width="60" height="30" as="geometry" />
        </mxCell>
        <mxCell id="fmrnC86ueRESXoqnmyNB-95" value="" style="rounded=1;whiteSpace=wrap;html=1;container=1;" parent="fmrnC86ueRESXoqnmyNB-87" vertex="1">
          <mxGeometry x="410.5" y="34" width="156" height="89" as="geometry" />
        </mxCell>
        <mxCell id="fmrnC86ueRESXoqnmyNB-96" value="API" style="text;html=1;strokeColor=none;fillColor=none;align=center;verticalAlign=middle;whiteSpace=wrap;rounded=0;fontStyle=1;fontColor=#3333FF;" parent="fmrnC86ueRESXoqnmyNB-95" vertex="1">
          <mxGeometry x="14" y="12" width="60" height="30" as="geometry" />
        </mxCell>
        <mxCell id="fmrnC86ueRESXoqnmyNB-97" value="" style="shape=image;verticalLabelPosition=bottom;labelBackgroundColor=default;verticalAlign=top;aspect=fixed;imageAspect=0;image=https://static-00.iconduck.com/assets.00/google-icon-2048x2048-czn3g8x8.png;" parent="fmrnC86ueRESXoqnmyNB-95" vertex="1">
          <mxGeometry x="90" y="38.5" width="42.5" height="42.5" as="geometry" />
        </mxCell>
        <mxCell id="fmrnC86ueRESXoqnmyNB-98" style="edgeStyle=orthogonalEdgeStyle;rounded=0;orthogonalLoop=1;jettySize=auto;html=1;strokeWidth=3;dashed=1;dashPattern=1 2;strokeColor=#B3B3B3;curved=1;entryX=0;entryY=0.5;entryDx=0;entryDy=0;" parent="1" source="fmrnC86ueRESXoqnmyNB-99" target="fmrnC86ueRESXoqnmyNB-89" edge="1">
          <mxGeometry relative="1" as="geometry" />
        </mxCell>
        <mxCell id="fmrnC86ueRESXoqnmyNB-99" value="&lt;h1&gt;info&lt;/h1&gt;&lt;p&gt;Con LinkedIn ya obtendriamos detalles de el CV,&amp;nbsp; del usuario, facilitaria procesado con LLM, y generación de Entrevista&lt;/p&gt;" style="text;html=1;strokeColor=none;fillColor=none;spacing=5;spacingTop=-20;whiteSpace=wrap;overflow=hidden;rounded=0;" parent="1" vertex="1">
          <mxGeometry x="-394" y="-505" width="190" height="120" as="geometry" />
        </mxCell>
        <mxCell id="fmrnC86ueRESXoqnmyNB-100" style="edgeStyle=orthogonalEdgeStyle;rounded=0;orthogonalLoop=1;jettySize=auto;html=1;strokeWidth=3;dashed=1;dashPattern=1 1;strokeColor=#B3B3B3;curved=1;exitX=0.75;exitY=1;exitDx=0;exitDy=0;" parent="1" source="fmrnC86ueRESXoqnmyNB-101" edge="1">
          <mxGeometry relative="1" as="geometry">
            <mxPoint x="209" y="-382" as="targetPoint" />
            <Array as="points">
              <mxPoint x="260" y="-489" />
              <mxPoint x="260" y="-451" />
              <mxPoint x="209" y="-451" />
            </Array>
          </mxGeometry>
        </mxCell>
        <mxCell id="fmrnC86ueRESXoqnmyNB-101" value="&lt;h1&gt;info&lt;/h1&gt;&lt;p&gt;Con GitHub ya obtendriamos detalles de tecnologias, experiencia con proyectos del usuario, facilitaria procesado con LLM, para aportar datos adicionales al CV cargado y generar entrevista.&lt;/p&gt;" style="text;html=1;strokeColor=none;fillColor=none;spacing=5;spacingTop=-20;whiteSpace=wrap;overflow=hidden;rounded=0;" parent="1" vertex="1">
          <mxGeometry x="70.75" y="-620" width="264" height="131" as="geometry" />
        </mxCell>
        <mxCell id="fmrnC86ueRESXoqnmyNB-102" value="USER" style="swimlane;whiteSpace=wrap;html=1;dashed=1;strokeWidth=2;dashPattern=1 2;" parent="1" vertex="1">
          <mxGeometry x="-1120.5" y="573" width="289" height="491" as="geometry" />
        </mxCell>
        <mxCell id="fmrnC86ueRESXoqnmyNB-103" value="Iniciar Sesión" style="shape=mxgraph.uml25.action;html=1;align=center;verticalAlign=middle;absoluteArcSize=1;arcSize=10;dashed=0;spacingLeft=10;flipH=1;whiteSpace=wrap;" parent="fmrnC86ueRESXoqnmyNB-102" vertex="1">
          <mxGeometry x="77.5" y="53" width="172" height="83" as="geometry" />
        </mxCell>
        <mxCell id="fmrnC86ueRESXoqnmyNB-104" value="Datos &lt;br&gt;de Usuario" style="text;verticalAlign=middle;align=right;html=1;" parent="fmrnC86ueRESXoqnmyNB-103" vertex="1">
          <mxGeometry x="-93.81818181818183" width="93.81818181818183" height="83" as="geometry" />
        </mxCell>
        <mxCell id="fmrnC86ueRESXoqnmyNB-105" value="Proporcionar CV" style="shape=mxgraph.uml25.action;html=1;align=center;verticalAlign=top;absoluteArcSize=1;arcSize=10;dashed=0;spacingLeft=10;flipH=1;whiteSpace=wrap;" parent="fmrnC86ueRESXoqnmyNB-102" vertex="1">
          <mxGeometry x="77.5" y="335" width="172" height="83" as="geometry" />
        </mxCell>
        <mxCell id="fmrnC86ueRESXoqnmyNB-106" value="Datos &lt;br&gt;de CV" style="text;verticalAlign=middle;align=right;html=1;" parent="fmrnC86ueRESXoqnmyNB-105" vertex="1">
          <mxGeometry x="-93.81818181818183" width="93.81818181818183" height="83" as="geometry" />
        </mxCell>
        <mxCell id="fmrnC86ueRESXoqnmyNB-107" value="&lt;b&gt;Curriculum Vitae (Hoja de Vida)&lt;/b&gt;" style="shape=image;html=1;verticalAlign=top;verticalLabelPosition=bottom;labelBackgroundColor=#ffffff;imageAspect=0;aspect=fixed;image=https://cdn2.iconfinder.com/data/icons/boxicons-solid-vol-2/24/bxs-file-pdf-128.png" parent="fmrnC86ueRESXoqnmyNB-105" vertex="1">
          <mxGeometry x="51" y="26" width="57" height="57" as="geometry" />
        </mxCell>
        <mxCell id="fmrnC86ueRESXoqnmyNB-108" value="Proporcionar detalles de&amp;nbsp; Oferta" style="shape=mxgraph.uml25.action;html=1;align=center;verticalAlign=top;absoluteArcSize=1;arcSize=10;dashed=0;spacingLeft=10;flipH=1;whiteSpace=wrap;" parent="fmrnC86ueRESXoqnmyNB-102" vertex="1">
          <mxGeometry x="76.5" y="182" width="172" height="83" as="geometry" />
        </mxCell>
        <mxCell id="fmrnC86ueRESXoqnmyNB-109" value="Datos &lt;br&gt;de Oferta" style="text;verticalAlign=middle;align=right;html=1;" parent="fmrnC86ueRESXoqnmyNB-108" vertex="1">
          <mxGeometry x="-93.81818181818183" width="93.81818181818183" height="83" as="geometry" />
        </mxCell>
        <mxCell id="fmrnC86ueRESXoqnmyNB-110" value="Oferta Laboral" style="text;html=1;strokeColor=none;fillColor=none;align=center;verticalAlign=middle;whiteSpace=wrap;rounded=0;fontStyle=1" parent="fmrnC86ueRESXoqnmyNB-102" vertex="1">
          <mxGeometry x="116.5" y="265" width="99" height="30" as="geometry" />
        </mxCell>
        <mxCell id="fmrnC86ueRESXoqnmyNB-111" style="edgeStyle=orthogonalEdgeStyle;rounded=0;orthogonalLoop=1;jettySize=auto;html=1;entryX=0;entryY=0.494;entryDx=0;entryDy=0;entryPerimeter=0;strokeWidth=3;strokeColor=#999999;flowAnimation=0;dashed=1;" parent="1" source="fmrnC86ueRESXoqnmyNB-103" target="fmrnC86ueRESXoqnmyNB-3" edge="1">
          <mxGeometry relative="1" as="geometry" />
        </mxCell>
        <mxCell id="fmrnC86ueRESXoqnmyNB-112" style="edgeStyle=orthogonalEdgeStyle;rounded=0;orthogonalLoop=1;jettySize=auto;html=1;entryX=0.5;entryY=0;entryDx=0;entryDy=0;exitX=0.5;exitY=1;exitDx=0;exitDy=0;strokeColor=#B3B3B3;curved=1;dashed=1;dashPattern=1 1;strokeWidth=3;" parent="1" source="fmrnC86ueRESXoqnmyNB-113" target="fmrnC86ueRESXoqnmyNB-95" edge="1">
          <mxGeometry relative="1" as="geometry" />
        </mxCell>
        <mxCell id="fmrnC86ueRESXoqnmyNB-113" value="&lt;h1&gt;info&lt;/h1&gt;&lt;p&gt;Con la cuenta Google solo permitiría identificar al usuario para generar la entrevista.&lt;/p&gt;" style="text;html=1;strokeColor=none;fillColor=none;spacing=5;spacingTop=-20;whiteSpace=wrap;overflow=hidden;rounded=0;" parent="1" vertex="1">
          <mxGeometry x="491" y="-604" width="264" height="101" as="geometry" />
        </mxCell>
        <mxCell id="fmrnC86ueRESXoqnmyNB-114" style="edgeStyle=orthogonalEdgeStyle;rounded=0;orthogonalLoop=1;jettySize=auto;html=1;entryX=0;entryY=0;entryDx=0;entryDy=0;strokeColor=#B3B3B3;curved=1;strokeWidth=3;dashed=1;dashPattern=1 1;" parent="1" source="fmrnC86ueRESXoqnmyNB-115" target="fmrnC86ueRESXoqnmyNB-1" edge="1">
          <mxGeometry relative="1" as="geometry">
            <Array as="points">
              <mxPoint x="-630" y="137" />
              <mxPoint x="-630" y="108" />
            </Array>
          </mxGeometry>
        </mxCell>
        <mxCell id="fmrnC86ueRESXoqnmyNB-115" value="&lt;h1&gt;info&lt;/h1&gt;&lt;p&gt;Se requiere definir la interfaz grafica (diseño UI) y proponer la interactividad para tener cuenta experiencia de usuario (UX) a nivel general&lt;/p&gt;" style="text;html=1;strokeColor=none;fillColor=none;spacing=5;spacingTop=-20;whiteSpace=wrap;overflow=hidden;rounded=0;" parent="1" vertex="1">
          <mxGeometry x="-860" y="81" width="212" height="131" as="geometry" />
        </mxCell>
        <mxCell id="fmrnC86ueRESXoqnmyNB-116" style="edgeStyle=orthogonalEdgeStyle;rounded=0;orthogonalLoop=1;jettySize=auto;html=1;entryX=0.75;entryY=0;entryDx=0;entryDy=0;curved=1;exitX=0;exitY=0.75;exitDx=0;exitDy=0;strokeWidth=3;strokeColor=#B3B3B3;" parent="1" source="fmrnC86ueRESXoqnmyNB-117" target="fmrnC86ueRESXoqnmyNB-84" edge="1">
          <mxGeometry relative="1" as="geometry">
            <Array as="points">
              <mxPoint x="408" y="-141" />
              <mxPoint x="408" y="-182" />
              <mxPoint x="313" y="-182" />
            </Array>
          </mxGeometry>
        </mxCell>
        <mxCell id="fmrnC86ueRESXoqnmyNB-117" value="&lt;h1&gt;info&lt;/h1&gt;&lt;p&gt;Se requiere definir la estrategia (herramienta, API etc) para realizar autenticación, de momento se contempla la posibilidad de usar keyCloak&lt;/p&gt;" style="text;html=1;strokeColor=none;fillColor=none;spacing=5;spacingTop=-20;whiteSpace=wrap;overflow=hidden;rounded=0;" parent="1" vertex="1">
          <mxGeometry x="521" y="-231" width="190" height="128" as="geometry" />
        </mxCell>
        <mxCell id="fmrnC86ueRESXoqnmyNB-118" style="edgeStyle=orthogonalEdgeStyle;rounded=0;orthogonalLoop=1;jettySize=auto;html=1;strokeWidth=3;strokeColor=#990000;flowAnimation=1;entryX=0;entryY=0.25;entryDx=0;entryDy=0;" parent="1" source="fmrnC86ueRESXoqnmyNB-3" target="MMBDNyzYMdrIuKqSOUde-3" edge="1">
          <mxGeometry relative="1" as="geometry">
            <mxPoint x="950" y="665" as="targetPoint" />
            <Array as="points">
              <mxPoint x="625" y="302" />
              <mxPoint x="625" y="622" />
            </Array>
          </mxGeometry>
        </mxCell>
        <mxCell id="fmrnC86ueRESXoqnmyNB-119" value="&lt;b style=&quot;font-size: 19px;&quot;&gt;&lt;i style=&quot;font-size: 19px;&quot;&gt;Aspectos a tener en cuenta&lt;/i&gt;&lt;/b&gt;&lt;br style=&quot;font-size: 19px;&quot;&gt;&lt;br style=&quot;font-size: 19px;&quot;&gt;Se va a trabajar con eventos y procesos asincronos.&lt;br&gt;&lt;br&gt;Se haran versiones incremetales de la aplicación para ir abarcando mayores funciones y caracteristicas." style="text;html=1;strokeColor=default;fillColor=none;align=left;verticalAlign=top;whiteSpace=wrap;rounded=0;fontSize=19;labelBackgroundColor=none;strokeWidth=1;dashed=1;" parent="1" vertex="1">
          <mxGeometry x="-253" y="-889" width="479" height="180" as="geometry" />
        </mxCell>
        <mxCell id="fmrnC86ueRESXoqnmyNB-120" value="&lt;h1&gt;info&lt;/h1&gt;&lt;p&gt;Aun no se a definido cómo quedaria visualmente el login, de momento al no implementar un login propio, queda por definir si se tendria un header, un menú o algo donde mostrar el usuario en sesión (con servicio externo)&lt;/p&gt;&lt;p&gt;&lt;br&gt;&lt;/p&gt;" style="text;html=1;strokeColor=none;fillColor=none;spacing=5;spacingTop=-20;whiteSpace=wrap;overflow=hidden;rounded=0;" parent="1" vertex="1">
          <mxGeometry x="-729" y="-96" width="270" height="131" as="geometry" />
        </mxCell>
        <mxCell id="fmrnC86ueRESXoqnmyNB-121" style="edgeStyle=orthogonalEdgeStyle;rounded=0;orthogonalLoop=1;jettySize=auto;html=1;curved=1;strokeWidth=3;strokeColor=#B3B3B3;dashed=1;dashPattern=1 1;entryX=0.516;entryY=-0.03;entryDx=0;entryDy=0;entryPerimeter=0;" parent="1" source="fmrnC86ueRESXoqnmyNB-120" target="fmrnC86ueRESXoqnmyNB-3" edge="1">
          <mxGeometry relative="1" as="geometry">
            <mxPoint x="-400" y="245" as="targetPoint" />
            <Array as="points">
              <mxPoint x="-172" y="-15" />
            </Array>
          </mxGeometry>
        </mxCell>
        <mxCell id="fmrnC86ueRESXoqnmyNB-122" style="edgeStyle=orthogonalEdgeStyle;rounded=0;orthogonalLoop=1;jettySize=auto;html=1;flowAnimation=0;entryX=0.002;entryY=0.628;entryDx=0;entryDy=0;entryPerimeter=0;strokeColor=#999999;strokeWidth=3;dashed=1;" parent="1" source="fmrnC86ueRESXoqnmyNB-105" target="fmrnC86ueRESXoqnmyNB-13" edge="1">
          <mxGeometry relative="1" as="geometry" />
        </mxCell>
        <mxCell id="fmrnC86ueRESXoqnmyNB-123" style="edgeStyle=orthogonalEdgeStyle;rounded=0;orthogonalLoop=1;jettySize=auto;html=1;flowAnimation=0;strokeWidth=3;strokeColor=#999999;dashed=1;" parent="1" source="fmrnC86ueRESXoqnmyNB-108" target="fmrnC86ueRESXoqnmyNB-11" edge="1">
          <mxGeometry relative="1" as="geometry">
            <mxPoint x="-380.5" y="905.5" as="targetPoint" />
            <Array as="points">
              <mxPoint x="-511" y="796" />
              <mxPoint x="-511" y="721" />
              <mxPoint x="-88" y="721" />
              <mxPoint x="-88" y="962" />
            </Array>
          </mxGeometry>
        </mxCell>
        <mxCell id="fmrnC86ueRESXoqnmyNB-124" style="edgeStyle=orthogonalEdgeStyle;rounded=0;orthogonalLoop=1;jettySize=auto;html=1;entryX=0;entryY=0.5;entryDx=0;entryDy=0;strokeWidth=3;flowAnimation=1;strokeColor=#990000;" parent="1" source="fmrnC86ueRESXoqnmyNB-15" target="MMBDNyzYMdrIuKqSOUde-3" edge="1">
          <mxGeometry relative="1" as="geometry">
            <Array as="points">
              <mxPoint x="539" y="909" />
              <mxPoint x="539" y="715" />
            </Array>
          </mxGeometry>
        </mxCell>
        <mxCell id="fmrnC86ueRESXoqnmyNB-125" value="JSON" style="edgeLabel;html=1;align=center;verticalAlign=middle;resizable=0;points=[];" parent="fmrnC86ueRESXoqnmyNB-124" vertex="1" connectable="0">
          <mxGeometry x="0.5341" y="3" relative="1" as="geometry">
            <mxPoint x="94" y="-19" as="offset" />
          </mxGeometry>
        </mxCell>
        <mxCell id="fmrnC86ueRESXoqnmyNB-126" value="HTTP" style="edgeLabel;html=1;align=center;verticalAlign=middle;resizable=0;points=[];" parent="fmrnC86ueRESXoqnmyNB-124" vertex="1" connectable="0">
          <mxGeometry x="0.4598" relative="1" as="geometry">
            <mxPoint x="54" y="-23" as="offset" />
          </mxGeometry>
        </mxCell>
        <mxCell id="fmrnC86ueRESXoqnmyNB-129" value="&lt;h1&gt;info&lt;/h1&gt;&lt;p&gt;Si se presenta una excepción, error, o no cumple las validaciones sobre CV y Oferta laboral, debe indicar al usuario en un popup (o la estragia que se contemple)&lt;/p&gt;&lt;p&gt;&lt;br&gt;&lt;/p&gt;" style="text;html=1;strokeColor=none;fillColor=none;spacing=5;spacingTop=-20;whiteSpace=wrap;overflow=hidden;rounded=0;" parent="1" vertex="1">
          <mxGeometry x="-949" y="1092" width="270" height="126" as="geometry" />
        </mxCell>
        <mxCell id="fmrnC86ueRESXoqnmyNB-130" style="edgeStyle=orthogonalEdgeStyle;rounded=0;orthogonalLoop=1;jettySize=auto;html=1;curved=1;strokeWidth=3;strokeColor=#B3B3B3;dashed=1;dashPattern=1 1;exitX=1;exitY=0.5;exitDx=0;exitDy=0;entryX=-0.003;entryY=0.882;entryDx=0;entryDy=0;entryPerimeter=0;" parent="1" source="fmrnC86ueRESXoqnmyNB-129" target="fmrnC86ueRESXoqnmyNB-8" edge="1">
          <mxGeometry relative="1" as="geometry">
            <Array as="points">
              <mxPoint x="-673" y="1152" />
              <mxPoint x="-577" y="1152" />
              <mxPoint x="-577" y="1062" />
              <mxPoint x="-475" y="1062" />
              <mxPoint x="-475" y="982" />
              <mxPoint x="-386" y="982" />
            </Array>
            <mxPoint x="-389" y="982" as="targetPoint" />
          </mxGeometry>
        </mxCell>
        <mxCell id="fmrnC86ueRESXoqnmyNB-131" value="&lt;h1&gt;info&lt;/h1&gt;&lt;p&gt;Se usa un formulario para dilligenciar la información de la oferta de empleo, y apartir de este poder tener contexto para generar la entrevista, por lo cual no se requeriría cargar el archivo PDF.&amp;nbsp;&lt;/p&gt;&lt;p&gt;&lt;br&gt;&lt;/p&gt;" style="text;html=1;strokeColor=none;fillColor=none;spacing=5;spacingTop=-20;whiteSpace=wrap;overflow=hidden;rounded=0;" parent="1" vertex="1">
          <mxGeometry x="-1481" y="708" width="270" height="137" as="geometry" />
        </mxCell>
        <mxCell id="fmrnC86ueRESXoqnmyNB-132" style="edgeStyle=orthogonalEdgeStyle;rounded=0;orthogonalLoop=1;jettySize=auto;html=1;entryX=0.922;entryY=0.985;entryDx=0;entryDy=0;entryPerimeter=0;curved=1;strokeWidth=3;strokeColor=#B3B3B3;dashed=1;dashPattern=1 1;" parent="1" source="fmrnC86ueRESXoqnmyNB-131" target="fmrnC86ueRESXoqnmyNB-108" edge="1">
          <mxGeometry relative="1" as="geometry" />
        </mxCell>
        <mxCell id="fmrnC86ueRESXoqnmyNB-133" value="&lt;h1&gt;info&lt;/h1&gt;&lt;p&gt;Si se usa la API de LinkedIn (falta confirmarlo) para el proceso de login, no seriá necesario cargar un PDF con el CV, ya que los datos se pueden obtener de la cuenta del usuario (Profesion, Skills, etc), y permitiría incentivar el tener una cuenta LinkedIn con datos actualizados, importante a la hora de buscar un empleo.&lt;/p&gt;&lt;p&gt;&lt;br&gt;&lt;/p&gt;" style="text;html=1;strokeColor=none;fillColor=none;spacing=5;spacingTop=-20;whiteSpace=wrap;overflow=hidden;rounded=0;" parent="1" vertex="1">
          <mxGeometry x="-1477" y="885" width="270" height="179" as="geometry" />
        </mxCell>
        <mxCell id="fmrnC86ueRESXoqnmyNB-134" style="edgeStyle=orthogonalEdgeStyle;rounded=0;orthogonalLoop=1;jettySize=auto;html=1;entryX=0.933;entryY=0.096;entryDx=0;entryDy=0;entryPerimeter=0;curved=1;strokeColor=#B3B3B3;dashed=1;dashPattern=1 1;strokeWidth=3;" parent="1" source="fmrnC86ueRESXoqnmyNB-133" target="fmrnC86ueRESXoqnmyNB-105" edge="1">
          <mxGeometry relative="1" as="geometry" />
        </mxCell>
        <mxCell id="fmrnC86ueRESXoqnmyNB-135" value="" style="html=1;shadow=0;dashed=0;shape=mxgraph.bootstrap.rrect;rSize=5;fillColor=#ffffff;strokeColor=#999999;fontSize=10;" parent="1" vertex="1">
          <mxGeometry x="-729" y="-457" width="246" height="354" as="geometry" />
        </mxCell>
        <mxCell id="fmrnC86ueRESXoqnmyNB-136" value="Correo" style="fillColor=none;strokeColor=none;align=left;spacing=20;fontSize=14;" parent="fmrnC86ueRESXoqnmyNB-135" vertex="1">
          <mxGeometry width="220" height="40" relative="1" as="geometry">
            <mxPoint y="10" as="offset" />
          </mxGeometry>
        </mxCell>
        <mxCell id="fmrnC86ueRESXoqnmyNB-137" value="email@example.com" style="html=1;shadow=0;dashed=0;shape=mxgraph.bootstrap.rrect;rSize=5;fillColor=none;strokeColor=#EA6B66;align=left;spacing=15;fontSize=14;fontColor=#6C767D;" parent="fmrnC86ueRESXoqnmyNB-135" vertex="1">
          <mxGeometry width="180" height="30" relative="1" as="geometry">
            <mxPoint x="20" y="50" as="offset" />
          </mxGeometry>
        </mxCell>
        <mxCell id="fmrnC86ueRESXoqnmyNB-138" value="Contraseña" style="fillColor=none;strokeColor=none;align=left;spacing=20;fontSize=14;" parent="fmrnC86ueRESXoqnmyNB-135" vertex="1">
          <mxGeometry width="220" height="40" relative="1" as="geometry">
            <mxPoint y="90" as="offset" />
          </mxGeometry>
        </mxCell>
        <mxCell id="fmrnC86ueRESXoqnmyNB-139" value="Password" style="html=1;shadow=0;dashed=0;shape=mxgraph.bootstrap.rrect;rSize=5;fillColor=none;strokeColor=#EA6B66;align=left;spacing=15;fontSize=14;fontColor=#6C767D;" parent="fmrnC86ueRESXoqnmyNB-135" vertex="1">
          <mxGeometry width="180" height="30" relative="1" as="geometry">
            <mxPoint x="20" y="130" as="offset" />
          </mxGeometry>
        </mxCell>
        <mxCell id="fmrnC86ueRESXoqnmyNB-140" value="Recuerdame" style="html=1;shadow=0;dashed=0;shape=mxgraph.bootstrap.rrect;rSize=2;fillColor=#EDEDED;strokeColor=#999999;align=left;fontSize=14;fontColor=#000000;labelPosition=right;verticalLabelPosition=middle;verticalAlign=middle;spacingLeft=5;spacingTop=-2;gradientColor=#DEDEDE;" parent="fmrnC86ueRESXoqnmyNB-135" vertex="1">
          <mxGeometry width="10" height="10" relative="1" as="geometry">
            <mxPoint x="20" y="180" as="offset" />
          </mxGeometry>
        </mxCell>
        <mxCell id="fmrnC86ueRESXoqnmyNB-141" value="Sign in" style="html=1;shadow=0;dashed=0;shape=mxgraph.bootstrap.rrect;rSize=5;fillColor=#CC0000;strokeColor=none;align=center;fontSize=14;fontColor=#FFFFFF;" parent="fmrnC86ueRESXoqnmyNB-135" vertex="1">
          <mxGeometry width="70" height="40" relative="1" as="geometry">
            <mxPoint x="20" y="210" as="offset" />
          </mxGeometry>
        </mxCell>
        <mxCell id="fmrnC86ueRESXoqnmyNB-142" value="" style="shape=line;strokeColor=#660000;perimeter=none;resizeWidth=1;" parent="fmrnC86ueRESXoqnmyNB-135" vertex="1">
          <mxGeometry width="246" height="10" relative="1" as="geometry">
            <mxPoint y="260" as="offset" />
          </mxGeometry>
        </mxCell>
        <mxCell id="fmrnC86ueRESXoqnmyNB-143" value="Nuevo por aqui? Registrate&lt;br&gt;&lt;br&gt;Olvidaste tu contraseña?" style="html=1;fillColor=none;strokeColor=none;align=left;spacing=20;fontSize=14;" parent="fmrnC86ueRESXoqnmyNB-135" vertex="1">
          <mxGeometry width="220" height="60" relative="1" as="geometry">
            <mxPoint y="275" as="offset" />
          </mxGeometry>
        </mxCell>
        <mxCell id="fmrnC86ueRESXoqnmyNB-144" value="" style="shape=image;verticalLabelPosition=bottom;labelBackgroundColor=default;verticalAlign=top;aspect=fixed;imageAspect=0;image=https://www.xpand-it.com/wp-content/uploads/2020/06/Keycloak-logo.png;" parent="1" vertex="1">
          <mxGeometry x="138" y="-100" width="218.68" height="63.05" as="geometry" />
        </mxCell>
        <mxCell id="lhFclQDhdp6DeZHNKzS2-1" value="" style="rounded=0;orthogonalLoop=1;jettySize=auto;html=1;endArrow=oval;endFill=0;sketch=0;sourcePerimeterSpacing=0;targetPerimeterSpacing=0;endSize=10;strokeWidth=3;flowAnimation=1;noJump=0;ignoreEdge=0;orthogonal=1;comic=0;startFill=1;snapToPoint=0;fixDash=0;bendable=1;strokeColor=#CC0066;enumerate=1;enumerateValue=1;exitX=1;exitY=0.5;exitDx=0;exitDy=0;" parent="1" source="fmrnC86ueRESXoqnmyNB-84" edge="1">
          <mxGeometry relative="1" as="geometry">
            <mxPoint x="498" y="862" as="sourcePoint" />
            <mxPoint x="1414" y="621" as="targetPoint" />
            <Array as="points">
              <mxPoint x="583" y="-80" />
              <mxPoint x="1412" y="436" />
            </Array>
          </mxGeometry>
        </mxCell>
        <mxCell id="lhFclQDhdp6DeZHNKzS2-2" value="" style="rounded=0;orthogonalLoop=1;jettySize=auto;html=1;endArrow=halfCircle;endFill=0;endSize=6;strokeWidth=3;sketch=0;exitX=1;exitY=0.25;exitDx=0;exitDy=0;flowAnimation=1;strokeColor=#003300;enumerate=1;enumerateValue=1;" parent="1" source="MMBDNyzYMdrIuKqSOUde-3" edge="1">
          <mxGeometry relative="1" as="geometry">
            <mxPoint x="1002" y="1263" as="sourcePoint" />
            <mxPoint x="1413" y="622" as="targetPoint" />
            <Array as="points" />
          </mxGeometry>
        </mxCell>
        <mxCell id="rq32EbOOFZi87f_258VK-1" style="edgeStyle=orthogonalEdgeStyle;rounded=0;orthogonalLoop=1;jettySize=auto;html=1;entryX=0;entryY=0.5;entryDx=0;entryDy=0;strokeWidth=3;flowAnimation=1;strokeColor=#990000;" parent="1" source="fmrnC86ueRESXoqnmyNB-13" target="MMBDNyzYMdrIuKqSOUde-3" edge="1">
          <mxGeometry relative="1" as="geometry">
            <Array as="points">
              <mxPoint x="-247" y="993" />
              <mxPoint x="606" y="993" />
              <mxPoint x="606" y="715" />
            </Array>
          </mxGeometry>
        </mxCell>
        <mxCell id="rq32EbOOFZi87f_258VK-2" style="edgeStyle=orthogonalEdgeStyle;rounded=0;orthogonalLoop=1;jettySize=auto;html=1;entryX=0;entryY=0.5;entryDx=0;entryDy=0;strokeWidth=3;strokeColor=#990000;flowAnimation=1;" parent="1" source="fmrnC86ueRESXoqnmyNB-11" target="MMBDNyzYMdrIuKqSOUde-3" edge="1">
          <mxGeometry relative="1" as="geometry">
            <Array as="points">
              <mxPoint x="571" y="952" />
              <mxPoint x="571" y="715" />
            </Array>
          </mxGeometry>
        </mxCell>
        <mxCell id="rq32EbOOFZi87f_258VK-3" style="edgeStyle=orthogonalEdgeStyle;rounded=0;orthogonalLoop=1;jettySize=auto;html=1;entryX=0;entryY=0.5;entryDx=0;entryDy=0;strokeWidth=3;strokeColor=#990000;flowAnimation=1;" parent="1" source="fmrnC86ueRESXoqnmyNB-20" target="MMBDNyzYMdrIuKqSOUde-3" edge="1">
          <mxGeometry relative="1" as="geometry">
            <Array as="points">
              <mxPoint x="643" y="1136" />
              <mxPoint x="643" y="715" />
            </Array>
          </mxGeometry>
        </mxCell>
        <mxCell id="yfJlqBbNNEd9f19oM9a5-1" value="Entrevistador Inteligente&lt;br&gt;&lt;br&gt;Diagrama de Componentes Extendido" style="text;html=1;strokeColor=#3700CC;fillColor=none;align=center;verticalAlign=middle;whiteSpace=wrap;rounded=1;fontStyle=3;fontSize=44;strokeWidth=1;fontColor=#330066;dashed=1;dashPattern=12 12;shadow=1;sketch=1;curveFitting=1;jiggle=2;glass=0;" parent="1" vertex="1">
          <mxGeometry x="-727" y="-1108" width="975" height="175" as="geometry" />
        </mxCell>
      </root>
    </mxGraphModel>
  </diagram>
</mxfile>
